<?xml version="1.0" standalone="no"?> <!DOCTYPE svg PUBLIC "-//W3C//DTD SVG 1.1//EN" "http://www.w3.org/Graphics/SVG/1.1/DTD/svg11.dtd">  <svg id="svg" width="744.0945" height="1052.362"> 	<text x="70.86614" y="103.29921" font-size="10" fill="#B2182B" >arenosa</text><text x="70.86614" y="298.181095" font-size="10" fill="#2166AC" >petraea</text><text x="162.290136760668" y="85.039368" font-size="9" fill="black" >1</text> <text x="235.56404832503" y="85.039368" font-size="9" fill="black" >2</text> <text x="302.19554495758" y="85.039368" font-size="9" fill="black" >3</text> <text x="370.437952987062" y="85.039368" font-size="9" fill="black" >4</text> <text x="431.687537727374" y="85.039368" font-size="9" fill="black" >5</text> <text x="496.972157408764" y="85.039368" font-size="9" fill="black" >6</text> <text x="573.260767292524" y="85.039368" font-size="9" fill="black" >7</text> <text x="642.837774017289" y="85.039368" font-size="9" fill="black" >8</text> <text x="165.379082354474" y="310.0393625" font-size="9" fill="black" >1</text> <text x="243.681785734109" y="310.0393625" font-size="9" fill="black" >2</text> <text x="310.250734828651" y="310.0393625" font-size="9" fill="black" >3</text> <text x="376.046461872394" y="310.0393625" font-size="9" fill="black" >4</text> <text x="438.381752716256" y="310.0393625" font-size="9" fill="black" >5</text> <text x="503.871908248465" y="310.0393625" font-size="9" fill="black" >6</text> <text x="574.112135514336" y="310.0393625" font-size="9" fill="black" >7</text> <text x="640.901495558747" y="310.0393625" font-size="9" fill="black" >8</text><path d="M 124.027612982878 106.29921 Q 124.027612982878 159.448815 124.035225708498 194.881885 T 124.042838434119 283.46456 L 165.942146124857 283.46456 Q 165.942146124857 230.314955 167.051171549255 194.881885 T 168.160196973652 106.29921 Z" stroke="#F5F5F5" fill="#F5F5F5" style="stroke-width: 0.5px;"/> <path d="M 182.97136917165 106.29921 Q 182.97136917165 159.448815 185.180764289983 194.881885 T 187.390159408316 283.46456 L 210.742549254346 283.46456 Q 210.742549254346 230.314955 207.659271182896 194.881885 T 204.575993111445 106.29921 Z" stroke="#F5F5F5" fill="#F5F5F5" style="stroke-width: 0.5px;"/> <path d="M 149.172283653858 106.29921 Q 149.172283653858 159.448815 208.302108487176 194.881885 T 267.431933320493 283.46456 L 273.537677741905 283.46456 Q 273.537677741905 230.314955 214.336040153051 194.881885 T 155.134402564198 106.29921 Z" stroke="#F5F5F5" fill="#F5F5F5" style="stroke-width: 0.5px;"/> <path d="M 155.269884216803 106.29921 Q 155.269884216803 159.448815 210.129086840514 194.881885 T 264.988289464224 283.46456 L 256.288038101443 283.46456 Q 256.288038101443 230.314955 208.88739893497 194.881885 T 161.486759768496 106.29921 Z" stroke="#F5F5F5" fill="#F5F5F5" style="stroke-width: 0.5px;"/> <path d="M 190.83591869394 106.29921 Q 190.83591869394 159.448815 246.17767198105 194.881885 T 301.51942526816 283.46456 L 307.667827808376 283.46456 Q 307.667827808376 230.314955 253.152933808673 194.881885 T 198.63803980897 106.29921 Z" stroke="#F5F5F5" fill="#F5F5F5" style="stroke-width: 0.5px;"/> <path d="M 198.511369341279 106.29921 Q 198.511369341279 159.448815 249.561769239844 194.881885 T 300.61216913841 283.46456 L 295.186391056983 283.46456 Q 295.186391056983 230.314955 249.823593629035 194.881885 T 204.460796201087 106.29921 Z" stroke="#F5F5F5" fill="#F5F5F5" style="stroke-width: 0.5px;"/> <path d="M 254.299762655068 106.29921 Q 254.299762655068 159.448815 200.015222766473 194.881885 T 145.730682877878 283.46456 L 153.129477519455 283.46456 Q 153.129477519455 230.314955 208.16420860057 194.881885 T 263.198939681686 106.29921 Z" stroke="#F0F0F0" fill="#F0F0F0" style="stroke-width: 0.5px;"/> <path d="M 245.341707051082 106.29921 Q 245.341707051082 159.448815 202.281945020177 194.881885 T 159.222182989273 283.46456 L 153.259771010977 283.46456 Q 153.259771010977 230.314955 203.73814613402 194.881885 T 254.216521257063 106.29921 Z" stroke="#F0F0F0" fill="#F0F0F0" style="stroke-width: 0.5px;"/> <path d="M 236.801689698572 106.29921 Q 236.801689698572 159.448815 241.634181148233 194.881885 T 246.466672597893 283.46456 L 277.055625291659 283.46456 Q 277.055625291659 230.314955 272.029813465838 194.881885 T 267.004001640017 106.29921 Z" stroke="#F0F0F0" fill="#F0F0F0" style="stroke-width: 0.5px;"/> <path d="M 208.330226214254 106.29921 Q 208.330226214254 159.448815 211.447202435035 194.881885 T 214.564178655817 283.46456 L 227.820005755053 283.46456 Q 227.820005755053 230.314955 224.322763772068 194.881885 T 220.825521789083 106.29921 Z" stroke="#F0F0F0" fill="#F0F0F0" style="stroke-width: 0.5px;"/> <path d="M 221.959350839308 106.29921 Q 221.959350839308 159.448815 225.603149883344 194.881885 T 229.246948927379 283.46456 L 240.780415197159 283.46456 Q 240.780415197159 230.314955 235.116420325689 194.881885 T 229.45242545422 106.29921 Z" stroke="#F0F0F0" fill="#F0F0F0" style="stroke-width: 0.5px;"/> <path d="M 286.725130130381 106.29921 Q 286.725130130381 159.448815 248.690302804672 194.881885 T 210.655475478964 283.46456 L 204.464874573201 283.46456 Q 204.464874573201 230.314955 248.684567569703 194.881885 T 292.904260566204 106.29921 Z" stroke="#E8E8E8" fill="#E8E8E8" style="stroke-width: 0.5px;"/> <path d="M 270.578172438812 106.29921 Q 270.578172438812 159.448815 275.605253338829 194.881885 T 280.632334238845 283.46456 L 313.271961055834 283.46456 Q 313.271961055834 230.314955 310.144091490374 194.881885 T 307.016221924915 106.29921 Z" stroke="#E8E8E8" fill="#E8E8E8" style="stroke-width: 0.5px;"/> <path d="M 306.906758271567 106.29921 Q 306.906758271567 159.448815 310.204376543782 194.881885 T 313.501994815997 283.46456 L 322.049555719967 283.46456 Q 322.049555719967 230.314955 318.602465932675 194.881885 T 315.155376145383 106.29921 Z" stroke="#E8E8E8" fill="#E8E8E8" style="stroke-width: 0.5px;"/> <path d="M 328.478511068283 106.29921 Q 328.478511068283 159.448815 331.504796872198 194.881885 T 334.531082676113 283.46456 L 339.387121716221 283.46456 Q 339.387121716221 230.314955 336.671175597577 194.881885 T 333.955229478932 106.29921 Z" stroke="#E8E8E8" fill="#E8E8E8" style="stroke-width: 0.5px;"/> <path d="M 270.65214483654 106.29921 Q 270.65214483654 159.448815 379.731640565292 194.881885 T 488.811136294044 283.46456 L 493.866070995453 283.46456 Q 493.866070995453 230.314955 384.443073846393 194.881885 T 275.020076697332 106.29921 Z" stroke="#E8E8E8" fill="#E8E8E8" style="stroke-width: 0.5px;"/> <path d="M 302.466959963718 106.29921 Q 302.466959963718 159.448815 442.809953746518 194.881885 T 583.152947529319 283.46456 L 587.057864741111 283.46456 Q 587.057864741111 230.314955 446.81776738231 194.881885 T 306.577670023509 106.29921 Z" stroke="#E8E8E8" fill="#E8E8E8" style="stroke-width: 0.5px;"/> <path d="M 329.161166599704 106.29921 Q 329.161166599704 159.448815 440.158056861024 194.881885 T 551.154947122344 283.46456 L 548.169897246775 283.46456 Q 548.169897246775 230.314955 440.919915138985 194.881885 T 333.669933031195 106.29921 Z" stroke="#E8E8E8" fill="#E8E8E8" style="stroke-width: 0.5px;"/> <path d="M 370.152312345851 106.29921 Q 370.152312345851 159.448815 373.843395854502 194.881885 T 377.534479363153 283.46456 L 408.658957308271 283.46456 Q 408.658957308271 230.314955 406.075338426161 194.881885 T 403.491719544052 106.29921 Z" stroke="#E0E0E0" fill="#E0E0E0" style="stroke-width: 0.5px;"/> <path d="M 341.888151179659 106.29921 Q 341.888151179659 159.448815 344.780547399541 194.881885 T 347.672943619423 283.46456 L 364.799925164252 283.46456 Q 364.799925164252 230.314955 360.789070346981 194.881885 T 356.77821552971 106.29921 Z" stroke="#E0E0E0" fill="#E0E0E0" style="stroke-width: 0.5px;"/> <path d="M 359.228531395119 106.29921 Q 359.228531395119 159.448815 363.776552724672 194.881885 T 368.324574054225 283.46456 L 374.972094043441 283.46456 Q 374.972094043441 230.314955 371.422369719849 194.881885 T 367.872645396257 106.29921 Z" stroke="#E0E0E0" fill="#E0E0E0" style="stroke-width: 0.5px;"/> <path d="M 394.993525385801 106.29921 Q 394.993525385801 159.448815 428.431935593336 194.881885 T 461.870345800871 283.46456 L 468.15540272263 283.46456 Q 468.15540272263 230.314955 435.814182961708 194.881885 T 403.472963200786 106.29921 Z" stroke="#E0E0E0" fill="#E0E0E0" style="stroke-width: 0.5px;"/> <path d="M 388.214935035025 106.29921 Q 388.214935035025 159.448815 422.1591552749 194.881885 T 456.103375514775 283.46456 L 460.86323009942 283.46456 Q 460.86323009942 230.314955 427.506002570982 194.881885 T 394.148775042544 106.29921 Z" stroke="#E0E0E0" fill="#E0E0E0" style="stroke-width: 0.5px;"/> <path d="M 341.929171436204 106.29921 Q 341.929171436204 159.448815 442.764770154036 194.881885 T 543.600368871869 283.46456 L 547.156414835641 283.46456 Q 547.156414835641 230.314955 446.640158007879 194.881885 T 346.123901180117 106.29921 Z" stroke="#E0E0E0" fill="#E0E0E0" style="stroke-width: 0.5px;"/> <path d="M 347.1569404173 106.29921 Q 347.1569404173 159.448815 452.202168472178 194.881885 T 557.247396527056 283.46456 L 554.200422543282 283.46456 Q 554.200422543282 230.314955 453.441646500561 194.881885 T 352.68287045784 106.29921 Z" stroke="#E0E0E0" fill="#E0E0E0" style="stroke-width: 0.5px;"/> <path d="M 455.278218466575 106.29921 Q 455.278218466575 159.448815 429.184835738439 194.881885 T 403.091453010302 283.46456 L 408.628302241312 283.46456 Q 408.628302241312 230.314955 434.144317139985 194.881885 T 459.660332038658 106.29921 Z" stroke="#DCDCDC" fill="#DCDCDC" style="stroke-width: 0.5px;"/> <path d="M 440.377634928139 106.29921 Q 440.377634928139 159.448815 445.400197602003 194.881885 T 450.422760275866 283.46456 L 459.615314264028 283.46456 Q 459.615314264028 230.314955 455.0942909255 194.881885 T 450.573267586971 106.29921 Z" stroke="#DCDCDC" fill="#DCDCDC" style="stroke-width: 0.5px;"/> <path d="M 451.309793900018 106.29921 Q 451.309793900018 159.448815 455.679676923145 194.881885 T 460.049559946273 283.46456 L 468.677493285407 283.46456 Q 468.677493285407 230.314955 464.597411994558 194.881885 T 460.51733070371 106.29921 Z" stroke="#DCDCDC" fill="#DCDCDC" style="stroke-width: 0.5px;"/> <path d="M 407.117538959132 106.29921 Q 407.117538959132 159.448815 409.729404396096 194.881885 T 412.341269833061 283.46456 L 430.625927542041 283.46456 Q 430.625927542041 230.314955 427.000797924781 194.881885 T 423.37566830752 106.29921 Z" stroke="#DCDCDC" fill="#DCDCDC" style="stroke-width: 0.5px;"/> <path d="M 425.880006385789 106.29921 Q 425.880006385789 159.448815 430.012906802601 194.881885 T 434.145807219414 283.46456 L 450.097554681341 283.46456 Q 450.097554681341 230.314955 445.224543545231 194.881885 T 440.351532409122 106.29921 Z" stroke="#DCDCDC" fill="#DCDCDC" style="stroke-width: 0.5px;"/> <path d="M 482.460635099017 106.29921 Q 482.460635099017 159.448815 381.577547112194 194.881885 T 280.694459125372 283.46456 L 284.820916301366 283.46456 Q 284.820916301366 230.314955 386.715026994203 194.881885 T 488.609137687039 106.29921 Z" stroke="#D8D8D8" fill="#D8D8D8" style="stroke-width: 0.5px;"/> <path d="M 465.046733257878 106.29921 Q 465.046733257878 159.448815 377.78569606648 194.881885 T 290.524658875081 283.46456 L 294.256595378239 283.46456 Q 294.256595378239 230.314955 383.260113946995 194.881885 T 472.263632515752 106.29921 Z" stroke="#D8D8D8" fill="#D8D8D8" style="stroke-width: 0.5px;"/> <path d="M 472.87528792765 106.29921 Q 472.87528792765 159.448815 476.341411501579 194.881885 T 479.807535075507 283.46456 L 506.200849367181 283.46456 Q 506.200849367181 230.314955 503.046713877152 194.881885 T 499.892578387123 106.29921 Z" stroke="#D8D8D8" fill="#D8D8D8" style="stroke-width: 0.5px;"/> <path d="M 464.116410179921 106.29921 Q 464.116410179921 159.448815 468.22625043475 194.881885 T 472.336090689579 283.46456 L 479.795741531475 283.46456 Q 479.795741531475 230.314955 476.037364235089 194.881885 T 472.278986938703 106.29921 Z" stroke="#D8D8D8" fill="#D8D8D8" style="stroke-width: 0.5px;"/> <path d="M 516.954395562342 106.29921 Q 516.954395562342 159.448815 518.493744565826 194.881885 T 520.033093569309 283.46456 L 533.414767938681 283.46456 Q 533.414767938681 230.314955 530.983156687308 194.881885 T 528.551545435936 106.29921 Z" stroke="#D8D8D8" fill="#D8D8D8" style="stroke-width: 0.5px;"/> <path d="M 529.738132424288 106.29921 Q 529.738132424288 159.448815 532.239312536317 194.881885 T 534.740492648345 283.46456 L 539.600358115891 283.46456 Q 539.600358115891 230.314955 536.833077889474 194.881885 T 534.065797663056 106.29921 Z" stroke="#D8D8D8" fill="#D8D8D8" style="stroke-width: 0.5px;"/> <path d="M 499.946336475735 106.29921 Q 499.946336475735 159.448815 503.299221197865 194.881885 T 506.652105919994 283.46456 L 513.393802581456 283.46456 Q 513.393802581456 230.314955 509.954838413245 194.881885 T 506.515874245035 106.29921 Z" stroke="#D8D8D8" fill="#D8D8D8" style="stroke-width: 0.5px;"/> <path d="M 522.281894337833 106.29921 Q 522.281894337833 159.448815 543.975940178889 194.881885 T 565.669986019946 283.46456 L 570.842585547419 283.46456 Q 570.842585547419 230.314955 549.461035259509 194.881885 T 528.079484971599 106.29921 Z" stroke="#D8D8D8" fill="#D8D8D8" style="stroke-width: 0.5px;"/> <path d="M 602.044292743921 106.29921 Q 602.044292743921 159.448815 426.69729769855 194.881885 T 251.350302653179 283.46456 L 255.830828034914 283.46456 Q 255.830828034914 230.314955 430.870444527165 194.881885 T 605.910061019416 106.29921 Z" stroke="#D3D3D3" fill="#D3D3D3" style="stroke-width: 0.5px;"/> <path d="M 577.858368441641 106.29921 Q 577.858368441641 159.448815 443.330257601366 194.881885 T 308.802146761092 283.46456 L 313.259259644608 283.46456 Q 313.259259644608 230.314955 447.80296684633 194.881885 T 582.346674048052 106.29921 Z" stroke="#D3D3D3" fill="#D3D3D3" style="stroke-width: 0.5px;"/> <path d="M 537.631072757178 106.29921 Q 537.631072757178 159.448815 540.414100096725 194.881885 T 543.197127436273 283.46456 L 581.583710723455 283.46456 Q 581.583710723455 230.314955 579.876654546165 194.881885 T 578.169598368876 106.29921 Z" stroke="#D3D3D3" fill="#D3D3D3" style="stroke-width: 0.5px;"/> <path d="M 593.583072458736 106.29921 Q 593.583072458736 159.448815 590.873705991055 194.881885 T 588.164339523374 283.46456 L 597.152192737889 283.46456 Q 597.152192737889 230.314955 600.345710841133 194.881885 T 603.539228944377 106.29921 Z" stroke="#D3D3D3" fill="#D3D3D3" style="stroke-width: 0.5px;"/> <path d="M 578.061624376287 106.29921 Q 578.061624376287 159.448815 580.222965691663 194.881885 T 582.384307007039 283.46456 L 587.58911254126 283.46456 Q 587.58911254126 230.314955 584.936168450813 194.881885 T 582.283224360366 106.29921 Z" stroke="#D3D3D3" fill="#D3D3D3" style="stroke-width: 0.5px;"/> <path d="M 603.33332120228 106.29921 Q 603.33332120228 159.448815 606.211217031595 194.881885 T 609.08911286091 283.46456 L 597.600050608385 283.46456 Q 597.600050608385 230.314955 605.253467759457 194.881885 T 612.906884910529 106.29921 Z" stroke="#D3D3D3" fill="#D3D3D3" style="stroke-width: 0.5px;"/> <path d="M 568.770229884679 106.29921 Q 568.770229884679 159.448815 593.727739447399 194.881885 T 618.68524901012 283.46456 L 613.035408141231 283.46456 Q 613.035408141231 230.314955 593.067329551242 194.881885 T 573.099250961253 106.29921 Z" stroke="#D3D3D3" fill="#D3D3D3" style="stroke-width: 0.5px;"/> <path d="M 616.788499855671 106.29921 Q 616.788499855671 159.448815 596.79166230654 194.881885 T 576.79482475741 283.46456 L 572.579230736031 283.46456 Q 572.579230736031 230.314955 597.49234244571 194.881885 T 622.40545415539 106.29921 Z" stroke="#D0D0D0" fill="#D0D0D0" style="stroke-width: 0.5px;"/> <path d="M 630.979451972821 106.29921 Q 630.979451972821 159.448815 631.017678783913 194.881885 T 631.055905595005 283.46456 L 673.21802046965 283.46456 Q 673.21802046965 230.314955 673.217218352618 194.881885 T 673.216416235586 106.29921 Z" stroke="#D0D0D0" fill="#D0D0D0" style="stroke-width: 0.5px;"/> <path d="M 622.050397211267 106.29921 Q 622.050397211267 159.448815 620.603112025193 194.881885 T 619.155826839118 283.46456 L 630.967763911736 283.46456 Q 630.967763911736 230.314955 631.202566687914 194.881885 T 631.437369464091 106.29921 Z" stroke="#D0D0D0" fill="#D0D0D0" style="stroke-width: 0.5px;"/> <path d="M 616.657649181547 106.29921 Q 616.657649181547 159.448815 614.786284980442 194.881885 T 612.914920779338 283.46456 L 618.687498309291 283.46456 Q 618.687498309291 230.314955 620.488513285699 194.881885 T 622.289528262108 106.29921 Z" stroke="#D0D0D0" fill="#D0D0D0" style="stroke-width: 0.5px;"/> <path d="M 124.935168550656 106.29921 Q 124.935168550656 159.448815 124.902321671874 194.881885 T 124.869474793091 283.46456 L 124.872701795394 283.46456 Q 124.872701795394 230.314955 124.905822780984 194.881885 T 124.938943766574 106.29921 Z" stroke="#DB4348" fill="#DB4348" style="stroke-width: 0.5px;"/> <path d="M 147.725956880007 106.29921 Q 147.725956880007 159.448815 146.767791733076 194.881885 T 145.809626586144 283.46456 L 145.811491787655 283.46456 Q 145.811491787655 230.314955 146.769800199935 194.881885 T 147.728108612214 106.29921 Z" stroke="#DB4348" fill="#DB4348" style="stroke-width: 0.5px;"/> <path d="M 149.698876971269 106.29921 Q 149.698876971269 159.448815 148.67737812537 194.881885 T 147.655879279472 283.46456 L 147.662900701073 283.46456 Q 147.662900701073 230.314955 148.685253929576 194.881885 T 149.70760715808 106.29921 Z" stroke="#A37945" fill="#A37945" style="stroke-width: 0.5px;"/> <path d="M 154.802504034141 106.29921 Q 154.802504034141 159.448815 153.830786945884 194.881885 T 152.859069857626 283.46456 L 152.865934148367 283.46456 Q 152.865934148367 230.314955 153.837591077487 194.881885 T 154.809248006607 106.29921 Z" stroke="#A37945" fill="#A37945" style="stroke-width: 0.5px;"/> <path d="M 155.491414027756 106.29921 Q 155.491414027756 159.448815 154.464573688807 194.881885 T 153.437733349857 283.46456 L 153.439162076756 283.46456 Q 153.439162076756 230.314955 154.469429520465 194.881885 T 155.499696964174 106.29921 Z" stroke="#3E5733" fill="#3E5733" style="stroke-width: 0.5px;"/> <path d="M 165.269793764542 106.29921 Q 165.269793764542 159.448815 164.303625725117 194.881885 T 163.337457685692 283.46456 L 163.339069731928 283.46456 Q 163.339069731928 230.314955 164.305407247125 194.881885 T 165.271744762321 106.29921 Z" stroke="#DB4348" fill="#DB4348" style="stroke-width: 0.5px;"/> <path d="M 189.818973427604 106.29921 Q 189.818973427604 159.448815 192.473051093838 194.881885 T 195.127128760073 283.46456 L 195.128993961584 283.46456 Q 195.128993961584 230.314955 192.47511942886 194.881885 T 189.821244896137 106.29921 Z" stroke="#DB4348" fill="#DB4348" style="stroke-width: 0.5px;"/> <path d="M 262.61940882166 106.29921 Q 262.61940882166 159.448815 207.739239339643 194.881885 T 152.859069857626 283.46456 L 152.865934148367 283.46456 Q 152.865934148367 230.314955 207.74598712474 194.881885 T 262.626040101113 106.29921 Z" stroke="#A37945" fill="#A37945" style="stroke-width: 0.5px;"/> <path d="M 242.257007001819 106.29921 Q 242.257007001819 159.448815 247.647719617752 194.881885 T 253.038432233685 283.46456 L 253.040314894181 283.46456 Q 253.040314894181 230.314955 247.649810768893 194.881885 T 242.259306643605 106.29921 Z" stroke="#3E5733" fill="#3E5733" style="stroke-width: 0.5px;"/> <path d="M 242.292029877106 106.29921 Q 242.292029877106 159.448815 247.677871360176 194.881885 T 253.063712843247 283.46456 L 253.066517920091 283.46456 Q 253.066517920091 230.314955 247.680531130019 194.881885 T 242.294544339947 106.29921 Z" stroke="#DB4348" fill="#DB4348" style="stroke-width: 0.5px;"/> <path d="M 244.047632058757 106.29921 Q 244.047632058757 159.448815 249.478795887835 194.881885 T 254.909959716913 283.46456 L 254.912453441866 283.46456 Q 254.912453441866 230.314955 249.481557062667 194.881885 T 244.050660683467 106.29921 Z" stroke="#DB4348" fill="#DB4348" style="stroke-width: 0.5px;"/> <path d="M 249.579647521971 106.29921 Q 249.579647521971 159.448815 255.144544531979 194.881885 T 260.709441541986 283.46456 L 260.71472579463 283.46456 Q 260.71472579463 230.314955 255.150400169984 194.881885 T 249.586074545339 106.29921 Z" stroke="#A37945" fill="#A37945" style="stroke-width: 0.5px;"/> <path d="M 254.377453922207 106.29921 Q 254.377453922207 159.448815 259.743880659649 194.881885 T 265.110307397091 283.46456 L 265.112268623017 283.46456 Q 265.112268623017 230.314955 259.7460480709 194.881885 T 254.379827518783 106.29921 Z" stroke="#DB4348" fill="#DB4348" style="stroke-width: 0.5px;"/> <path d="M 218.440603087483 106.29921 Q 218.440603087483 159.448815 221.821308328589 194.881885 T 225.202013569696 283.46456 L 225.20455094211 283.46456 Q 225.20455094211 230.314955 221.824112457092 194.881885 T 218.443673972073 106.29921 Z" stroke="#43426B" fill="#43426B" style="stroke-width: 0.5px;"/> <path d="M 219.068648289385 106.29921 Q 219.068648289385 159.448815 222.495797853102 194.881885 T 225.922947416819 283.46456 L 225.925502248218 283.46456 Q 225.925502248218 230.314955 222.498615993581 194.881885 T 219.071729738945 106.29921 Z" stroke="#43426B" fill="#43426B" style="stroke-width: 0.5px;"/> <path d="M 237.628807107032 106.29921 Q 237.628807107032 159.448815 241.550736395503 194.881885 T 245.472665683974 283.46456 L 245.475098302482 283.46456 Q 245.475098302482 230.314955 241.553398344807 194.881885 T 237.631698387133 106.29921 Z" stroke="#3E5733" fill="#3E5733" style="stroke-width: 0.5px;"/> <path d="M 275.029095659988 106.29921 Q 275.029095659988 159.448815 279.755290102145 194.881885 T 284.481484544301 283.46456 L 284.483279909875 283.46456 Q 284.483279909875 230.314955 279.75717384879 194.881885 T 275.031067787706 106.29921 Z" stroke="#DB4348" fill="#DB4348" style="stroke-width: 0.5px;"/> <path d="M 277.950538750724 106.29921 Q 277.950538750724 159.448815 282.482253596972 194.881885 T 287.01396844322 283.46456 L 287.015545571487 283.46456 Q 287.015545571487 230.314955 282.484528300207 194.881885 T 277.953511028928 106.29921 Z" stroke="#3E5733" fill="#3E5733" style="stroke-width: 0.5px;"/> <path d="M 277.960279652991 106.29921 Q 277.960279652991 159.448815 282.489649781197 194.881885 T 287.019019909403 283.46456 L 287.021906461508 283.46456 Q 287.021906461508 230.314955 282.492681324394 194.881885 T 277.96345618728 106.29921 Z" stroke="#3E5733" fill="#3E5733" style="stroke-width: 0.5px;"/> <path d="M 279.398953866963 106.29921 Q 279.398953866963 159.448815 283.860214284758 194.881885 T 288.321474702554 283.46456 L 288.323034371836 283.46456 Q 288.323034371836 230.314955 283.861937923379 194.881885 T 279.400841474922 106.29921 Z" stroke="#DB4348" fill="#DB4348" style="stroke-width: 0.5px;"/> <path d="M 296.514955251249 106.29921 Q 296.514955251249 159.448815 300.102325798157 194.881885 T 303.689696345066 283.46456 L 303.693036830768 283.46456 Q 303.693036830768 230.314955 300.10600690695 194.881885 T 296.518976983132 106.29921 Z" stroke="#43426B" fill="#43426B" style="stroke-width: 0.5px;"/> <path d="M 370.956598854312 106.29921 Q 370.956598854312 159.448815 374.72505157305 194.881885 T 378.493504291788 283.46456 L 378.497240514472 283.46456 Q 378.497240514472 230.314955 374.72934258416 194.881885 T 370.961444653849 106.29921 Z" stroke="#3E5733" fill="#3E5733" style="stroke-width: 0.5px;"/> <path d="M 381.219829712353 106.29921 Q 381.219829712353 159.448815 384.622462006193 194.881885 T 388.025094300033 283.46456 L 388.026601592362 283.46456 Q 388.026601592362 230.314955 384.624127761427 194.881885 T 381.221653930492 106.29921 Z" stroke="#DB4348" fill="#DB4348" style="stroke-width: 0.5px;"/> <path d="M 391.341292760685 106.29921 Q 391.341292760685 159.448815 394.319677110838 194.881885 T 397.29806146099 283.46456 L 397.301113873447 283.46456 Q 397.301113873447 230.314955 394.323050425974 194.881885 T 391.344986978501 106.29921 Z" stroke="#3E5733" fill="#3E5733" style="stroke-width: 0.5px;"/> <path d="M 349.925765474219 106.29921 Q 349.925765474219 159.448815 353.489483767019 194.881885 T 357.053202059819 283.46456 L 357.054910130469 283.46456 Q 357.054910130469 230.314955 353.491450645843 194.881885 T 349.927991161216 106.29921 Z" stroke="#DB4348" fill="#DB4348" style="stroke-width: 0.5px;"/> <path d="M 356.030307222402 106.29921 Q 356.030307222402 159.448815 360.071917660355 194.881885 T 364.113528098309 283.46456 L 364.118759973998 283.46456 Q 364.118759973998 230.314955 360.077674915923 194.881885 T 356.036589857848 106.29921 Z" stroke="#A37945" fill="#A37945" style="stroke-width: 0.5px;"/> <path d="M 349.748661361783 106.29921 Q 349.748661361783 159.448815 353.400931710801 194.881885 T 357.053202059819 283.46456 L 357.054910130469 283.46456 Q 357.054910130469 230.314955 353.402718985136 194.881885 T 349.750527839802 106.29921 Z" stroke="#DB4348" fill="#DB4348" style="stroke-width: 0.5px;"/> <path d="M 410.199291381787 106.29921 Q 410.199291381787 159.448815 413.110061837162 194.881885 T 416.020832292537 283.46456 L 416.027894451769 283.46456 Q 416.027894451769 230.314955 413.117299460392 194.881885 T 410.206704469015 106.29921 Z" stroke="#A37945" fill="#A37945" style="stroke-width: 0.5px;"/> <path d="M 413.339232137108 106.29921 Q 413.339232137108 159.448815 416.381989311056 194.881885 T 419.424746485003 283.46456 L 419.427589389646 283.46456 Q 419.427589389646 230.314955 416.385136375131 194.881885 T 413.342683360616 106.29921 Z" stroke="#DB4348" fill="#DB4348" style="stroke-width: 0.5px;"/> <path d="M 427.536463368048 106.29921 Q 427.536463368048 159.448815 431.726503676574 194.881885 T 435.9165439851 283.46456 L 435.91941307822 283.46456 Q 435.91941307822 230.314955 431.729711377253 194.881885 T 427.540009676285 106.29921 Z" stroke="#DB4348" fill="#DB4348" style="stroke-width: 0.5px;"/> <path d="M 427.966200562883 106.29921 Q 427.966200562883 159.448815 432.249033044006 194.881885 T 436.531865525128 283.46456 L 436.532857777414 283.46456 Q 436.532857777414 230.314955 432.251291759297 194.881885 T 427.96972574118 106.29921 Z" stroke="#DB4348" fill="#DB4348" style="stroke-width: 0.5px;"/> <path d="M 432.980479675137 106.29921 Q 432.980479675137 159.448815 437.944447965159 194.881885 T 442.908416255181 283.46456 L 442.909740228172 283.46456 Q 442.909740228172 230.314955 437.945958670905 194.881885 T 432.982177113638 106.29921 Z" stroke="#DB4348" fill="#DB4348" style="stroke-width: 0.5px;"/> <path d="M 472.002790451724 106.29921 Q 472.002790451724 159.448815 475.791037746659 194.881885 T 479.579285041594 283.46456 L 479.581420857365 283.46456 Q 479.581420857365 230.314955 475.793387537562 194.881885 T 472.005354217759 106.29921 Z" stroke="#3E5733" fill="#3E5733" style="stroke-width: 0.5px;"/> <path d="M 501.713246696858 106.29921 Q 501.713246696858 159.448815 504.955173811367 194.881885 T 508.197100925875 283.46456 L 508.200179526809 283.46456 Q 508.200179526809 230.314955 504.958570785711 194.881885 T 501.716962044614 106.29921 Z" stroke="#3E5733" fill="#3E5733" style="stroke-width: 0.5px;"/> <path d="M 501.791835986441 106.29921 Q 501.791835986441 159.448815 505.023173936513 194.881885 T 508.254511886586 283.46456 L 508.256420735558 283.46456 Q 508.256420735558 230.314955 505.025283464378 194.881885 T 501.794146193197 106.29921 Z" stroke="#3E5733" fill="#3E5733" style="stroke-width: 0.5px;"/> <path d="M 502.397539798617 106.29921 Q 502.397539798617 159.448815 505.603200315841 194.881885 T 508.808860833064 283.46456 L 508.810987919343 283.46456 Q 508.810987919343 230.314955 505.605778171335 194.881885 T 502.400568423328 106.29921 Z" stroke="#43426B" fill="#43426B" style="stroke-width: 0.5px;"/> <path d="M 504.464072566689 106.29921 Q 504.464072566689 159.448815 507.617257162526 194.881885 T 510.770441758363 283.46456 L 510.772402984289 283.46456 Q 510.772402984289 230.314955 507.619646438145 194.881885 T 504.466889892001 106.29921 Z" stroke="#43426B" fill="#43426B" style="stroke-width: 0.5px;"/> <path d="M 543.114355535805 106.29921 Q 543.114355535805 159.448815 545.783414678304 194.881885 T 548.452473820803 283.46456 L 548.459873520402 283.46456 Q 548.459873520402 230.314955 545.788505582476 194.881885 T 543.117137644551 106.29921 Z" stroke="#DB4348" fill="#DB4348" style="stroke-width: 0.5px;"/> <path d="M 608.05920833061 106.29921 Q 608.05920833061 159.448815 605.704878336606 194.881885 T 603.350548342602 283.46456 L 603.353530919121 283.46456 Q 603.353530919121 230.314955 605.708158626439 194.881885 T 608.062786333757 106.29921 Z" stroke="#43426B" fill="#43426B" style="stroke-width: 0.5px;"/> <path d="M 608.947243355632 106.29921 Q 608.947243355632 159.448815 605.613095618759 194.881885 T 602.278947881885 283.46456 L 602.285870369241 283.46456 Q 602.285870369241 230.314955 605.618689225532 194.881885 T 608.951508081824 106.29921 Z" stroke="#43426B" fill="#43426B" style="stroke-width: 0.5px;"/> <path d="M 639.937025109847 106.29921 Q 639.937025109847 159.448815 640.516015056991 194.881885 T 641.095005004135 283.46456 L 641.097612212487 283.46456 Q 641.097612212487 230.314955 640.518901645827 194.881885 T 639.940191079167 106.29921 Z" stroke="#3E5733" fill="#3E5733" style="stroke-width: 0.5px;"/> <path d="M 641.900662114206 106.29921 Q 641.900662114206 159.448815 642.601910640895 194.881885 T 643.303159167584 283.46456 L 643.306307604456 283.46456 Q 643.306307604456 230.314955 642.605501007758 194.881885 T 641.904694411059 106.29921 Z" stroke="#DB4348" fill="#DB4348" style="stroke-width: 0.5px;"/> <path d="M 642.204919161293 106.29921 Q 642.204919161293 159.448815 643.02953612025 194.881885 T 643.854153079207 283.46456 L 643.856786476036 283.46456 Q 643.856786476036 230.314955 643.032525605569 194.881885 T 642.208264735101 106.29921 Z" stroke="#DB4348" fill="#DB4348" style="stroke-width: 0.5px;"/> <path d="M 642.656448367418 106.29921 Q 642.656448367418 159.448815 643.4501735436 194.881885 T 644.243898719782 283.46456 L 644.246095641998 283.46456 Q 644.246095641998 230.314955 643.45262256003 194.881885 T 642.659149478061 106.29921 Z" stroke="#DB4348" fill="#DB4348" style="stroke-width: 0.5px;"/> <path d="M 642.974908255735 106.29921 Q 642.974908255735 159.448815 643.724215224772 194.881885 T 644.473522193809 283.46456 L 644.476138131654 283.46456 Q 644.476138131654 230.314955 643.725965161603 194.881885 T 642.975792191552 106.29921 Z" stroke="#DB4348" fill="#DB4348" style="stroke-width: 0.5px;"/> <path d="M 654.759568737137 106.29921 Q 654.759568737137 159.448815 655.432920312969 194.881885 T 656.106271888801 283.46456 L 656.108660859848 283.46456 Q 656.108660859848 230.314955 655.435560438543 194.881885 T 654.762460017238 106.29921 Z" stroke="#43426B" fill="#43426B" style="stroke-width: 0.5px;"/> <path d="M 660.145674922433 106.29921 Q 660.145674922433 159.448815 660.595305247754 194.881885 T 661.044935573075 283.46456 L 661.047499133966 283.46456 Q 661.047499133966 230.314955 660.598122470495 194.881885 T 660.148745807024 106.29921 Z" stroke="#43426B" fill="#43426B" style="stroke-width: 0.5px;"/> <path d="M 662.293491047418 106.29921 Q 662.293491047418 159.448815 662.652043564252 194.881885 T 663.010596081087 283.46456 L 663.01398312408 283.46456 Q 663.01398312408 230.314955 662.655872970501 194.881885 T 662.297762816922 106.29921 Z" stroke="#DB4348" fill="#DB4348" style="stroke-width: 0.5px;"/> <path d="M 669.855973993052 106.29921 Q 669.855973993052 159.448815 669.944589443219 194.881885 T 670.033204893387 283.46456 L 670.036370789243 283.46456 Q 670.036370789243 230.314955 669.948061759935 194.881885 T 669.859752730626 106.29921 Z" stroke="#43426B" fill="#43426B" style="stroke-width: 0.5px;"/><rect x="124.015745" y="88.582675" rx="2" ry="2" width="80.7487835213352" height="17.71654" style="fill:#f7f7f7;stroke:black;stroke-width:0.5"/> <rect x="208.307835521335" y="88.582675" rx="2" ry="2" width="58.7124256073899" height="17.71654" style="fill:#f7f7f7;stroke:black;stroke-width:0.5"/> <rect x="270.563568128725" y="88.582675" rx="2" ry="2" width="67.4639536577107" height="17.71654" style="fill:#f7f7f7;stroke:black;stroke-width:0.5"/> <rect x="341.570828786436" y="88.582675" rx="2" ry="2" width="61.9342484012526" height="17.71654" style="fill:#f7f7f7;stroke:black;stroke-width:0.5"/> <rect x="407.048384187688" y="88.582675" rx="2" ry="2" width="53.4783070793711" height="17.71654" style="fill:#f7f7f7;stroke:black;stroke-width:0.5"/> <rect x="464.06999826706" y="88.582675" rx="2" ry="2" width="70.0043182834096" height="17.71654" style="fill:#f7f7f7;stroke:black;stroke-width:0.5"/> <rect x="537.617623550469" y="88.582675" rx="2" ry="2" width="75.4862874841096" height="17.71654" style="fill:#f7f7f7;stroke:black;stroke-width:0.5"/> <rect x="616.647218034579" y="88.582675" rx="2" ry="2" width="56.5811119654213" height="17.71654" style="fill:#f7f7f7;stroke:black;stroke-width:0.5"/> <rect x="124.015745" y="283.46456" rx="2" ry="2" width="86.926674708948" height="17.71654" style="fill:#f7f7f7;stroke:black;stroke-width:0.5"/> <rect x="214.485726708948" y="283.46456" rx="2" ry="2" width="62.5921180503226" height="17.71654" style="fill:#f7f7f7;stroke:black;stroke-width:0.5"/> <rect x="280.621151759271" y="283.46456" rx="2" ry="2" width="63.4591661387597" height="17.71654" style="fill:#f7f7f7;stroke:black;stroke-width:0.5"/> <rect x="347.62362489803" y="283.46456" rx="2" ry="2" width="61.0456739487282" height="17.71654" style="fill:#f7f7f7;stroke:black;stroke-width:0.5"/> <rect x="412.212605846759" y="283.46456" rx="2" ry="2" width="56.5382937389953" height="17.71654" style="fill:#f7f7f7;stroke:black;stroke-width:0.5"/> <rect x="472.294206585754" y="283.46456" rx="2" ry="2" width="67.3554033254227" height="17.71654" style="fill:#f7f7f7;stroke:black;stroke-width:0.5"/> <rect x="543.192916911177" y="283.46456" rx="2" ry="2" width="66.038437206318" height="17.71654" style="fill:#f7f7f7;stroke:black;stroke-width:0.5"/> <rect x="612.774661117494" y="283.46456" rx="2" ry="2" width="60.4536688825055" height="17.71654" style="fill:#f7f7f7;stroke:black;stroke-width:0.5"/><rect x="124.015745" y="91.582675" rx="2" ry="2" width="80.7487835213352" height="11.71654" style="fill:#B2182B;stroke:#B2182B;stroke-width:0.5"/> <rect x="208.307835521335" y="91.582675" rx="2" ry="2" width="58.7124256073899" height="11.71654" style="fill:#B2182B;stroke:#B2182B;stroke-width:0.5"/> <rect x="270.563568128725" y="91.582675" rx="2" ry="2" width="67.4639536577107" height="11.71654" style="fill:#B2182B;stroke:#B2182B;stroke-width:0.5"/> <rect x="341.570828786436" y="91.582675" rx="2" ry="2" width="61.9342484012526" height="11.71654" style="fill:#B2182B;stroke:#B2182B;stroke-width:0.5"/> <rect x="407.048384187688" y="91.582675" rx="2" ry="2" width="53.4783070793711" height="11.71654" style="fill:#B2182B;stroke:#B2182B;stroke-width:0.5"/> <rect x="464.06999826706" y="91.582675" rx="2" ry="2" width="70.0043182834096" height="11.71654" style="fill:#B2182B;stroke:#B2182B;stroke-width:0.5"/> <rect x="537.617623550469" y="91.582675" rx="2" ry="2" width="75.4862874841096" height="11.71654" style="fill:#B2182B;stroke:#B2182B;stroke-width:0.5"/> <rect x="616.647218034579" y="91.582675" rx="2" ry="2" width="56.5811119654213" height="11.71654" style="fill:#B2182B;stroke:#B2182B;stroke-width:0.5"/> <rect x="124.015745" y="286.46456" rx="2" ry="2" width="86.926674708948" height="11.71654" style="fill:#2166AC;stroke:#2166AC;stroke-width:0.5"/> <rect x="214.485726708948" y="286.46456" rx="2" ry="2" width="62.5921180503226" height="11.71654" style="fill:#2166AC;stroke:#2166AC;stroke-width:0.5"/> <rect x="280.621151759271" y="286.46456" rx="2" ry="2" width="63.4591661387597" height="11.71654" style="fill:#2166AC;stroke:#2166AC;stroke-width:0.5"/> <rect x="347.62362489803" y="286.46456" rx="2" ry="2" width="61.0456739487282" height="11.71654" style="fill:#2166AC;stroke:#2166AC;stroke-width:0.5"/> <rect x="412.212605846759" y="286.46456" rx="2" ry="2" width="56.5382937389953" height="11.71654" style="fill:#2166AC;stroke:#2166AC;stroke-width:0.5"/> <rect x="472.294206585754" y="286.46456" rx="2" ry="2" width="67.3554033254227" height="11.71654" style="fill:#2166AC;stroke:#2166AC;stroke-width:0.5"/> <rect x="543.192916911177" y="286.46456" rx="2" ry="2" width="66.038437206318" height="11.71654" style="fill:#2166AC;stroke:#2166AC;stroke-width:0.5"/> <rect x="612.774661117494" y="286.46456" rx="2" ry="2" width="60.4536688825055" height="11.71654" style="fill:#2166AC;stroke:#2166AC;stroke-width:0.5"/></svg>