<?xml version="1.0" standalone="no"?> <!DOCTYPE svg PUBLIC "-//W3C//DTD SVG 1.1//EN" "http://www.w3.org/Graphics/SVG/1.1/DTD/svg11.dtd">  <svg id="svg" width="744.0945" height="1052.362"> 	<text x="70.86614" y="103.29921" font-size="10" fill="#216218" >thaliana</text><text x="70.86614" y="298.181095" font-size="10" fill="#2166AC" >petraea</text><text x="190.235092592792" y="85.039368" font-size="9" fill="black" >1</text> <text x="306.32637885359" y="85.039368" font-size="9" fill="black" >2</text> <text x="406.7727492991" y="85.039368" font-size="9" fill="black" >3</text> <text x="504.719574108048" y="85.039368" font-size="9" fill="black" >4</text> <text x="610.560148569747" y="85.039368" font-size="9" fill="black" >5</text> <text x="165.379082354474" y="310.0393625" font-size="9" fill="black" >1</text> <text x="243.681785734109" y="310.0393625" font-size="9" fill="black" >2</text> <text x="310.250734828651" y="310.0393625" font-size="9" fill="black" >3</text> <text x="376.046461872394" y="310.0393625" font-size="9" fill="black" >4</text> <text x="438.381752716256" y="310.0393625" font-size="9" fill="black" >5</text> <text x="503.871908248465" y="310.0393625" font-size="9" fill="black" >6</text> <text x="574.112135514336" y="310.0393625" font-size="9" fill="black" >7</text> <text x="640.901495558747" y="310.0393625" font-size="9" fill="black" >8</text><path d="M 125.935694799944 106.29921 Q 125.935694799944 159.448815 125.768420357814 194.881885 T 125.601145915684 283.46456 L 155.914101162749 283.46456 Q 155.914101162749 230.314955 159.235042602908 194.881885 T 162.555984043067 106.29921 Z" stroke="#F5F5F5" fill="#F5F5F5" style="stroke-width: 0.5px;"/> <path d="M 191.373112637047 106.29921 Q 191.373112637047 159.448815 189.253554002529 194.881885 T 187.133995368012 283.46456 L 208.598161121967 283.46456 Q 208.598161121967 230.314955 211.819563619135 194.881885 T 215.040966116303 106.29921 Z" stroke="#F5F5F5" fill="#F5F5F5" style="stroke-width: 0.5px;"/> <path d="M 166.593003303012 106.29921 Q 166.593003303012 159.448815 162.854362157305 194.881885 T 159.115721011598 283.46456 L 165.977488929155 283.46456 Q 165.977488929155 230.314955 169.927664562096 194.881885 T 173.877840195036 106.29921 Z" stroke="#F5F5F5" fill="#F5F5F5" style="stroke-width: 0.5px;"/> <path d="M 246.238232876442 106.29921 Q 246.238232876442 159.448815 195.98445787716 194.881885 T 145.730682877878 283.46456 L 153.129477519455 283.46456 Q 153.129477519455 230.314955 204.702217908585 194.881885 T 256.274958297716 106.29921 Z" stroke="#F5F5F5" fill="#F5F5F5" style="stroke-width: 0.5px;"/> <path d="M 224.219536647905 106.29921 Q 224.219536647905 159.448815 180.561557045714 194.881885 T 136.903577443523 283.46456 L 140.115108175909 283.46456 Q 140.115108175909 230.314955 184.672099604964 194.881885 T 229.22909103402 106.29921 Z" stroke="#F5F5F5" fill="#F5F5F5" style="stroke-width: 0.5px;"/> <path d="M 181.333405453101 106.29921 Q 181.333405453101 159.448815 178.397912627207 194.881885 T 175.462419801313 283.46456 L 179.141845498744 283.46456 Q 179.141845498744 230.314955 183.668803549943 194.881885 T 188.195761601142 106.29921 Z" stroke="#F5F5F5" fill="#F5F5F5" style="stroke-width: 0.5px;"/> <path d="M 246.115495621369 106.29921 Q 246.115495621369 159.448815 199.686993153408 194.881885 T 153.258490685447 283.46456 L 159.226175277063 283.46456 Q 159.226175277063 230.314955 198.345979543322 194.881885 T 237.465783809582 106.29921 Z" stroke="#F5F5F5" fill="#F5F5F5" style="stroke-width: 0.5px;"/> <path d="M 326.610036563706 106.29921 Q 326.610036563706 159.448815 227.849198198378 194.881885 T 129.08835983305 283.46456 L 132.20819306899 283.46456 Q 132.20819306899 230.314955 226.898100170952 194.881885 T 321.588007272915 106.29921 Z" stroke="#F0F0F0" fill="#F0F0F0" style="stroke-width: 0.5px;"/> <path d="M 381.400512426248 106.29921 Q 381.400512426248 159.448815 292.930620245315 194.881885 T 204.460728064381 283.46456 L 210.661414443526 283.46456 Q 210.661414443526 230.314955 292.527329426043 194.881885 T 374.39324440856 106.29921 Z" stroke="#E8E8E8" fill="#E8E8E8" style="stroke-width: 0.5px;"/> <path d="M 232.616341995896 106.29921 Q 232.616341995896 159.448815 239.546798824115 194.881885 T 246.477255652333 283.46456 L 275.511430489234 283.46456 Q 275.511430489234 230.314955 267.120540000569 194.881885 T 258.729649511904 106.29921 Z" stroke="#F5F5F5" fill="#F5F5F5" style="stroke-width: 0.5px;"/> <path d="M 152.447561599457 106.29921 Q 152.447561599457 159.448815 209.939747459975 194.881885 T 267.431933320493 283.46456 L 273.537677741905 283.46456 Q 273.537677741905 230.314955 216.496909308065 194.881885 T 159.456140874225 106.29921 Z" stroke="#F5F5F5" fill="#F5F5F5" style="stroke-width: 0.5px;"/> <path d="M 231.999350634194 106.29921 Q 231.999350634194 159.448815 223.281764645005 194.881885 T 214.564178655817 283.46456 L 227.820005755053 283.46456 Q 227.820005755053 230.314955 224.491961363142 194.881885 T 221.163916971232 106.29921 Z" stroke="#F5F5F5" fill="#F5F5F5" style="stroke-width: 0.5px;"/> <path d="M 203.41486239717 106.29921 Q 203.41486239717 159.448815 252.467143832665 194.881885 T 301.51942526816 283.46456 L 307.667827808376 283.46456 Q 307.667827808376 230.314955 259.286355943392 194.881885 T 210.904884078408 106.29921 Z" stroke="#F5F5F5" fill="#F5F5F5" style="stroke-width: 0.5px;"/> <path d="M 270.490290283126 106.29921 Q 270.490290283126 159.448815 293.748689963226 194.881885 T 317.007089643325 283.46456 L 321.932507778022 283.46456 Q 321.932507778022 230.314955 299.620047732111 194.881885 T 277.307587686201 106.29921 Z" stroke="#F0F0F0" fill="#F0F0F0" style="stroke-width: 0.5px;"/> <path d="M 357.832363881662 106.29921 Q 357.832363881662 159.448815 319.84564826791 194.881885 T 281.858932654158 283.46456 L 312.894366868474 283.46456 Q 312.894366868474 230.314955 354.196315378971 194.881885 T 395.498263889467 106.29921 Z" stroke="#E8E8E8" fill="#E8E8E8" style="stroke-width: 0.5px;"/> <path d="M 572.437301748629 106.29921 Q 572.437301748629 159.448815 426.565880437001 194.881885 T 280.694459125372 283.46456 L 284.820916301366 283.46456 Q 284.820916301366 230.314955 432.235434221791 194.881885 T 579.649952142215 106.29921 Z" stroke="#DCDCDC" fill="#DCDCDC" style="stroke-width: 0.5px;"/> <path d="M 553.947849457433 106.29921 Q 553.947849457433 159.448815 422.45696337378 194.881885 T 290.966077290126 283.46456 L 294.804836589972 283.46456 Q 294.804836589972 230.314955 428.319245908686 194.881885 T 561.8336552274 106.29921 Z" stroke="#DCDCDC" fill="#DCDCDC" style="stroke-width: 0.5px;"/> <path d="M 318.877540097419 106.29921 Q 318.877540097419 159.448815 348.206009730286 194.881885 T 377.534479363153 283.46456 L 408.642039552286 283.46456 Q 408.642039552286 230.314955 380.624668690257 194.881885 T 352.607297828228 106.29921 Z" stroke="#F0F0F0" fill="#F0F0F0" style="stroke-width: 0.5px;"/> <path d="M 304.606244657925 106.29921 Q 304.606244657925 159.448815 326.144329888221 194.881885 T 347.682415118517 283.46456 L 367.01121321542 283.46456 Q 367.01121321542 230.314955 340.981613414727 194.881885 T 314.952013614035 106.29921 Z" stroke="#F0F0F0" fill="#F0F0F0" style="stroke-width: 0.5px;"/> <path d="M 455.513058907559 106.29921 Q 455.513058907559 159.448815 429.302255958931 194.881885 T 403.091453010302 283.46456 L 408.628302241312 283.46456 Q 408.628302241312 230.314955 434.754464566497 194.881885 T 460.880626891681 106.29921 Z" stroke="#E8E8E8" fill="#E8E8E8" style="stroke-width: 0.5px;"/> <path d="M 264.526495501456 106.29921 Q 264.526495501456 159.448815 338.433882667258 194.881885 T 412.341269833061 283.46456 L 417.552119085751 283.46456 Q 417.552119085751 230.314955 343.866617803227 194.881885 T 270.181116520703 106.29921 Z" stroke="#F0F0F0" fill="#F0F0F0" style="stroke-width: 0.5px;"/> <path d="M 343.14672619374 106.29921 Q 343.14672619374 159.448815 402.166961149892 194.881885 T 461.187196106045 283.46456 L 468.15540272263 283.46456 Q 468.15540272263 230.314955 410.384864174964 194.881885 T 352.614325627298 106.29921 Z" stroke="#F0F0F0" fill="#F0F0F0" style="stroke-width: 0.5px;"/> <path d="M 336.732146375729 106.29921 Q 336.732146375729 159.448815 396.415018429769 194.881885 T 456.09789048381 283.46456 L 460.86323009942 283.46456 Q 460.86323009942 230.314955 401.814733604974 194.881885 T 342.766237110527 106.29921 Z" stroke="#F0F0F0" fill="#F0F0F0" style="stroke-width: 0.5px;"/> <path d="M 439.419587642024 106.29921 Q 439.419587642024 159.448815 444.921173958945 194.881885 T 450.422760275866 283.46456 L 468.66114876608 283.46456 Q 468.66114876608 230.314955 465.104106543458 194.881885 T 461.547064320836 106.29921 Z" stroke="#E8E8E8" fill="#E8E8E8" style="stroke-width: 0.5px;"/> <path d="M 422.851710750301 106.29921 Q 422.851710750301 159.448815 428.504230921584 194.881885 T 434.156751092867 283.46456 L 450.061158518312 283.46456 Q 450.061158518312 230.314955 444.734140118437 194.881885 T 439.407121718561 106.29921 Z" stroke="#E8E8E8" fill="#E8E8E8" style="stroke-width: 0.5px;"/> <path d="M 397.529562766566 106.29921 Q 397.529562766566 159.448815 407.461258510043 194.881885 T 417.392954253521 283.46456 L 430.625927542041 283.46456 Q 430.625927542041 230.314955 420.186406899557 194.881885 T 409.746886257072 106.29921 Z" stroke="#E8E8E8" fill="#E8E8E8" style="stroke-width: 0.5px;"/> <path d="M 420.522994518426 106.29921 Q 420.522994518426 159.448815 458.518160933548 194.881885 T 496.51332734867 283.46456 L 499.997130944395 283.46456 Q 499.997130944395 230.314955 465.075598221211 194.881885 T 430.154065498027 106.29921 Z" stroke="#E8E8E8" fill="#E8E8E8" style="stroke-width: 0.5px;"/> <path d="M 487.035911079945 106.29921 Q 487.035911079945 159.448815 502.915157943587 194.881885 T 518.794404807228 283.46456 L 530.8028485701 283.46456 Q 530.8028485701 230.314955 514.702124581762 194.881885 T 498.601400593423 106.29921 Z" stroke="#E0E0E0" fill="#E0E0E0" style="stroke-width: 0.5px;"/> <path d="M 472.327778427696 106.29921 Q 472.327778427696 159.448815 502.710038006379 194.881885 T 533.092297585062 283.46456 L 539.535553275243 283.46456 Q 539.535553275243 230.314955 502.343015681604 194.881885 T 465.150478087964 106.29921 Z" stroke="#E0E0E0" fill="#E0E0E0" style="stroke-width: 0.5px;"/> <path d="M 553.812556466769 106.29921 Q 553.812556466769 159.448815 513.713383517465 194.881885 T 473.614210568162 283.46456 L 506.200849367181 283.46456 Q 506.200849367181 230.314955 549.326964549958 194.881885 T 592.453079732735 106.29921 Z" stroke="#DCDCDC" fill="#DCDCDC" style="stroke-width: 0.5px;"/> <path d="M 596.883121358452 106.29921 Q 596.883121358452 159.448815 553.823254843538 194.881885 T 510.763388328624 283.46456 L 517.139764468832 283.46456 Q 517.139764468832 230.314955 563.62746909101 194.881885 T 610.115173713189 106.29921 Z" stroke="#DCDCDC" fill="#DCDCDC" style="stroke-width: 0.5px;"/> <path d="M 300.473647330624 106.29921 Q 300.473647330624 159.448815 424.320132599071 194.881885 T 548.166617867519 283.46456 L 551.685551849897 283.46456 Q 551.685551849897 230.314955 423.371923326664 194.881885 T 295.05829480343 106.29921 Z" stroke="#F0F0F0" fill="#F0F0F0" style="stroke-width: 0.5px;"/> <path d="M 314.936723099125 106.29921 Q 314.936723099125 159.448815 433.964691280772 194.881885 T 552.992659462418 283.46456 L 557.251196766016 283.46456 Q 557.251196766016 230.314955 433.4864466455 194.881885 T 309.721696524983 106.29921 Z" stroke="#F0F0F0" fill="#F0F0F0" style="stroke-width: 0.5px;"/> <path d="M 543.483610839058 106.29921 Q 543.483610839058 159.448815 545.570041499516 194.881885 T 547.656472159974 283.46456 L 571.241750310134 283.46456 Q 571.241750310134 230.314955 543.153910093796 194.881885 T 515.066069877457 106.29921 Z" stroke="#E0E0E0" fill="#E0E0E0" style="stroke-width: 0.5px;"/> <path d="M 514.586113861716 106.29921 Q 514.586113861716 159.448815 542.92829210068 194.881885 T 571.270470339643 283.46456 L 581.565381699556 283.46456 Q 581.565381699556 230.314955 542.615864154733 194.881885 T 503.66634660991 106.29921 Z" stroke="#E0E0E0" fill="#E0E0E0" style="stroke-width: 0.5px;"/> <path d="M 633.655561328796 106.29921 Q 633.655561328796 159.448815 603.114892123052 194.881885 T 572.574222917309 283.46456 L 576.863869221462 283.46456 Q 576.863869221462 230.314955 608.08739401448 194.881885 T 639.310918807498 106.29921 Z" stroke="#DCDCDC" fill="#DCDCDC" style="stroke-width: 0.5px;"/> <path d="M 606.324540556496 106.29921 Q 606.324540556496 159.448815 597.298235535938 194.881885 T 588.27193051538 283.46456 L 592.565967754136 283.46456 Q 592.565967754136 230.314955 604.486667148782 194.881885 T 616.407366543428 106.29921 Z" stroke="#DCDCDC" fill="#DCDCDC" style="stroke-width: 0.5px;"/> <path d="M 626.064667155215 106.29921 Q 626.064667155215 159.448815 613.146387526762 194.881885 T 600.228107898309 283.46456 L 609.034154887522 283.46456 Q 609.034154887522 230.314955 614.410672464892 194.881885 T 619.787190042262 106.29921 Z" stroke="#DCDCDC" fill="#DCDCDC" style="stroke-width: 0.5px;"/> <path d="M 508.450297419352 106.29921 Q 508.450297419352 159.448815 560.742168970065 194.881885 T 613.034040520778 283.46456 L 618.637015655597 283.46456 Q 618.637015655597 230.314955 565.921603287694 194.881885 T 513.20619091979 106.29921 Z" stroke="#E0E0E0" fill="#E0E0E0" style="stroke-width: 0.5px;"/> <path d="M 639.057648604581 106.29921 Q 639.057648604581 159.448815 637.758303251425 194.881885 T 636.458957898269 283.46456 L 671.006610205591 283.46456 Q 671.006610205591 230.314955 670.757606699813 194.881885 T 670.508603194036 106.29921 Z" stroke="#DCDCDC" fill="#DCDCDC" style="stroke-width: 0.5px;"/> <path d="M 634.279706226548 106.29921 Q 634.279706226548 159.448815 626.664232921598 194.881885 T 619.048759616647 283.46456 L 630.967763911736 283.46456 Q 630.967763911736 230.314955 629.569195383316 194.881885 T 628.170626854897 106.29921 Z" stroke="#DCDCDC" fill="#DCDCDC" style="stroke-width: 0.5px;"/> <path d="M 638.97565462169 106.29921 Q 638.97565462169 159.448815 625.880413023928 194.881885 T 612.785171426166 283.46456 L 618.637015655597 283.46456 Q 618.637015655597 230.314955 626.274021546928 194.881885 T 633.911027438259 106.29921 Z" stroke="#DCDCDC" fill="#DCDCDC" style="stroke-width: 0.5px;"/> <path d="M 150.635723149429 106.29921 Q 150.635723149429 159.448815 148.222674867786 194.881885 T 145.809626586144 283.46456 L 145.811491787655 283.46456 Q 145.811491787655 230.314955 148.225646203863 194.881885 T 150.639800620071 106.29921 Z" stroke="#DB4348" fill="#DB4348" style="stroke-width: 0.5px;"/> <path d="M 153.055001441273 106.29921 Q 153.055001441273 159.448815 150.355440360372 194.881885 T 147.655879279472 283.46456 L 147.662900701073 283.46456 Q 147.662900701073 230.314955 150.366398741945 194.881885 T 153.069896782817 106.29921 Z" stroke="#A37945" fill="#A37945" style="stroke-width: 0.5px;"/> <path d="M 159.097309985847 106.29921 Q 159.097309985847 159.448815 155.978189921737 194.881885 T 152.859069857626 283.46456 L 152.865934148367 283.46456 Q 152.865934148367 230.314955 155.986413544173 194.881885 T 159.106892939979 106.29921 Z" stroke="#A37945" fill="#A37945" style="stroke-width: 0.5px;"/> <path d="M 159.860183188187 106.29921 Q 159.860183188187 159.448815 156.648958269022 194.881885 T 153.437733349857 283.46456 L 153.439162076756 283.46456 Q 153.439162076756 230.314955 156.654643733795 194.881885 T 159.870125390833 106.29921 Z" stroke="#3E5733" fill="#3E5733" style="stroke-width: 0.5px;"/> <path d="M 202.926540381641 106.29921 Q 202.926540381641 159.448815 199.026834570857 194.881885 T 195.127128760073 283.46456 L 195.128993961584 283.46456 Q 195.128993961584 230.314955 199.029920417398 194.881885 T 202.930846873212 106.29921 Z" stroke="#DB4348" fill="#DB4348" style="stroke-width: 0.5px;"/> <path d="M 171.152428281326 106.29921 Q 171.152428281326 159.448815 167.244942983509 194.881885 T 163.337457685692 283.46456 L 163.339069731928 283.46456 Q 163.339069731928 230.314955 167.246999640519 194.881885 T 171.15492954911 106.29921 Z" stroke="#DB4348" fill="#DB4348" style="stroke-width: 0.5px;"/> <path d="M 124.880788479942 106.29921 Q 124.880788479942 159.448815 124.875131636517 194.881885 T 124.869474793091 283.46456 L 124.872701795394 283.46456 Q 124.872701795394 230.314955 124.879071271801 194.881885 T 124.885440748209 106.29921 Z" stroke="#DB4348" fill="#DB4348" style="stroke-width: 0.5px;"/> <path d="M 174.842799668151 106.29921 Q 174.842799668151 159.448815 174.622092302101 194.881885 T 174.401384936052 283.46456 L 174.404027062374 283.46456 Q 174.404027062374 230.314955 174.625701329241 194.881885 T 174.847375596108 106.29921 Z" stroke="#3E5733" fill="#3E5733" style="stroke-width: 0.5px;"/> <path d="M 232.935085240631 106.29921 Q 232.935085240631 159.448815 240.141565511874 194.881885 T 247.348045783116 283.46456 L 247.350530778577 283.46456 Q 247.350530778577 230.314955 240.14489165099 194.881885 T 232.939252523403 106.29921 Z" stroke="#3E5733" fill="#3E5733" style="stroke-width: 0.5px;"/> <path d="M 241.422654725881 106.29921 Q 241.422654725881 159.448815 251.066048133934 194.881885 T 260.709441541986 283.46456 L 260.71472579463 283.46456 Q 260.71472579463 230.314955 251.074864844103 194.881885 T 241.435003893576 106.29921 Z" stroke="#A37945" fill="#A37945" style="stroke-width: 0.5px;"/> <path d="M 246.336599610394 106.29921 Q 246.336599610394 159.448815 255.723453503743 194.881885 T 265.110307397091 283.46456 L 265.112268623017 283.46456 Q 265.112268623017 230.314955 255.725947451074 194.881885 T 246.339626279131 106.29921 Z" stroke="#DB4348" fill="#DB4348" style="stroke-width: 0.5px;"/> <path d="M 232.935085240631 106.29921 Q 232.935085240631 159.448815 239.203875462303 194.881885 T 245.472665683974 283.46456 L 245.475098302482 283.46456 Q 245.475098302482 230.314955 239.207175412942 194.881885 T 232.939252523403 106.29921 Z" stroke="#3E5733" fill="#3E5733" style="stroke-width: 0.5px;"/> <path d="M 232.935085240631 106.29921 Q 232.935085240631 159.448815 239.275435475038 194.881885 T 245.615785709445 283.46456 L 245.618261975414 283.46456 Q 245.618261975414 230.314955 239.278757249408 194.881885 T 232.939252523403 106.29921 Z" stroke="#3E5733" fill="#3E5733" style="stroke-width: 0.5px;"/> <path d="M 222.847288152376 106.29921 Q 222.847288152376 159.448815 224.024650861036 194.881885 T 225.202013569696 283.46456 L 225.20455094211 283.46456 Q 225.20455094211 230.314955 224.028048094693 194.881885 T 222.851545247276 106.29921 Z" stroke="#43426B" fill="#43426B" style="stroke-width: 0.5px;"/> <path d="M 361.027062130225 106.29921 Q 361.027062130225 159.448815 322.754273337263 194.881885 T 284.481484544301 283.46456 L 284.483279909875 283.46456 Q 284.483279909875 230.314955 322.756569843954 194.881885 T 361.029859778034 106.29921 Z" stroke="#DB4348" fill="#DB4348" style="stroke-width: 0.5px;"/> <path d="M 364.063098272237 106.29921 Q 364.063098272237 159.448815 325.538533357728 194.881885 T 287.01396844322 283.46456 L 287.015545571487 283.46456 Q 287.015545571487 230.314955 325.54161662175 194.881885 T 364.067687672013 106.29921 Z" stroke="#3E5733" fill="#3E5733" style="stroke-width: 0.5px;"/> <path d="M 365.589352115444 106.29921 Q 365.589352115444 159.448815 326.955413408999 194.881885 T 288.321474702554 283.46456 L 288.323034371836 283.46456 Q 288.323034371836 230.314955 326.957396726165 194.881885 T 365.591759080493 106.29921 Z" stroke="#DB4348" fill="#DB4348" style="stroke-width: 0.5px;"/> <path d="M 385.016083781691 106.29921 Q 385.016083781691 159.448815 344.352890063378 194.881885 T 303.689696345066 283.46456 L 303.693036830768 283.46456 Q 303.693036830768 230.314955 344.357164857961 194.881885 T 385.021292885155 106.29921 Z" stroke="#43426B" fill="#43426B" style="stroke-width: 0.5px;"/> <path d="M 319.509292082472 106.29921 Q 319.509292082472 159.448815 349.00139818713 194.881885 T 378.493504291788 283.46456 L 378.497240514472 283.46456 Q 378.497240514472 230.314955 349.006912670897 194.881885 T 319.516584827322 106.29921 Z" stroke="#3E5733" fill="#3E5733" style="stroke-width: 0.5px;"/> <path d="M 329.431309452978 106.29921 Q 329.431309452978 159.448815 358.728201876505 194.881885 T 388.025094300033 283.46456 L 388.026601592362 283.46456 Q 388.026601592362 230.314955 358.73134227999 194.881885 T 329.436082967618 106.29921 Z" stroke="#DB4348" fill="#DB4348" style="stroke-width: 0.5px;"/> <path d="M 339.609457542699 106.29921 Q 339.609457542699 159.448815 368.453759501845 194.881885 T 397.29806146099 283.46456 L 397.301113873447 283.46456 Q 397.301113873447 230.314955 368.457789221161 194.881885 T 339.614464568874 106.29921 Z" stroke="#3E5733" fill="#3E5733" style="stroke-width: 0.5px;"/> <path d="M 311.713163723006 106.29921 Q 311.713163723006 159.448815 334.383182891413 194.881885 T 357.053202059819 283.46456 L 357.054910130469 283.46456 Q 357.054910130469 230.314955 334.386160983581 194.881885 T 311.717411836693 106.29921 Z" stroke="#DB4348" fill="#DB4348" style="stroke-width: 0.5px;"/> <path d="M 314.516739132319 106.29921 Q 314.516739132319 159.448815 339.315133615314 194.881885 T 364.113528098309 283.46456 L 364.118759973998 283.46456 Q 364.118759973998 230.314955 339.319765835448 194.881885 T 314.520771696898 106.29921 Z" stroke="#A37945" fill="#A37945" style="stroke-width: 0.5px;"/> <path d="M 268.244425739971 106.29921 Q 268.244425739971 159.448815 342.132629016254 194.881885 T 416.020832292537 283.46456 L 416.027894451769 283.46456 Q 416.027894451769 230.314955 342.141607201475 194.881885 T 268.255319951181 106.29921 Z" stroke="#A37945" fill="#A37945" style="stroke-width: 0.5px;"/> <path d="M 560.994342922329 106.29921 Q 560.994342922329 159.448815 520.286813981962 194.881885 T 479.579285041594 283.46456 L 479.581420857365 283.46456 Q 479.581420857365 230.314955 520.289590565596 194.881885 T 560.997760273826 106.29921 Z" stroke="#3E5733" fill="#3E5733" style="stroke-width: 0.5px;"/> <path d="M 594.051228184962 106.29921 Q 594.051228184962 159.448815 551.124164555418 194.881885 T 508.197100925875 283.46456 L 508.200179526809 283.46456 Q 508.200179526809 230.314955 551.12845659763 194.881885 T 594.056733668451 106.29921 Z" stroke="#3E5733" fill="#3E5733" style="stroke-width: 0.5px;"/> <path d="M 596.889888702349 106.29921 Q 596.889888702349 159.448815 552.849374767707 194.881885 T 508.808860833064 283.46456 L 508.810987919343 283.46456 Q 508.810987919343 230.314955 552.851951645214 194.881885 T 596.892915371086 106.29921 Z" stroke="#43426B" fill="#43426B" style="stroke-width: 0.5px;"/> <path d="M 594.677515101984 106.29921 Q 594.677515101984 159.448815 552.723978430174 194.881885 T 510.770441758363 283.46456 L 510.772402984289 283.46456 Q 510.772402984289 230.314955 552.726959608303 194.881885 T 594.681516232317 106.29921 Z" stroke="#43426B" fill="#43426B" style="stroke-width: 0.5px;"/> <path d="M 542.602562837782 106.29921 Q 542.602562837782 159.448815 545.527518329292 194.881885 T 548.452473820803 283.46456 L 548.459873520402 283.46456 Q 548.459873520402 230.314955 545.534114620242 194.881885 T 542.608355720083 106.29921 Z" stroke="#DB4348" fill="#DB4348" style="stroke-width: 0.5px;"/> <path d="M 623.660010277922 106.29921 Q 623.660010277922 159.448815 613.505279310262 194.881885 T 603.350548342602 283.46456 L 603.353530919121 283.46456 Q 603.353530919121 230.314955 613.509420056318 194.881885 T 623.665309193515 106.29921 Z" stroke="#43426B" fill="#43426B" style="stroke-width: 0.5px;"/> <path d="M 623.523482370488 106.29921 Q 623.523482370488 159.448815 613.530031006321 194.881885 T 603.536579642153 283.46456 L 603.540208201099 283.46456 Q 603.540208201099 230.314955 613.534241024326 194.881885 T 623.528273847554 106.29921 Z" stroke="#43426B" fill="#43426B" style="stroke-width: 0.5px;"/> <path d="M 640.730457879391 106.29921 Q 640.730457879391 159.448815 640.912731441763 194.881885 T 641.095005004135 283.46456 L 641.097612212487 283.46456 Q 641.097612212487 230.314955 640.916718183284 194.881885 T 640.73582415408 106.29921 Z" stroke="#3E5733" fill="#3E5733" style="stroke-width: 0.5px;"/> <path d="M 642.242364235039 106.29921 Q 642.242364235039 159.448815 643.24313147741 194.881885 T 644.243898719782 283.46456 L 644.246095641998 283.46456 Q 644.246095641998 230.314955 643.246154163376 194.881885 T 642.246212684754 106.29921 Z" stroke="#DB4348" fill="#DB4348" style="stroke-width: 0.5px;"/> <path d="M 653.349335887895 106.29921 Q 653.349335887895 159.448815 654.727803888348 194.881885 T 656.106271888801 283.46456 L 656.108660859848 283.46456 Q 656.108660859848 230.314955 654.732112609434 194.881885 T 653.35556435902 106.29921 Z" stroke="#43426B" fill="#43426B" style="stroke-width: 0.5px;"/> <path d="M 658.882324341252 106.29921 Q 658.882324341252 159.448815 659.963629957163 194.881885 T 661.044935573075 283.46456 L 661.047499133966 283.46456 Q 661.047499133966 230.314955 659.966896585653 194.881885 T 658.88629403734 106.29921 Z" stroke="#43426B" fill="#43426B" style="stroke-width: 0.5px;"/> <path d="M 661.237867455968 106.29921 Q 661.237867455968 159.448815 662.124231768527 194.881885 T 663.010596081087 283.46456 L 663.01398312408 283.46456 Q 663.01398312408 230.314955 662.131168073037 194.881885 T 661.248353021993 106.29921 Z" stroke="#DB4348" fill="#DB4348" style="stroke-width: 0.5px;"/> <path d="M 669.343165087251 106.29921 Q 669.343165087251 159.448815 669.688184990319 194.881885 T 670.033204893387 283.46456 L 670.036370789243 283.46456 Q 670.036370789243 230.314955 669.692186129812 194.881885 T 669.348001470381 106.29921 Z" stroke="#43426B" fill="#43426B" style="stroke-width: 0.5px;"/><rect x="124.015745" y="88.582675" rx="2" ry="2" width="136.638695185584" height="17.71654" style="fill:#f7f7f7;stroke:black;stroke-width:0.5"/> <rect x="264.197747185584" y="88.582675" rx="2" ry="2" width="88.4572633360124" height="17.71654" style="fill:#f7f7f7;stroke:black;stroke-width:0.5"/> <rect x="356.198317521597" y="88.582675" rx="2" ry="2" width="105.348863555006" height="17.71654" style="fill:#f7f7f7;stroke:black;stroke-width:0.5"/> <rect x="465.090488076603" y="88.582675" rx="2" ry="2" width="83.4581720628902" height="17.71654" style="fill:#f7f7f7;stroke:black;stroke-width:0.5"/> <rect x="552.091967139493" y="88.582675" rx="2" ry="2" width="121.136362860507" height="17.71654" style="fill:#f7f7f7;stroke:black;stroke-width:0.5"/> <rect x="124.015745" y="283.46456" rx="2" ry="2" width="86.926674708948" height="17.71654" style="fill:#f7f7f7;stroke:black;stroke-width:0.5"/> <rect x="214.485726708948" y="283.46456" rx="2" ry="2" width="62.5921180503226" height="17.71654" style="fill:#f7f7f7;stroke:black;stroke-width:0.5"/> <rect x="280.621151759271" y="283.46456" rx="2" ry="2" width="63.4591661387597" height="17.71654" style="fill:#f7f7f7;stroke:black;stroke-width:0.5"/> <rect x="347.62362489803" y="283.46456" rx="2" ry="2" width="61.0456739487282" height="17.71654" style="fill:#f7f7f7;stroke:black;stroke-width:0.5"/> <rect x="412.212605846759" y="283.46456" rx="2" ry="2" width="56.5382937389953" height="17.71654" style="fill:#f7f7f7;stroke:black;stroke-width:0.5"/> <rect x="472.294206585754" y="283.46456" rx="2" ry="2" width="67.3554033254227" height="17.71654" style="fill:#f7f7f7;stroke:black;stroke-width:0.5"/> <rect x="543.192916911177" y="283.46456" rx="2" ry="2" width="66.038437206318" height="17.71654" style="fill:#f7f7f7;stroke:black;stroke-width:0.5"/> <rect x="612.774661117494" y="283.46456" rx="2" ry="2" width="60.4536688825055" height="17.71654" style="fill:#f7f7f7;stroke:black;stroke-width:0.5"/><rect x="124.015745" y="91.582675" rx="2" ry="2" width="136.638695185584" height="11.71654" style="fill:#216218;stroke:#216218;stroke-width:0.5"/> <rect x="264.197747185584" y="91.582675" rx="2" ry="2" width="88.4572633360124" height="11.71654" style="fill:#216218;stroke:#216218;stroke-width:0.5"/> <rect x="356.198317521597" y="91.582675" rx="2" ry="2" width="105.348863555006" height="11.71654" style="fill:#216218;stroke:#216218;stroke-width:0.5"/> <rect x="465.090488076603" y="91.582675" rx="2" ry="2" width="83.4581720628902" height="11.71654" style="fill:#216218;stroke:#216218;stroke-width:0.5"/> <rect x="552.091967139493" y="91.582675" rx="2" ry="2" width="121.136362860507" height="11.71654" style="fill:#216218;stroke:#216218;stroke-width:0.5"/> <rect x="124.015745" y="286.46456" rx="2" ry="2" width="86.926674708948" height="11.71654" style="fill:#2166AC;stroke:#2166AC;stroke-width:0.5"/> <rect x="214.485726708948" y="286.46456" rx="2" ry="2" width="62.5921180503226" height="11.71654" style="fill:#2166AC;stroke:#2166AC;stroke-width:0.5"/> <rect x="280.621151759271" y="286.46456" rx="2" ry="2" width="63.4591661387597" height="11.71654" style="fill:#2166AC;stroke:#2166AC;stroke-width:0.5"/> <rect x="347.62362489803" y="286.46456" rx="2" ry="2" width="61.0456739487282" height="11.71654" style="fill:#2166AC;stroke:#2166AC;stroke-width:0.5"/> <rect x="412.212605846759" y="286.46456" rx="2" ry="2" width="56.5382937389953" height="11.71654" style="fill:#2166AC;stroke:#2166AC;stroke-width:0.5"/> <rect x="472.294206585754" y="286.46456" rx="2" ry="2" width="67.3554033254227" height="11.71654" style="fill:#2166AC;stroke:#2166AC;stroke-width:0.5"/> <rect x="543.192916911177" y="286.46456" rx="2" ry="2" width="66.038437206318" height="11.71654" style="fill:#2166AC;stroke:#2166AC;stroke-width:0.5"/> <rect x="612.774661117494" y="286.46456" rx="2" ry="2" width="60.4536688825055" height="11.71654" style="fill:#2166AC;stroke:#2166AC;stroke-width:0.5"/></svg>