<?xml version="1.0" standalone="no"?> <!DOCTYPE svg PUBLIC "-//W3C//DTD SVG 1.1//EN" "http://www.w3.org/Graphics/SVG/1.1/DTD/svg11.dtd">  <svg id="svg" width="744.0945" height="1052.362"> 	<text x="70.86614" y="103.29921" font-size="10" fill="#216218" >thaliana</text><text x="70.86614" y="298.181095" font-size="10" fill="#B2182B" >arenosa</text><text x="190.235092592792" y="85.039368" font-size="9" fill="black" >1</text> <text x="306.32637885359" y="85.039368" font-size="9" fill="black" >2</text> <text x="406.7727492991" y="85.039368" font-size="9" fill="black" >3</text> <text x="504.719574108048" y="85.039368" font-size="9" fill="black" >4</text> <text x="610.560148569747" y="85.039368" font-size="9" fill="black" >5</text> <text x="162.290136760668" y="310.0393625" font-size="9" fill="black" >1</text> <text x="235.56404832503" y="310.0393625" font-size="9" fill="black" >2</text> <text x="302.19554495758" y="310.0393625" font-size="9" fill="black" >3</text> <text x="370.437952987062" y="310.0393625" font-size="9" fill="black" >4</text> <text x="431.687537727374" y="310.0393625" font-size="9" fill="black" >5</text> <text x="496.972157408764" y="310.0393625" font-size="9" fill="black" >6</text> <text x="573.260767292524" y="310.0393625" font-size="9" fill="black" >7</text> <text x="642.837774017289" y="310.0393625" font-size="9" fill="black" >8</text><path d="M 125.935694799944 106.29921 Q 125.935694799944 159.448815 125.830704177426 194.881885 T 125.725713554907 283.46456 L 157.899466491825 283.46456 Q 157.899466491825 230.314955 160.233836982804 194.881885 T 162.568207473782 106.29921 Z" stroke="#F5F5F5" fill="#F5F5F5" style="stroke-width: 0.5px;"/> <path d="M 194.085227865105 106.29921 Q 194.085227865105 159.448815 188.528298518377 194.881885 T 182.97136917165 283.46456 L 202.440770430606 283.46456 Q 202.440770430606 230.314955 208.740868273454 194.881885 T 215.040966116303 106.29921 Z" stroke="#F5F5F5" fill="#F5F5F5" style="stroke-width: 0.5px;"/> <path d="M 166.54155442509 106.29921 Q 166.54155442509 159.448815 163.942832984859 194.881885 T 161.344111544628 283.46456 L 178.789430084653 283.46456 Q 178.789430084653 230.314955 182.905314333367 194.881885 T 187.021198582081 106.29921 Z" stroke="#F5F5F5" fill="#F5F5F5" style="stroke-width: 0.5px;"/> <path d="M 246.238232876442 106.29921 Q 246.238232876442 159.448815 196.938079452707 194.881885 T 147.637926028972 283.46456 L 155.126433055221 283.46456 Q 155.126433055221 230.314955 205.700695676468 194.881885 T 256.274958297716 106.29921 Z" stroke="#F5F5F5" fill="#F5F5F5" style="stroke-width: 0.5px;"/> <path d="M 224.219536647905 106.29921 Q 224.219536647905 159.448815 180.882887617719 194.881885 T 137.546238587532 283.46456 L 141.139863802842 283.46456 Q 141.139863802842 230.314955 185.184477418431 194.881885 T 229.22909103402 106.29921 Z" stroke="#F5F5F5" fill="#F5F5F5" style="stroke-width: 0.5px;"/> <path d="M 246.115495621369 106.29921 Q 246.115495621369 159.448815 200.717707767858 194.881885 T 155.319919914348 283.46456 L 161.486759768496 283.46456 Q 161.486759768496 230.314955 199.476271789039 194.881885 T 237.465783809582 106.29921 Z" stroke="#F5F5F5" fill="#F5F5F5" style="stroke-width: 0.5px;"/> <path d="M 382.450411720075 106.29921 Q 382.450411720075 159.448815 286.643165207008 194.881885 T 190.83591869394 283.46456 L 198.63803980897 283.46456 Q 198.63803980897 230.314955 294.326852169942 194.881885 T 390.015664530914 106.29921 Z" stroke="#E8E8E8" fill="#E8E8E8" style="stroke-width: 0.5px;"/> <path d="M 381.400512426248 106.29921 Q 381.400512426248 159.448815 289.955940883764 194.881885 T 198.511369341279 283.46456 L 204.460796201087 283.46456 Q 204.460796201087 230.314955 289.427020304823 194.881885 T 374.39324440856 106.29921 Z" stroke="#E8E8E8" fill="#E8E8E8" style="stroke-width: 0.5px;"/> <path d="M 232.014856698213 106.29921 Q 232.014856698213 159.448815 233.252784199001 194.881885 T 234.49071169979 283.46456 L 265.358067367799 283.46456 Q 265.358067367799 230.314955 262.043858439851 194.881885 T 258.729649511904 106.29921 Z" stroke="#F5F5F5" fill="#F5F5F5" style="stroke-width: 0.5px;"/> <path d="M 150.494089422478 106.29921 Q 150.494089422478 159.448815 202.396926038773 194.881885 T 254.299762655068 283.46456 L 263.198939681686 283.46456 Q 263.198939681686 230.314955 211.327540277955 194.881885 T 159.456140874225 106.29921 Z" stroke="#F5F5F5" fill="#F5F5F5" style="stroke-width: 0.5px;"/> <path d="M 231.999350634194 106.29921 Q 231.999350634194 159.448815 220.164788424224 194.881885 T 208.330226214254 283.46456 L 226.092152251204 283.46456 Q 226.092152251204 230.314955 222.289032320428 194.881885 T 218.485912389652 106.29921 Z" stroke="#F5F5F5" fill="#F5F5F5" style="stroke-width: 0.5px;"/> <path d="M 203.41486239717 106.29921 Q 203.41486239717 159.448815 248.753171924961 194.881885 T 294.091481452752 283.46456 L 301.04276680185 283.46456 Q 301.04276680185 230.314955 255.982139797943 194.881885 T 210.921512794036 106.29921 Z" stroke="#F5F5F5" fill="#F5F5F5" style="stroke-width: 0.5px;"/> <path d="M 296.440939052856 106.29921 Q 296.440939052856 159.448815 312.80105282628 194.881885 T 329.161166599704 283.46456 L 337.782037667017 283.46456 Q 337.782037667017 230.314955 321.181870580388 194.881885 T 304.58170349376 106.29921 Z" stroke="#F0F0F0" fill="#F0F0F0" style="stroke-width: 0.5px;"/> <path d="M 283.553702403814 106.29921 Q 283.553702403814 159.448815 302.505096063861 194.881885 T 321.456489723909 283.46456 L 328.796587096026 283.46456 Q 328.796587096026 230.314955 312.854892632597 194.881885 T 296.913198169168 106.29921 Z" stroke="#F0F0F0" fill="#F0F0F0" style="stroke-width: 0.5px;"/> <path d="M 270.180056737584 106.29921 Q 270.180056737584 159.448815 289.904784876952 194.881885 T 309.629513016319 283.46456 L 315.736653747102 283.46456 Q 315.736653747102 230.314955 296.547625115898 194.881885 T 277.358596484692 106.29921 Z" stroke="#F0F0F0" fill="#F0F0F0" style="stroke-width: 0.5px;"/> <path d="M 357.832363881662 106.29921 Q 357.832363881662 159.448815 314.923888610097 194.881885 T 272.015413338531 283.46456 L 306.628445268948 283.46456 Q 306.628445268948 230.314955 351.089653815792 194.881885 T 395.550862362637 106.29921 Z" stroke="#E8E8E8" fill="#E8E8E8" style="stroke-width: 0.5px;"/> <path d="M 572.437301748629 106.29921 Q 572.437301748629 159.448815 421.544723292584 194.881885 T 270.65214483654 283.46456 L 275.026162120006 283.46456 Q 275.026162120006 230.314955 427.158192626279 194.881885 T 579.290223132551 106.29921 Z" stroke="#DCDCDC" fill="#DCDCDC" style="stroke-width: 0.5px;"/> <path d="M 553.947849457433 106.29921 Q 553.947849457433 159.448815 418.116536054305 194.881885 T 282.285222651176 283.46456 L 286.285092089874 283.46456 Q 286.285092089874 230.314955 424.059373658637 194.881885 T 561.8336552274 106.29921 Z" stroke="#DCDCDC" fill="#DCDCDC" style="stroke-width: 0.5px;"/> <path d="M 314.957114942945 106.29921 Q 314.957114942945 159.448815 338.874379960121 194.881885 T 362.791644977298 283.46456 L 403.48749707774 283.46456 Q 403.48749707774 230.314955 378.047397452984 194.881885 T 352.607297828228 106.29921 Z" stroke="#F0F0F0" fill="#F0F0F0" style="stroke-width: 0.5px;"/> <path d="M 304.606244657925 106.29921 Q 304.606244657925 159.448815 323.252984000652 194.881885 T 341.899723343378 283.46456 L 354.730706750809 283.46456 Q 354.730706750809 230.314955 334.475672138018 194.881885 T 314.220637525228 106.29921 Z" stroke="#F0F0F0" fill="#F0F0F0" style="stroke-width: 0.5px;"/> <path d="M 452.487162554877 106.29921 Q 452.487162554877 159.448815 423.492204521813 194.881885 T 394.49724648875 283.46456 L 403.478883105598 283.46456 Q 403.478883105598 230.314955 432.17975499864 194.881885 T 460.880626891681 106.29921 Z" stroke="#E8E8E8" fill="#E8E8E8" style="stroke-width: 0.5px;"/> <path d="M 446.286250281636 106.29921 Q 446.286250281636 159.448815 417.250592658331 194.881885 T 388.214935035025 283.46456 L 394.148775042544 283.46456 Q 394.148775042544 230.314955 423.188468690347 194.881885 T 452.228162338149 106.29921 Z" stroke="#E8E8E8" fill="#E8E8E8" style="stroke-width: 0.5px;"/> <path d="M 264.526495501456 106.29921 Q 264.526495501456 159.448815 335.822017230294 194.881885 T 407.117538959132 283.46456 L 411.701383588536 283.46456 Q 411.701383588536 230.314955 340.94125005462 194.881885 T 270.181116520703 106.29921 Z" stroke="#F0F0F0" fill="#F0F0F0" style="stroke-width: 0.5px;"/> <path d="M 343.670820380127 106.29921 Q 343.670820380127 159.448815 398.467531641165 194.881885 T 453.264242902202 283.46456 L 459.660332038658 283.46456 Q 459.660332038658 230.314955 406.137328832978 194.881885 T 352.614325627298 106.29921 Z" stroke="#F0F0F0" fill="#F0F0F0" style="stroke-width: 0.5px;"/> <path d="M 336.732146375729 106.29921 Q 336.732146375729 159.448815 391.697993854918 194.881885 T 446.663841334107 283.46456 L 450.765363391725 283.46456 Q 450.765363391725 230.314955 396.191950145442 194.881885 T 341.618536899159 106.29921 Z" stroke="#F0F0F0" fill="#F0F0F0" style="stroke-width: 0.5px;"/> <path d="M 397.845705950175 106.29921 Q 397.845705950175 159.448815 404.781255436569 194.881885 T 411.716804922964 283.46456 L 450.573267586971 283.46456 Q 450.573267586971 230.314955 450.61836375481 194.881885 T 450.663459922648 106.29921 Z" stroke="#E8E8E8" fill="#E8E8E8" style="stroke-width: 0.5px;"/> <path d="M 451.209903857261 106.29921 Q 451.209903857261 159.448815 451.25984887864 194.881885 T 451.309793900018 283.46456 L 460.498151761647 283.46456 Q 460.498151761647 230.314955 461.022608041241 194.881885 T 461.547064320836 106.29921 Z" stroke="#E8E8E8" fill="#E8E8E8" style="stroke-width: 0.5px;"/> <path d="M 368.368152849056 106.29921 Q 368.368152849056 159.448815 416.707443053467 194.881885 T 465.046733257878 283.46456 L 472.263632515752 283.46456 Q 472.263632515752 230.314955 422.841953104659 194.881885 T 373.420273693566 106.29921 Z" stroke="#E8E8E8" fill="#E8E8E8" style="stroke-width: 0.5px;"/> <path d="M 489.385805011767 106.29921 Q 489.385805011767 159.448815 503.170100287055 194.881885 T 516.954395562342 283.46456 L 526.088111399542 283.46456 Q 526.088111399542 230.314955 512.344755996482 194.881885 T 498.601400593423 106.29921 Z" stroke="#E0E0E0" fill="#E0E0E0" style="stroke-width: 0.5px;"/> <path d="M 470.450098706122 106.29921 Q 470.450098706122 159.448815 500.094115565205 194.881885 T 529.738132424288 283.46456 L 533.987634493927 283.46456 Q 533.987634493927 230.314955 499.569056290946 194.881885 T 465.150478087964 106.29921 Z" stroke="#E0E0E0" fill="#E0E0E0" style="stroke-width: 0.5px;"/> <path d="M 561.289820335126 106.29921 Q 561.289820335126 159.448815 517.082554131388 194.881885 T 472.87528792765 283.46456 L 502.400568423328 283.46456 Q 502.400568423328 230.314955 548.622986914043 194.881885 T 594.845405404758 106.29921 Z" stroke="#DCDCDC" fill="#DCDCDC" style="stroke-width: 0.5px;"/> <path d="M 553.812556466769 106.29921 Q 553.812556466769 159.448815 509.742183085001 194.881885 T 465.671809703233 283.46456 L 472.278986938703 283.46456 Q 472.278986938703 230.314955 516.775325876007 194.881885 T 561.27166481331 106.29921 Z" stroke="#DCDCDC" fill="#DCDCDC" style="stroke-width: 0.5px;"/> <path d="M 300.473647330624 106.29921 Q 300.473647330624 159.448815 421.638596008167 194.881885 T 542.80354468571 283.46456 L 546.366182844242 283.46456 Q 546.366182844242 230.314955 420.712238823836 194.881885 T 295.05829480343 106.29921 Z" stroke="#F0F0F0" fill="#F0F0F0" style="stroke-width: 0.5px;"/> <path d="M 314.936723099125 106.29921 Q 314.936723099125 159.448815 431.349570336584 194.881885 T 547.762417574043 283.46456 L 552.440917290622 283.46456 Q 552.440917290622 230.314955 431.081306907803 194.881885 T 309.721696524983 106.29921 Z" stroke="#F0F0F0" fill="#F0F0F0" style="stroke-width: 0.5px;"/> <path d="M 543.087449539389 106.29921 Q 543.087449539389 159.448815 542.889537988536 194.881885 T 542.691626437684 283.46456 L 567.553293259401 283.46456 Q 567.553293259401 230.314955 541.309681568429 194.881885 T 515.066069877457 106.29921 Z" stroke="#E0E0E0" fill="#E0E0E0" style="stroke-width: 0.5px;"/> <path d="M 514.620691531263 106.29921 Q 514.620691531263 159.448815 541.092123449057 194.881885 T 567.56355536685 283.46456 L 586.74359266465 283.46456 Q 586.74359266465 230.314955 542.751416791823 194.881885 T 498.759240918996 106.29921 Z" stroke="#E0E0E0" fill="#E0E0E0" style="stroke-width: 0.5px;"/> <path d="M 616.763395293391 106.29921 Q 616.763395293391 159.448815 608.054542406899 194.881885 T 599.345689520407 283.46456 L 612.719793379861 283.46456 Q 612.719793379861 230.314955 620.197966308297 194.881885 T 627.676139236733 106.29921 Z" stroke="#DCDCDC" fill="#DCDCDC" style="stroke-width: 0.5px;"/> <path d="M 632.239327343239 106.29921 Q 632.239327343239 159.448815 599.7034767095 194.881885 T 567.167626075762 283.46456 L 573.157006130153 283.46456 Q 573.157006130153 230.314955 606.233962468825 194.881885 T 639.310918807498 106.29921 Z" stroke="#DCDCDC" fill="#DCDCDC" style="stroke-width: 0.5px;"/> <path d="M 601.990202735116 106.29921 Q 601.990202735116 159.448815 597.908268573965 194.881885 T 593.826334412815 283.46456 L 599.332567827766 283.46456 Q 599.332567827766 230.314955 607.869967185597 194.881885 T 616.407366543428 106.29921 Z" stroke="#DCDCDC" fill="#DCDCDC" style="stroke-width: 0.5px;"/> <path d="M 508.450297419352 106.29921 Q 508.450297419352 159.448815 562.619398637511 194.881885 T 616.788499855671 283.46456 L 623.93450464372 283.46456 Q 623.93450464372 230.314955 569.284201524254 194.881885 T 514.633898404788 106.29921 Z" stroke="#E0E0E0" fill="#E0E0E0" style="stroke-width: 0.5px;"/> <path d="M 639.057648604581 106.29921 Q 639.057648604581 159.448815 637.674610139172 194.881885 T 636.291571673764 283.46456 L 670.899303510937 283.46456 Q 670.899303510937 230.314955 670.703953352486 194.881885 T 670.508603194036 106.29921 Z" stroke="#DCDCDC" fill="#DCDCDC" style="stroke-width: 0.5px;"/> <path d="M 638.938961876512 106.29921 Q 638.938961876512 159.448815 627.798305529029 194.881885 T 616.657649181547 283.46456 L 632.915859528037 283.46456 Q 632.915859528037 230.314955 630.30397245411 194.881885 T 627.692085380183 106.29921 Z" stroke="#DCDCDC" fill="#DCDCDC" style="stroke-width: 0.5px;"/> <path d="M 150.635723149429 106.29921 Q 150.635723149429 159.448815 149.180840014718 194.881885 T 147.725956880007 283.46456 L 147.728108612214 283.46456 Q 147.728108612214 230.314955 149.183954616143 194.881885 T 150.639800620071 106.29921 Z" stroke="#DB4348" fill="#DB4348" style="stroke-width: 0.5px;"/> <path d="M 153.055001441273 106.29921 Q 153.055001441273 159.448815 151.376939206271 194.881885 T 149.698876971269 283.46456 L 149.70760715808 283.46456 Q 149.70760715808 230.314955 151.388751970448 194.881885 T 153.069896782817 106.29921 Z" stroke="#A37945" fill="#A37945" style="stroke-width: 0.5px;"/> <path d="M 159.097309985847 106.29921 Q 159.097309985847 159.448815 156.949907009994 194.881885 T 154.802504034141 283.46456 L 154.809248006607 283.46456 Q 154.809248006607 230.314955 156.958070473293 194.881885 T 159.106892939979 106.29921 Z" stroke="#A37945" fill="#A37945" style="stroke-width: 0.5px;"/> <path d="M 159.860183188187 106.29921 Q 159.860183188187 159.448815 157.675798607971 194.881885 T 155.491414027756 283.46456 L 155.499696964174 283.46456 Q 155.499696964174 230.314955 157.684911177503 194.881885 T 159.870125390833 106.29921 Z" stroke="#3E5733" fill="#3E5733" style="stroke-width: 0.5px;"/> <path d="M 202.926540381641 106.29921 Q 202.926540381641 159.448815 196.372756904622 194.881885 T 189.818973427604 283.46456 L 189.821244896137 283.46456 Q 189.821244896137 230.314955 196.376045884674 194.881885 T 202.930846873212 106.29921 Z" stroke="#DB4348" fill="#DB4348" style="stroke-width: 0.5px;"/> <path d="M 171.152428281326 106.29921 Q 171.152428281326 159.448815 168.211111022934 194.881885 T 165.269793764542 283.46456 L 165.271744762321 283.46456 Q 165.271744762321 230.314955 168.213337155715 194.881885 T 171.15492954911 106.29921 Z" stroke="#DB4348" fill="#DB4348" style="stroke-width: 0.5px;"/> <path d="M 124.880788479942 106.29921 Q 124.880788479942 159.448815 124.907978515299 194.881885 T 124.935168550656 283.46456 L 124.938943766574 283.46456 Q 124.938943766574 230.314955 124.912192257392 194.881885 T 124.885440748209 106.29921 Z" stroke="#DB4348" fill="#DB4348" style="stroke-width: 0.5px;"/> <path d="M 232.935085240631 106.29921 Q 232.935085240631 159.448815 235.281946173831 194.881885 T 237.628807107032 283.46456 L 237.631698387133 283.46456 Q 237.631698387133 230.314955 235.285475455268 194.881885 T 232.939252523403 106.29921 Z" stroke="#3E5733" fill="#3E5733" style="stroke-width: 0.5px;"/> <path d="M 241.422654725881 106.29921 Q 241.422654725881 159.448815 245.501151123926 194.881885 T 249.579647521971 283.46456 L 249.586074545339 283.46456 Q 249.586074545339 230.314955 245.510539219458 194.881885 T 241.435003893576 106.29921 Z" stroke="#A37945" fill="#A37945" style="stroke-width: 0.5px;"/> <path d="M 246.336599610394 106.29921 Q 246.336599610394 159.448815 250.357026766301 194.881885 T 254.377453922207 283.46456 L 254.379827518783 283.46456 Q 254.379827518783 230.314955 250.359726898957 194.881885 T 246.339626279131 106.29921 Z" stroke="#DB4348" fill="#DB4348" style="stroke-width: 0.5px;"/> <path d="M 159.097309985847 106.29921 Q 159.097309985847 159.448815 210.858359403753 194.881885 T 262.61940882166 283.46456 L 262.626040101113 283.46456 Q 262.626040101113 230.314955 210.866466520546 194.881885 T 159.106892939979 106.29921 Z" stroke="#A37945" fill="#A37945" style="stroke-width: 0.5px;"/> <path d="M 222.847288152376 106.29921 Q 222.847288152376 159.448815 220.643945619929 194.881885 T 218.440603087483 283.46456 L 218.443673972073 283.46456 Q 218.443673972073 230.314955 220.647609609675 194.881885 T 222.851545247276 106.29921 Z" stroke="#43426B" fill="#43426B" style="stroke-width: 0.5px;"/> <path d="M 222.847288152376 106.29921 Q 222.847288152376 159.448815 220.95796822088 194.881885 T 219.068648289385 283.46456 L 219.071729738945 283.46456 Q 219.071729738945 230.314955 220.96163749311 194.881885 T 222.851545247276 106.29921 Z" stroke="#43426B" fill="#43426B" style="stroke-width: 0.5px;"/> <path d="M 361.027062130225 106.29921 Q 361.027062130225 159.448815 318.028078895106 194.881885 T 275.029095659988 283.46456 L 275.031067787706 283.46456 Q 275.031067787706 230.314955 318.03046378287 194.881885 T 361.029859778034 106.29921 Z" stroke="#DB4348" fill="#DB4348" style="stroke-width: 0.5px;"/> <path d="M 364.063098272237 106.29921 Q 364.063098272237 159.448815 321.00681851148 194.881885 T 277.950538750724 283.46456 L 277.953511028928 283.46456 Q 277.953511028928 230.314955 321.01059935047 194.881885 T 364.067687672013 106.29921 Z" stroke="#3E5733" fill="#3E5733" style="stroke-width: 0.5px;"/> <path d="M 365.589352115444 106.29921 Q 365.589352115444 159.448815 322.494152991203 194.881885 T 279.398953866963 283.46456 L 279.400841474922 283.46456 Q 279.400841474922 230.314955 322.496300277707 194.881885 T 365.591759080493 106.29921 Z" stroke="#DB4348" fill="#DB4348" style="stroke-width: 0.5px;"/> <path d="M 385.016083781691 106.29921 Q 385.016083781691 159.448815 340.76551951647 194.881885 T 296.514955251249 283.46456 L 296.518976983132 283.46456 Q 296.518976983132 230.314955 340.770134934143 194.881885 T 385.021292885155 106.29921 Z" stroke="#43426B" fill="#43426B" style="stroke-width: 0.5px;"/> <path d="M 315.65967481026 106.29921 Q 315.65967481026 159.448815 340.236995161088 194.881885 T 364.814315511916 283.46456 L 364.81825272404 283.46456 Q 364.81825272404 230.314955 340.241642413888 194.881885 T 315.665032103737 106.29921 Z" stroke="#3E5733" fill="#3E5733" style="stroke-width: 0.5px;"/> <path d="M 319.509292082472 106.29921 Q 319.509292082472 159.448815 345.232945468392 194.881885 T 370.956598854312 283.46456 L 370.961444653849 283.46456 Q 370.961444653849 230.314955 345.239014740586 194.881885 T 319.516584827322 106.29921 Z" stroke="#3E5733" fill="#3E5733" style="stroke-width: 0.5px;"/> <path d="M 329.431309452978 106.29921 Q 329.431309452978 159.448815 355.325569582665 194.881885 T 381.219829712353 283.46456 L 381.221653930492 283.46456 Q 381.221653930492 230.314955 355.328868449055 194.881885 T 329.436082967618 106.29921 Z" stroke="#DB4348" fill="#DB4348" style="stroke-width: 0.5px;"/> <path d="M 339.609457542699 106.29921 Q 339.609457542699 159.448815 365.475375151692 194.881885 T 391.341292760685 283.46456 L 391.344986978501 283.46456 Q 391.344986978501 230.314955 365.479725773688 194.881885 T 339.614464568874 106.29921 Z" stroke="#3E5733" fill="#3E5733" style="stroke-width: 0.5px;"/> <path d="M 311.713163723006 106.29921 Q 311.713163723006 159.448815 330.819464598613 194.881885 T 349.925765474219 283.46456 L 349.927991161216 283.46456 Q 349.927991161216 230.314955 330.822701498955 194.881885 T 311.717411836693 106.29921 Z" stroke="#DB4348" fill="#DB4348" style="stroke-width: 0.5px;"/> <path d="M 314.516739132319 106.29921 Q 314.516739132319 159.448815 335.273523177361 194.881885 T 356.030307222402 283.46456 L 356.036589857848 283.46456 Q 356.036589857848 230.314955 335.278680777373 194.881885 T 314.520771696898 106.29921 Z" stroke="#A37945" fill="#A37945" style="stroke-width: 0.5px;"/> <path d="M 268.244425739971 106.29921 Q 268.244425739971 159.448815 339.221858560879 194.881885 T 410.199291381787 283.46456 L 410.206704469015 283.46456 Q 410.206704469015 230.314955 339.231012210098 194.881885 T 268.255319951181 106.29921 Z" stroke="#A37945" fill="#A37945" style="stroke-width: 0.5px;"/> <path d="M 364.063098272237 106.29921 Q 364.063098272237 159.448815 432.927467129339 194.881885 T 501.791835986441 283.46456 L 501.794146193197 283.46456 Q 501.794146193197 230.314955 432.930916932605 194.881885 T 364.067687672013 106.29921 Z" stroke="#3E5733" fill="#3E5733" style="stroke-width: 0.5px;"/> <path d="M 594.051228184962 106.29921 Q 594.051228184962 159.448815 547.88223744091 194.881885 T 501.713246696858 283.46456 L 501.716962044614 283.46456 Q 501.716962044614 230.314955 547.886847856532 194.881885 T 594.056733668451 106.29921 Z" stroke="#3E5733" fill="#3E5733" style="stroke-width: 0.5px;"/> <path d="M 558.0768632808 106.29921 Q 558.0768632808 159.448815 513.713970683588 194.881885 T 469.351078086375 283.46456 L 469.352701570087 283.46456 Q 469.352701570087 230.314955 513.717393713085 194.881885 T 558.082085856083 106.29921 Z" stroke="#DB4348" fill="#DB4348" style="stroke-width: 0.5px;"/> <path d="M 560.994342922329 106.29921 Q 560.994342922329 159.448815 516.498566687027 194.881885 T 472.002790451724 283.46456 L 472.005354217759 283.46456 Q 472.005354217759 230.314955 516.501557245792 194.881885 T 560.997760273826 106.29921 Z" stroke="#3E5733" fill="#3E5733" style="stroke-width: 0.5px;"/> <path d="M 596.889888702349 106.29921 Q 596.889888702349 159.448815 549.643714250483 194.881885 T 502.397539798617 283.46456 L 502.400568423328 283.46456 Q 502.400568423328 230.314955 549.646741897207 194.881885 T 596.892915371086 106.29921 Z" stroke="#43426B" fill="#43426B" style="stroke-width: 0.5px;"/> <path d="M 594.961752526875 106.29921 Q 594.961752526875 159.448815 549.686065197385 194.881885 T 504.410377867896 283.46456 L 504.413839656373 283.46456 Q 504.413839656373 230.314955 549.690054866661 194.881885 T 594.966270076948 106.29921 Z" stroke="#DB4348" fill="#DB4348" style="stroke-width: 0.5px;"/> <path d="M 594.677515101984 106.29921 Q 594.677515101984 159.448815 549.570793834337 194.881885 T 504.464072566689 283.46456 L 504.466889892001 283.46456 Q 504.466889892001 230.314955 549.574203062159 194.881885 T 594.681516232317 106.29921 Z" stroke="#43426B" fill="#43426B" style="stroke-width: 0.5px;"/> <path d="M 542.602562837782 106.29921 Q 542.602562837782 159.448815 542.858459186794 194.881885 T 543.114355535805 283.46456 L 543.117137644551 283.46456 Q 543.117137644551 230.314955 542.862746682317 194.881885 T 542.608355720083 106.29921 Z" stroke="#DB4348" fill="#DB4348" style="stroke-width: 0.5px;"/> <path d="M 544.120791967291 106.29921 Q 544.120791967291 159.448815 542.953514328015 194.881885 T 541.786236688739 283.46456 L 541.791941772496 283.46456 Q 541.791941772496 230.314955 542.959984053377 194.881885 T 544.128026334257 106.29921 Z" stroke="#A37945" fill="#A37945" style="stroke-width: 0.5px;"/> <path d="M 623.660010277922 106.29921 Q 623.660010277922 159.448815 615.859609304266 194.881885 T 608.05920833061 283.46456 L 608.062786333757 283.46456 Q 608.062786333757 230.314955 615.864047763636 194.881885 T 623.665309193515 106.29921 Z" stroke="#43426B" fill="#43426B" style="stroke-width: 0.5px;"/> <path d="M 640.730457879391 106.29921 Q 640.730457879391 159.448815 640.333741494619 194.881885 T 639.937025109847 283.46456 L 639.940191079167 283.46456 Q 639.940191079167 230.314955 640.338007616624 194.881885 T 640.73582415408 106.29921 Z" stroke="#3E5733" fill="#3E5733" style="stroke-width: 0.5px;"/> <path d="M 642.242364235039 106.29921 Q 642.242364235039 159.448815 642.449406301228 194.881885 T 642.656448367418 283.46456 L 642.659149478061 283.46456 Q 642.659149478061 230.314955 642.452681081407 194.881885 T 642.246212684754 106.29921 Z" stroke="#DB4348" fill="#DB4348" style="stroke-width: 0.5px;"/> <path d="M 653.349335887895 106.29921 Q 653.349335887895 159.448815 654.054452312516 194.881885 T 654.759568737137 283.46456 L 654.762460017238 283.46456 Q 654.762460017238 230.314955 654.059012188129 194.881885 T 653.35556435902 106.29921 Z" stroke="#43426B" fill="#43426B" style="stroke-width: 0.5px;"/> <path d="M 658.882324341252 106.29921 Q 658.882324341252 159.448815 659.513999631843 194.881885 T 660.145674922433 283.46456 L 660.148745807024 283.46456 Q 660.148745807024 230.314955 659.517519922182 194.881885 T 658.88629403734 106.29921 Z" stroke="#43426B" fill="#43426B" style="stroke-width: 0.5px;"/> <path d="M 661.237867455968 106.29921 Q 661.237867455968 159.448815 661.765679251693 194.881885 T 662.293491047418 283.46456 L 662.297762816922 283.46456 Q 662.297762816922 230.314955 661.773057919458 194.881885 T 661.248353021993 106.29921 Z" stroke="#DB4348" fill="#DB4348" style="stroke-width: 0.5px;"/> <path d="M 669.343165087251 106.29921 Q 669.343165087251 159.448815 669.599569540151 194.881885 T 669.855973993052 283.46456 L 669.859752730626 283.46456 Q 669.859752730626 230.314955 669.603877100504 194.881885 T 669.348001470381 106.29921 Z" stroke="#43426B" fill="#43426B" style="stroke-width: 0.5px;"/><rect x="124.015745" y="88.582675" rx="2" ry="2" width="136.638695185584" height="17.71654" style="fill:#f7f7f7;stroke:black;stroke-width:0.5"/> <rect x="264.197747185584" y="88.582675" rx="2" ry="2" width="88.4572633360124" height="17.71654" style="fill:#f7f7f7;stroke:black;stroke-width:0.5"/> <rect x="356.198317521597" y="88.582675" rx="2" ry="2" width="105.348863555006" height="17.71654" style="fill:#f7f7f7;stroke:black;stroke-width:0.5"/> <rect x="465.090488076603" y="88.582675" rx="2" ry="2" width="83.4581720628902" height="17.71654" style="fill:#f7f7f7;stroke:black;stroke-width:0.5"/> <rect x="552.091967139493" y="88.582675" rx="2" ry="2" width="121.136362860507" height="17.71654" style="fill:#f7f7f7;stroke:black;stroke-width:0.5"/> <rect x="124.015745" y="283.46456" rx="2" ry="2" width="80.7487835213352" height="17.71654" style="fill:#f7f7f7;stroke:black;stroke-width:0.5"/> <rect x="208.307835521335" y="283.46456" rx="2" ry="2" width="58.7124256073899" height="17.71654" style="fill:#f7f7f7;stroke:black;stroke-width:0.5"/> <rect x="270.563568128725" y="283.46456" rx="2" ry="2" width="67.4639536577107" height="17.71654" style="fill:#f7f7f7;stroke:black;stroke-width:0.5"/> <rect x="341.570828786436" y="283.46456" rx="2" ry="2" width="61.9342484012526" height="17.71654" style="fill:#f7f7f7;stroke:black;stroke-width:0.5"/> <rect x="407.048384187688" y="283.46456" rx="2" ry="2" width="53.4783070793711" height="17.71654" style="fill:#f7f7f7;stroke:black;stroke-width:0.5"/> <rect x="464.06999826706" y="283.46456" rx="2" ry="2" width="70.0043182834096" height="17.71654" style="fill:#f7f7f7;stroke:black;stroke-width:0.5"/> <rect x="537.617623550469" y="283.46456" rx="2" ry="2" width="75.4862874841096" height="17.71654" style="fill:#f7f7f7;stroke:black;stroke-width:0.5"/> <rect x="616.647218034579" y="283.46456" rx="2" ry="2" width="56.5811119654213" height="17.71654" style="fill:#f7f7f7;stroke:black;stroke-width:0.5"/><rect x="124.015745" y="91.582675" rx="2" ry="2" width="136.638695185584" height="11.71654" style="fill:#216218;stroke:#216218;stroke-width:0.5"/> <rect x="264.197747185584" y="91.582675" rx="2" ry="2" width="88.4572633360124" height="11.71654" style="fill:#216218;stroke:#216218;stroke-width:0.5"/> <rect x="356.198317521597" y="91.582675" rx="2" ry="2" width="105.348863555006" height="11.71654" style="fill:#216218;stroke:#216218;stroke-width:0.5"/> <rect x="465.090488076603" y="91.582675" rx="2" ry="2" width="83.4581720628902" height="11.71654" style="fill:#216218;stroke:#216218;stroke-width:0.5"/> <rect x="552.091967139493" y="91.582675" rx="2" ry="2" width="121.136362860507" height="11.71654" style="fill:#216218;stroke:#216218;stroke-width:0.5"/> <rect x="124.015745" y="286.46456" rx="2" ry="2" width="80.7487835213352" height="11.71654" style="fill:#B2182B;stroke:#B2182B;stroke-width:0.5"/> <rect x="208.307835521335" y="286.46456" rx="2" ry="2" width="58.7124256073899" height="11.71654" style="fill:#B2182B;stroke:#B2182B;stroke-width:0.5"/> <rect x="270.563568128725" y="286.46456" rx="2" ry="2" width="67.4639536577107" height="11.71654" style="fill:#B2182B;stroke:#B2182B;stroke-width:0.5"/> <rect x="341.570828786436" y="286.46456" rx="2" ry="2" width="61.9342484012526" height="11.71654" style="fill:#B2182B;stroke:#B2182B;stroke-width:0.5"/> <rect x="407.048384187688" y="286.46456" rx="2" ry="2" width="53.4783070793711" height="11.71654" style="fill:#B2182B;stroke:#B2182B;stroke-width:0.5"/> <rect x="464.06999826706" y="286.46456" rx="2" ry="2" width="70.0043182834096" height="11.71654" style="fill:#B2182B;stroke:#B2182B;stroke-width:0.5"/> <rect x="537.617623550469" y="286.46456" rx="2" ry="2" width="75.4862874841096" height="11.71654" style="fill:#B2182B;stroke:#B2182B;stroke-width:0.5"/> <rect x="616.647218034579" y="286.46456" rx="2" ry="2" width="56.5811119654213" height="11.71654" style="fill:#B2182B;stroke:#B2182B;stroke-width:0.5"/></svg>