<?xml version="1.0" standalone="no"?> <!DOCTYPE svg PUBLIC "-//W3C//DTD SVG 1.1//EN" "http://www.w3.org/Graphics/SVG/1.1/DTD/svg11.dtd">  <svg id="svg" width="744.0945" height="1052.362"> 	<text x="70.86614" y="103.29921" font-size="10" fill="#B2182B" >arenosa</text><text x="70.86614" y="298.181095" font-size="10" fill="#2166AC" >petraea</text><text x="162.290136760668" y="85.039368" font-size="9" fill="black" >1</text> <text x="235.56404832503" y="85.039368" font-size="9" fill="black" >2</text> <text x="302.19554495758" y="85.039368" font-size="9" fill="black" >3</text> <text x="370.437952987062" y="85.039368" font-size="9" fill="black" >4</text> <text x="431.687537727374" y="85.039368" font-size="9" fill="black" >5</text> <text x="496.972157408764" y="85.039368" font-size="9" fill="black" >6</text> <text x="573.260767292524" y="85.039368" font-size="9" fill="black" >7</text> <text x="642.837774017289" y="85.039368" font-size="9" fill="black" >8</text> <text x="165.379082354474" y="310.0393625" font-size="9" fill="black" >1</text> <text x="243.681785734109" y="310.0393625" font-size="9" fill="black" >2</text> <text x="310.250734828651" y="310.0393625" font-size="9" fill="black" >3</text> <text x="376.046461872394" y="310.0393625" font-size="9" fill="black" >4</text> <text x="438.381752716256" y="310.0393625" font-size="9" fill="black" >5</text> <text x="503.871908248465" y="310.0393625" font-size="9" fill="black" >6</text> <text x="574.112135514336" y="310.0393625" font-size="9" fill="black" >7</text> <text x="640.901495558747" y="310.0393625" font-size="9" fill="black" >8</text><path d="M 124.027612982878 106.29921 Q 124.027612982878 159.448815 124.035225708498 194.881885 T 124.042838434119 283.46456 L 165.942146124857 283.46456 Q 165.942146124857 230.314955 167.051171549255 194.881885 T 168.160196973652 106.29921 Z" stroke="#091F34" fill="#091F34" style="stroke-width: 0.5px;"/> <path d="M 182.97136917165 106.29921 Q 182.97136917165 159.448815 185.180764289983 194.881885 T 187.390159408316 283.46456 L 210.742549254346 283.46456 Q 210.742549254346 230.314955 207.659271182896 194.881885 T 204.575993111445 106.29921 Z" stroke="#091F34" fill="#091F34" style="stroke-width: 0.5px;"/> <path d="M 149.172283653858 106.29921 Q 149.172283653858 159.448815 208.302108487176 194.881885 T 267.431933320493 283.46456 L 273.537677741905 283.46456 Q 273.537677741905 230.314955 214.336040153051 194.881885 T 155.134402564198 106.29921 Z" stroke="#091F34" fill="#091F34" style="stroke-width: 0.5px;"/> <path d="M 155.269884216803 106.29921 Q 155.269884216803 159.448815 210.129086840514 194.881885 T 264.988289464224 283.46456 L 256.288038101443 283.46456 Q 256.288038101443 230.314955 208.88739893497 194.881885 T 161.486759768496 106.29921 Z" stroke="#091F34" fill="#091F34" style="stroke-width: 0.5px;"/> <path d="M 190.83591869394 106.29921 Q 190.83591869394 159.448815 246.17767198105 194.881885 T 301.51942526816 283.46456 L 307.667827808376 283.46456 Q 307.667827808376 230.314955 253.152933808673 194.881885 T 198.63803980897 106.29921 Z" stroke="#091F34" fill="#091F34" style="stroke-width: 0.5px;"/> <path d="M 198.511369341279 106.29921 Q 198.511369341279 159.448815 249.561769239844 194.881885 T 300.61216913841 283.46456 L 295.186391056983 283.46456 Q 295.186391056983 230.314955 249.823593629035 194.881885 T 204.460796201087 106.29921 Z" stroke="#091F34" fill="#091F34" style="stroke-width: 0.5px;"/> <path d="M 254.299762655068 106.29921 Q 254.299762655068 159.448815 200.015222766473 194.881885 T 145.730682877878 283.46456 L 153.129477519455 283.46456 Q 153.129477519455 230.314955 208.16420860057 194.881885 T 263.198939681686 106.29921 Z" stroke="#103356" fill="#103356" style="stroke-width: 0.5px;"/> <path d="M 245.341707051082 106.29921 Q 245.341707051082 159.448815 202.281945020177 194.881885 T 159.222182989273 283.46456 L 153.259771010977 283.46456 Q 153.259771010977 230.314955 203.73814613402 194.881885 T 254.216521257063 106.29921 Z" stroke="#103356" fill="#103356" style="stroke-width: 0.5px;"/> <path d="M 236.801689698572 106.29921 Q 236.801689698572 159.448815 241.634181148233 194.881885 T 246.466672597893 283.46456 L 277.055625291659 283.46456 Q 277.055625291659 230.314955 272.029813465838 194.881885 T 267.004001640017 106.29921 Z" stroke="#103356" fill="#103356" style="stroke-width: 0.5px;"/> <path d="M 208.330226214254 106.29921 Q 208.330226214254 159.448815 211.447202435035 194.881885 T 214.564178655817 283.46456 L 227.820005755053 283.46456 Q 227.820005755053 230.314955 224.322763772068 194.881885 T 220.825521789083 106.29921 Z" stroke="#103356" fill="#103356" style="stroke-width: 0.5px;"/> <path d="M 221.959350839308 106.29921 Q 221.959350839308 159.448815 225.603149883344 194.881885 T 229.246948927379 283.46456 L 240.780415197159 283.46456 Q 240.780415197159 230.314955 235.116420325689 194.881885 T 229.45242545422 106.29921 Z" stroke="#103356" fill="#103356" style="stroke-width: 0.5px;"/> <path d="M 286.725130130381 106.29921 Q 286.725130130381 159.448815 248.690302804672 194.881885 T 210.655475478964 283.46456 L 204.464874573201 283.46456 Q 204.464874573201 230.314955 248.684567569703 194.881885 T 292.904260566204 106.29921 Z" stroke="#174778" fill="#174778" style="stroke-width: 0.5px;"/> <path d="M 270.578172438812 106.29921 Q 270.578172438812 159.448815 275.605253338829 194.881885 T 280.632334238845 283.46456 L 313.271961055834 283.46456 Q 313.271961055834 230.314955 310.144091490374 194.881885 T 307.016221924915 106.29921 Z" stroke="#174778" fill="#174778" style="stroke-width: 0.5px;"/> <path d="M 306.906758271567 106.29921 Q 306.906758271567 159.448815 310.204376543782 194.881885 T 313.501994815997 283.46456 L 322.049555719967 283.46456 Q 322.049555719967 230.314955 318.602465932675 194.881885 T 315.155376145383 106.29921 Z" stroke="#174778" fill="#174778" style="stroke-width: 0.5px;"/> <path d="M 328.478511068283 106.29921 Q 328.478511068283 159.448815 331.504796872198 194.881885 T 334.531082676113 283.46456 L 339.387121716221 283.46456 Q 339.387121716221 230.314955 336.671175597577 194.881885 T 333.955229478932 106.29921 Z" stroke="#174778" fill="#174778" style="stroke-width: 0.5px;"/> <path d="M 270.65214483654 106.29921 Q 270.65214483654 159.448815 379.731640565292 194.881885 T 488.811136294044 283.46456 L 493.866070995453 283.46456 Q 493.866070995453 230.314955 384.443073846393 194.881885 T 275.020076697332 106.29921 Z" stroke="#174778" fill="#174778" style="stroke-width: 0.5px;"/> <path d="M 302.466959963718 106.29921 Q 302.466959963718 159.448815 442.809953746518 194.881885 T 583.152947529319 283.46456 L 587.057864741111 283.46456 Q 587.057864741111 230.314955 446.81776738231 194.881885 T 306.577670023509 106.29921 Z" stroke="#174778" fill="#174778" style="stroke-width: 0.5px;"/> <path d="M 329.161166599704 106.29921 Q 329.161166599704 159.448815 440.158056861024 194.881885 T 551.154947122344 283.46456 L 548.169897246775 283.46456 Q 548.169897246775 230.314955 440.919915138985 194.881885 T 333.669933031195 106.29921 Z" stroke="#174778" fill="#174778" style="stroke-width: 0.5px;"/> <path d="M 370.152312345851 106.29921 Q 370.152312345851 159.448815 373.843395854502 194.881885 T 377.534479363153 283.46456 L 408.658957308271 283.46456 Q 408.658957308271 230.314955 406.075338426161 194.881885 T 403.491719544052 106.29921 Z" stroke="#1A5289" fill="#1A5289" style="stroke-width: 0.5px;"/> <path d="M 341.888151179659 106.29921 Q 341.888151179659 159.448815 344.780547399541 194.881885 T 347.672943619423 283.46456 L 364.799925164252 283.46456 Q 364.799925164252 230.314955 360.789070346981 194.881885 T 356.77821552971 106.29921 Z" stroke="#1A5289" fill="#1A5289" style="stroke-width: 0.5px;"/> <path d="M 359.228531395119 106.29921 Q 359.228531395119 159.448815 363.776552724672 194.881885 T 368.324574054225 283.46456 L 374.972094043441 283.46456 Q 374.972094043441 230.314955 371.422369719849 194.881885 T 367.872645396257 106.29921 Z" stroke="#1A5289" fill="#1A5289" style="stroke-width: 0.5px;"/> <path d="M 394.993525385801 106.29921 Q 394.993525385801 159.448815 428.431935593336 194.881885 T 461.870345800871 283.46456 L 468.15540272263 283.46456 Q 468.15540272263 230.314955 435.814182961708 194.881885 T 403.472963200786 106.29921 Z" stroke="#1A5289" fill="#1A5289" style="stroke-width: 0.5px;"/> <path d="M 388.214935035025 106.29921 Q 388.214935035025 159.448815 422.1591552749 194.881885 T 456.103375514775 283.46456 L 460.86323009942 283.46456 Q 460.86323009942 230.314955 427.506002570982 194.881885 T 394.148775042544 106.29921 Z" stroke="#1A5289" fill="#1A5289" style="stroke-width: 0.5px;"/> <path d="M 341.929171436204 106.29921 Q 341.929171436204 159.448815 442.764770154036 194.881885 T 543.600368871869 283.46456 L 547.156414835641 283.46456 Q 547.156414835641 230.314955 446.640158007879 194.881885 T 346.123901180117 106.29921 Z" stroke="#1A5289" fill="#1A5289" style="stroke-width: 0.5px;"/> <path d="M 347.1569404173 106.29921 Q 347.1569404173 159.448815 452.202168472178 194.881885 T 557.247396527056 283.46456 L 554.200422543282 283.46456 Q 554.200422543282 230.314955 453.441646500561 194.881885 T 352.68287045784 106.29921 Z" stroke="#1A5289" fill="#1A5289" style="stroke-width: 0.5px;"/> <path d="M 455.278218466575 106.29921 Q 455.278218466575 159.448815 429.184835738439 194.881885 T 403.091453010302 283.46456 L 408.628302241312 283.46456 Q 408.628302241312 230.314955 434.144317139985 194.881885 T 459.660332038658 106.29921 Z" stroke="#2166AC" fill="#2166AC" style="stroke-width: 0.5px;"/> <path d="M 440.377634928139 106.29921 Q 440.377634928139 159.448815 445.400197602003 194.881885 T 450.422760275866 283.46456 L 459.615314264028 283.46456 Q 459.615314264028 230.314955 455.0942909255 194.881885 T 450.573267586971 106.29921 Z" stroke="#2166AC" fill="#2166AC" style="stroke-width: 0.5px;"/> <path d="M 451.309793900018 106.29921 Q 451.309793900018 159.448815 455.679676923145 194.881885 T 460.049559946273 283.46456 L 468.677493285407 283.46456 Q 468.677493285407 230.314955 464.597411994558 194.881885 T 460.51733070371 106.29921 Z" stroke="#2166AC" fill="#2166AC" style="stroke-width: 0.5px;"/> <path d="M 407.117538959132 106.29921 Q 407.117538959132 159.448815 409.729404396096 194.881885 T 412.341269833061 283.46456 L 430.625927542041 283.46456 Q 430.625927542041 230.314955 427.000797924781 194.881885 T 423.37566830752 106.29921 Z" stroke="#2166AC" fill="#2166AC" style="stroke-width: 0.5px;"/> <path d="M 425.880006385789 106.29921 Q 425.880006385789 159.448815 430.012906802601 194.881885 T 434.145807219414 283.46456 L 450.097554681341 283.46456 Q 450.097554681341 230.314955 445.224543545231 194.881885 T 440.351532409122 106.29921 Z" stroke="#2166AC" fill="#2166AC" style="stroke-width: 0.5px;"/> <path d="M 482.460635099017 106.29921 Q 482.460635099017 159.448815 381.577547112194 194.881885 T 280.694459125372 283.46456 L 284.820916301366 283.46456 Q 284.820916301366 230.314955 386.715026994203 194.881885 T 488.609137687039 106.29921 Z" stroke="#277ACE" fill="#277ACE" style="stroke-width: 0.5px;"/> <path d="M 465.046733257878 106.29921 Q 465.046733257878 159.448815 377.78569606648 194.881885 T 290.524658875081 283.46456 L 294.256595378239 283.46456 Q 294.256595378239 230.314955 383.260113946995 194.881885 T 472.263632515752 106.29921 Z" stroke="#277ACE" fill="#277ACE" style="stroke-width: 0.5px;"/> <path d="M 472.87528792765 106.29921 Q 472.87528792765 159.448815 476.341411501579 194.881885 T 479.807535075507 283.46456 L 506.200849367181 283.46456 Q 506.200849367181 230.314955 503.046713877152 194.881885 T 499.892578387123 106.29921 Z" stroke="#277ACE" fill="#277ACE" style="stroke-width: 0.5px;"/> <path d="M 464.116410179921 106.29921 Q 464.116410179921 159.448815 468.22625043475 194.881885 T 472.336090689579 283.46456 L 479.795741531475 283.46456 Q 479.795741531475 230.314955 476.037364235089 194.881885 T 472.278986938703 106.29921 Z" stroke="#277ACE" fill="#277ACE" style="stroke-width: 0.5px;"/> <path d="M 516.954395562342 106.29921 Q 516.954395562342 159.448815 518.493744565826 194.881885 T 520.033093569309 283.46456 L 533.414767938681 283.46456 Q 533.414767938681 230.314955 530.983156687308 194.881885 T 528.551545435936 106.29921 Z" stroke="#277ACE" fill="#277ACE" style="stroke-width: 0.5px;"/> <path d="M 529.738132424288 106.29921 Q 529.738132424288 159.448815 532.239312536317 194.881885 T 534.740492648345 283.46456 L 539.600358115891 283.46456 Q 539.600358115891 230.314955 536.833077889474 194.881885 T 534.065797663056 106.29921 Z" stroke="#277ACE" fill="#277ACE" style="stroke-width: 0.5px;"/> <path d="M 499.946336475735 106.29921 Q 499.946336475735 159.448815 503.299221197865 194.881885 T 506.652105919994 283.46456 L 513.393802581456 283.46456 Q 513.393802581456 230.314955 509.954838413245 194.881885 T 506.515874245035 106.29921 Z" stroke="#277ACE" fill="#277ACE" style="stroke-width: 0.5px;"/> <path d="M 522.281894337833 106.29921 Q 522.281894337833 159.448815 543.975940178889 194.881885 T 565.669986019946 283.46456 L 570.842585547419 283.46456 Q 570.842585547419 230.314955 549.461035259509 194.881885 T 528.079484971599 106.29921 Z" stroke="#277ACE" fill="#277ACE" style="stroke-width: 0.5px;"/> <path d="M 602.044292743921 106.29921 Q 602.044292743921 159.448815 426.69729769855 194.881885 T 251.350302653179 283.46456 L 255.830828034914 283.46456 Q 255.830828034914 230.314955 430.870444527165 194.881885 T 605.910061019416 106.29921 Z" stroke="#438FDB" fill="#438FDB" style="stroke-width: 0.5px;"/> <path d="M 577.858368441641 106.29921 Q 577.858368441641 159.448815 443.330257601366 194.881885 T 308.802146761092 283.46456 L 313.259259644608 283.46456 Q 313.259259644608 230.314955 447.80296684633 194.881885 T 582.346674048052 106.29921 Z" stroke="#438FDB" fill="#438FDB" style="stroke-width: 0.5px;"/> <path d="M 537.631072757178 106.29921 Q 537.631072757178 159.448815 540.414100096725 194.881885 T 543.197127436273 283.46456 L 581.583710723455 283.46456 Q 581.583710723455 230.314955 579.876654546165 194.881885 T 578.169598368876 106.29921 Z" stroke="#438FDB" fill="#438FDB" style="stroke-width: 0.5px;"/> <path d="M 593.583072458736 106.29921 Q 593.583072458736 159.448815 590.873705991055 194.881885 T 588.164339523374 283.46456 L 597.152192737889 283.46456 Q 597.152192737889 230.314955 600.345710841133 194.881885 T 603.539228944377 106.29921 Z" stroke="#438FDB" fill="#438FDB" style="stroke-width: 0.5px;"/> <path d="M 578.061624376287 106.29921 Q 578.061624376287 159.448815 580.222965691663 194.881885 T 582.384307007039 283.46456 L 587.58911254126 283.46456 Q 587.58911254126 230.314955 584.936168450813 194.881885 T 582.283224360366 106.29921 Z" stroke="#438FDB" fill="#438FDB" style="stroke-width: 0.5px;"/> <path d="M 603.33332120228 106.29921 Q 603.33332120228 159.448815 606.211217031595 194.881885 T 609.08911286091 283.46456 L 597.600050608385 283.46456 Q 597.600050608385 230.314955 605.253467759457 194.881885 T 612.906884910529 106.29921 Z" stroke="#438FDB" fill="#438FDB" style="stroke-width: 0.5px;"/> <path d="M 568.770229884679 106.29921 Q 568.770229884679 159.448815 593.727739447399 194.881885 T 618.68524901012 283.46456 L 613.035408141231 283.46456 Q 613.035408141231 230.314955 593.067329551242 194.881885 T 573.099250961253 106.29921 Z" stroke="#438FDB" fill="#438FDB" style="stroke-width: 0.5px;"/> <path d="M 616.788499855671 106.29921 Q 616.788499855671 159.448815 596.79166230654 194.881885 T 576.79482475741 283.46456 L 572.579230736031 283.46456 Q 572.579230736031 230.314955 597.49234244571 194.881885 T 622.40545415539 106.29921 Z" stroke="#5499DE" fill="#5499DE" style="stroke-width: 0.5px;"/> <path d="M 630.979451972821 106.29921 Q 630.979451972821 159.448815 631.017678783913 194.881885 T 631.055905595005 283.46456 L 673.21802046965 283.46456 Q 673.21802046965 230.314955 673.217218352618 194.881885 T 673.216416235586 106.29921 Z" stroke="#5499DE" fill="#5499DE" style="stroke-width: 0.5px;"/> <path d="M 622.050397211267 106.29921 Q 622.050397211267 159.448815 620.603112025193 194.881885 T 619.155826839118 283.46456 L 630.967763911736 283.46456 Q 630.967763911736 230.314955 631.202566687914 194.881885 T 631.437369464091 106.29921 Z" stroke="#5499DE" fill="#5499DE" style="stroke-width: 0.5px;"/> <path d="M 616.657649181547 106.29921 Q 616.657649181547 159.448815 614.786284980442 194.881885 T 612.914920779338 283.46456 L 618.687498309291 283.46456 Q 618.687498309291 230.314955 620.488513285699 194.881885 T 622.289528262108 106.29921 Z" stroke="#5499DE" fill="#5499DE" style="stroke-width: 0.5px;"/><rect x="124.015745" y="88.582675" rx="2" ry="2" width="80.7487835213352" height="17.71654" style="fill:#f7f7f7;stroke:black;stroke-width:0.5"/> <rect x="208.307835521335" y="88.582675" rx="2" ry="2" width="58.7124256073899" height="17.71654" style="fill:#f7f7f7;stroke:black;stroke-width:0.5"/> <rect x="270.563568128725" y="88.582675" rx="2" ry="2" width="67.4639536577107" height="17.71654" style="fill:#f7f7f7;stroke:black;stroke-width:0.5"/> <rect x="341.570828786436" y="88.582675" rx="2" ry="2" width="61.9342484012526" height="17.71654" style="fill:#f7f7f7;stroke:black;stroke-width:0.5"/> <rect x="407.048384187688" y="88.582675" rx="2" ry="2" width="53.4783070793711" height="17.71654" style="fill:#f7f7f7;stroke:black;stroke-width:0.5"/> <rect x="464.06999826706" y="88.582675" rx="2" ry="2" width="70.0043182834096" height="17.71654" style="fill:#f7f7f7;stroke:black;stroke-width:0.5"/> <rect x="537.617623550469" y="88.582675" rx="2" ry="2" width="75.4862874841096" height="17.71654" style="fill:#f7f7f7;stroke:black;stroke-width:0.5"/> <rect x="616.647218034579" y="88.582675" rx="2" ry="2" width="56.5811119654213" height="17.71654" style="fill:#f7f7f7;stroke:black;stroke-width:0.5"/> <rect x="124.015745" y="283.46456" rx="2" ry="2" width="86.926674708948" height="17.71654" style="fill:#f7f7f7;stroke:black;stroke-width:0.5"/> <rect x="214.485726708948" y="283.46456" rx="2" ry="2" width="62.5921180503226" height="17.71654" style="fill:#f7f7f7;stroke:black;stroke-width:0.5"/> <rect x="280.621151759271" y="283.46456" rx="2" ry="2" width="63.4591661387597" height="17.71654" style="fill:#f7f7f7;stroke:black;stroke-width:0.5"/> <rect x="347.62362489803" y="283.46456" rx="2" ry="2" width="61.0456739487282" height="17.71654" style="fill:#f7f7f7;stroke:black;stroke-width:0.5"/> <rect x="412.212605846759" y="283.46456" rx="2" ry="2" width="56.5382937389953" height="17.71654" style="fill:#f7f7f7;stroke:black;stroke-width:0.5"/> <rect x="472.294206585754" y="283.46456" rx="2" ry="2" width="67.3554033254227" height="17.71654" style="fill:#f7f7f7;stroke:black;stroke-width:0.5"/> <rect x="543.192916911177" y="283.46456" rx="2" ry="2" width="66.038437206318" height="17.71654" style="fill:#f7f7f7;stroke:black;stroke-width:0.5"/> <rect x="612.774661117494" y="283.46456" rx="2" ry="2" width="60.4536688825055" height="17.71654" style="fill:#f7f7f7;stroke:black;stroke-width:0.5"/><rect x="124.015745" y="91.582675" rx="2" ry="2" width="80.7487835213352" height="11.71654" style="fill:#B2182B;stroke:#B2182B;stroke-width:0.5"/> <rect x="208.307835521335" y="91.582675" rx="2" ry="2" width="58.7124256073899" height="11.71654" style="fill:#B2182B;stroke:#B2182B;stroke-width:0.5"/> <rect x="270.563568128725" y="91.582675" rx="2" ry="2" width="67.4639536577107" height="11.71654" style="fill:#B2182B;stroke:#B2182B;stroke-width:0.5"/> <rect x="341.570828786436" y="91.582675" rx="2" ry="2" width="61.9342484012526" height="11.71654" style="fill:#B2182B;stroke:#B2182B;stroke-width:0.5"/> <rect x="407.048384187688" y="91.582675" rx="2" ry="2" width="53.4783070793711" height="11.71654" style="fill:#B2182B;stroke:#B2182B;stroke-width:0.5"/> <rect x="464.06999826706" y="91.582675" rx="2" ry="2" width="70.0043182834096" height="11.71654" style="fill:#B2182B;stroke:#B2182B;stroke-width:0.5"/> <rect x="537.617623550469" y="91.582675" rx="2" ry="2" width="75.4862874841096" height="11.71654" style="fill:#B2182B;stroke:#B2182B;stroke-width:0.5"/> <rect x="616.647218034579" y="91.582675" rx="2" ry="2" width="56.5811119654213" height="11.71654" style="fill:#B2182B;stroke:#B2182B;stroke-width:0.5"/> <rect x="124.015745" y="286.46456" rx="2" ry="2" width="86.926674708948" height="11.71654" style="fill:#2166AC;stroke:#2166AC;stroke-width:0.5"/> <rect x="214.485726708948" y="286.46456" rx="2" ry="2" width="62.5921180503226" height="11.71654" style="fill:#2166AC;stroke:#2166AC;stroke-width:0.5"/> <rect x="280.621151759271" y="286.46456" rx="2" ry="2" width="63.4591661387597" height="11.71654" style="fill:#2166AC;stroke:#2166AC;stroke-width:0.5"/> <rect x="347.62362489803" y="286.46456" rx="2" ry="2" width="61.0456739487282" height="11.71654" style="fill:#2166AC;stroke:#2166AC;stroke-width:0.5"/> <rect x="412.212605846759" y="286.46456" rx="2" ry="2" width="56.5382937389953" height="11.71654" style="fill:#2166AC;stroke:#2166AC;stroke-width:0.5"/> <rect x="472.294206585754" y="286.46456" rx="2" ry="2" width="67.3554033254227" height="11.71654" style="fill:#2166AC;stroke:#2166AC;stroke-width:0.5"/> <rect x="543.192916911177" y="286.46456" rx="2" ry="2" width="66.038437206318" height="11.71654" style="fill:#2166AC;stroke:#2166AC;stroke-width:0.5"/> <rect x="612.774661117494" y="286.46456" rx="2" ry="2" width="60.4536688825055" height="11.71654" style="fill:#2166AC;stroke:#2166AC;stroke-width:0.5"/></svg>