<?xml version="1.0" encoding="utf-8"?>
<!-- Generator: Adobe Illustrator 25.0.1, SVG Export Plug-In . SVG Version: 6.00 Build 0)  -->
<svg version="1.1" id="svg" xmlns="http://www.w3.org/2000/svg" xmlns:xlink="http://www.w3.org/1999/xlink" x="0px" y="0px"
	 viewBox="0 0 744.1 1052.4" style="enable-background:new 0 0 744.1 1052.4;" xml:space="preserve">
<style type="text/css">
	.st0{fill:#216218;}
	.st1{font-family:'ArialMT';}
	.st2{font-size:10px;}
	.st3{fill:#F59A24;stroke:#F59A24;stroke-width:0.5;}
	.st4{fill:#598B2C;stroke:#598B2C;stroke-width:0.5;}
	.st5{fill:#EEE82C;stroke:#EEE82C;stroke-width:0.5;}
	.st6{fill:#0D2818;stroke:#0D2818;stroke-width:0.5;}
	.st7{fill:#004F2D;stroke:#004F2D;stroke-width:0.5;}
	.st8{fill:#F7F7F7;stroke:#000000;stroke-width:0.5;}
	.st9{fill:#216218;stroke:#216218;stroke-width:0.5;}
	.st10{fill:#B2182B;stroke:#B2182B;stroke-width:0.5;}
	.st11{font-size:9px;}
	.st12{fill:#B2182B;}
	.st13{fill:#091F34;stroke:#091F34;stroke-width:0.5;}
	.st14{fill:#103356;stroke:#103356;stroke-width:0.5;}
	.st15{fill:#174778;stroke:#174778;stroke-width:0.5;}
	.st16{fill:#1A5289;stroke:#1A5289;stroke-width:0.5;}
	.st17{fill:#2166AC;stroke:#2166AC;stroke-width:0.5;}
	.st18{fill:#277ACE;stroke:#277ACE;stroke-width:0.5;}
	.st19{fill:#438FDB;stroke:#438FDB;stroke-width:0.5;}
	.st20{fill:#5499DE;stroke:#5499DE;stroke-width:0.5;}
	.st21{fill:#091F34;}
	.st22{fill:#2166AC;}
</style>
<g>
	<text transform="matrix(1 0 0 1 70.8661 686.4008)" class="st0 st1 st2">thaliana</text>
	<path class="st3" d="M162.6,673.5c0-35.4-0.8-65-2.3-88.6c-1.6-23.6-2.3-53.1-2.3-88.6h-32.2c0,35.4,0,65,0.1,88.6
		s0.1,53.1,0.1,88.6H162.6z"/>
	<path class="st3" d="M215,673.5c0-35.4-2.1-65-6.3-88.6s-6.3-53.1-6.3-88.6H183c0,35.4,1.9,65,5.6,88.6c3.7,23.6,5.6,53.1,5.6,88.6
		H215z"/>
	<path class="st3" d="M187,673.5c0-35.4-1.4-65-4.1-88.6c-2.7-23.6-4.1-53.1-4.1-88.6h-17.4c0,35.4,0.9,65,2.6,88.6
		c1.7,23.6,2.6,53.1,2.6,88.6H187z"/>
	<path class="st3" d="M256.3,673.5c0-35.4-16.9-65-50.6-88.6s-50.6-53.1-50.6-88.6h-7.5c0,35.4,16.4,65,49.3,88.6
		s49.3,53.1,49.3,88.6H256.3z"/>
	<path class="st3" d="M229.2,673.5c0-35.4-14.7-65-44-88.6c-29.4-23.6-44-53.1-44-88.6h-3.6c0,35.4,14.4,65,43.3,88.6
		s43.3,53.1,43.3,88.6H229.2z"/>
	<path class="st3" d="M237.5,673.5c0-35.4-12.7-65-38-88.6s-38-53.1-38-88.6h-6.2c0,35.4,15.1,65,45.4,88.6s45.4,53.1,45.4,88.6
		H237.5z"/>
	<path class="st4" d="M390,673.5c0-35.4-31.9-65-95.7-88.6s-95.7-53.1-95.7-88.6h-7.8c0,35.4,31.9,65,95.8,88.6s95.8,53.1,95.8,88.6
		H390z"/>
	<path class="st4" d="M374.4,673.5c0-35.4-28.3-65-85-88.6c-56.6-23.6-85-53.1-85-88.6h-5.9c0,35.4,30.5,65,91.4,88.6
		c61,23.6,91.4,53.1,91.4,88.6H374.4z"/>
	<path class="st3" d="M258.7,673.5c0-35.4,1.1-65,3.3-88.6c2.2-23.6,3.3-53.1,3.3-88.6h-30.9c0,35.4-0.4,65-1.2,88.6
		S232,638,232,673.5H258.7z"/>
	<path class="st3" d="M159.5,673.5c0-35.4,17.3-65,51.9-88.6s51.9-53.1,51.9-88.6h-8.9c0,35.4-17.3,65-51.9,88.6
		s-51.9,53.1-51.9,88.6H159.5z"/>
	<path class="st3" d="M218.5,673.5c0-35.4,1.3-65,3.8-88.6s3.8-53.1,3.8-88.6h-17.8c0,35.4,3.9,65,11.8,88.6
		c7.9,23.6,11.8,53.1,11.8,88.6H218.5z"/>
	<path class="st3" d="M210.9,673.5c0-35.4,15-65,45.1-88.6c30-23.6,45.1-53.1,45.1-88.6h-7c0,35.4-15.1,65-45.3,88.6
		s-45.3,53.1-45.3,88.6H210.9z"/>
	<path class="st5" d="M304.6,673.5c0-35.4,5.5-65,16.6-88.6s16.6-53.1,16.6-88.6h-8.6c0,35.4-5.5,65-16.4,88.6s-16.4,53.1-16.4,88.6
		H304.6z"/>
	<path class="st5" d="M296.9,673.5c0-35.4,5.3-65,15.9-88.6s15.9-53.1,15.9-88.6h-7.3c0,35.4-6.3,65-19,88.6
		c-12.6,23.6-19,53.1-19,88.6H296.9z"/>
	<path class="st5" d="M277.4,673.5c0-35.4,6.4-65,19.2-88.6c12.8-23.6,19.2-53.1,19.2-88.6h-6.1c0,35.4-6.6,65-19.7,88.6
		s-19.7,53.1-19.7,88.6H277.4z"/>
	<path class="st4" d="M395.6,673.5c0-35.4-14.8-65-44.5-88.6c-29.6-23.6-44.5-53.1-44.5-88.6H272c0,35.4,14.3,65,42.9,88.6
		s42.9,53.1,42.9,88.6H395.6z"/>
	<path class="st6" d="M579.3,673.5c0-35.4-50.7-65-152.1-88.6C325.7,561.3,275,531.7,275,496.3h-4.4c0,35.4,50.3,65,150.9,88.6
		s150.9,53.1,150.9,88.6L579.3,673.5L579.3,673.5z"/>
	<path class="st6" d="M561.8,673.5c0-35.4-45.9-65-137.8-88.6c-91.8-23.6-137.8-53.1-137.8-88.6h-4c0,35.4,45.3,65,135.8,88.6
		c90.6,23.6,135.8,53.1,135.8,88.6H561.8z"/>
	<path class="st5" d="M352.6,673.5c0-35.4,8.5-65,25.4-88.6c17-23.6,25.4-53.1,25.4-88.6h-40.7c0,35.4-8,65-23.9,88.6
		S315,638,315,673.5H352.6z"/>
	<path class="st5" d="M314.2,673.5c0-35.4,6.8-65,20.3-88.6s20.3-53.1,20.3-88.6H342c0,35.4-6.2,65-18.6,88.6s-18.6,53.1-18.6,88.6
		H314.2z"/>
	<path class="st4" d="M460.9,673.5c0-35.4-9.6-65-28.7-88.6s-28.7-53.1-28.7-88.6h-9c0,35.4,9.7,65,29,88.6s29,53.1,29,88.6H460.9z"
		/>
	<path class="st4" d="M452.2,673.5c0-35.4-9.7-65-29-88.6c-19.4-23.6-29-53.1-29-88.6h-5.9c0,35.4,9.7,65,29,88.6
		c19.4,23.6,29,53.1,29,88.6H452.2z"/>
	<path class="st5" d="M270.2,673.5c0-35.4,23.6-65,70.8-88.6s70.8-53.1,70.8-88.6h-4.6c0,35.4-23.8,65-71.3,88.6
		s-71.3,53.1-71.3,88.6H270.2z"/>
	<path class="st5" d="M352.6,673.5c0-35.4,17.8-65,53.5-88.6s53.5-53.1,53.5-88.6h-6.4c0,35.4-18.3,65-54.8,88.6
		s-54.8,53.1-54.8,88.6H352.6z"/>
	<path class="st5" d="M341.6,673.5c0-35.4,18.2-65,54.6-88.6s54.6-53.1,54.6-88.6h-4.1c0,35.4-18.3,65-55,88.6
		c-36.6,23.6-55,53.1-55,88.6H341.6z"/>
	<path class="st4" d="M450.7,673.5c0-35.4,0-65,0-88.6s0-53.1,0-88.6h-38.9c0,35.4-2.3,65-6.9,88.6S398,638,398,673.5H450.7z"/>
	<path class="st4" d="M461.5,673.5c0-35.4-0.2-65-0.5-88.6s-0.5-53.1-0.5-88.6h-9.2c0,35.4,0,65,0,88.6s0,53.1,0,88.6H461.5z"/>
	<path class="st4" d="M373.4,673.5c0-35.4,16.5-65,49.4-88.6s49.4-53.1,49.4-88.6H465c0,35.4-16.1,65-48.3,88.6
		s-48.3,53.1-48.3,88.6H373.4z"/>
	<path class="st7" d="M498.6,673.5c0-35.4,4.6-65,13.7-88.6c9.2-23.6,13.7-53.1,13.7-88.6h-9c0,35.4-4.6,65-13.8,88.6
		s-13.8,53.1-13.8,88.6H498.6z"/>
	<path class="st7" d="M465.2,673.5c0-35.4,11.5-65,34.4-88.6s34.4-53.1,34.4-88.6h-4.2c0,35.4-9.9,65-29.6,88.6
		c-19.8,23.6-29.6,53.1-29.6,88.6H465.2z"/>
	<path class="st6" d="M594.8,673.5c0-35.4-15.4-65-46.2-88.6s-46.2-53.1-46.2-88.6h-29.5c0,35.4,14.7,65,44.2,88.6
		s44.2,53.1,44.2,88.6H594.8z"/>
	<path class="st6" d="M561.3,673.5c0-35.4-14.8-65-44.5-88.6s-44.5-53.1-44.5-88.6h-6.6c0,35.4,14.7,65,44.1,88.6
		c29.4,23.6,44.1,53.1,44.1,88.6H561.3z"/>
	<path class="st5" d="M295.1,673.5c0-35.4,41.9-65,125.7-88.6s125.7-53.1,125.7-88.6h-3.6c0,35.4-40.4,65-121.2,88.6
		S300.5,638,300.5,673.5H295.1z"/>
	<path class="st5" d="M309.7,673.5c0-35.4,40.5-65,121.4-88.6s121.4-53.1,121.4-88.6h-4.7c0,35.4-38.8,65-116.4,88.6
		S315,638,315,673.5H309.7z"/>
	<path class="st7" d="M515.1,673.5c0-35.4,8.7-65,26.2-88.6s26.2-53.1,26.2-88.6h-24.9c0,35.4,0.1,65,0.2,88.6
		c0.1,23.6,0.2,53.1,0.2,88.6H515.1z"/>
	<path class="st7" d="M498.8,673.5c0-35.4,14.7-65,44-88.6s44-53.1,44-88.6h-19.2c0,35.4-8.8,65-26.5,88.6
		c-17.6,23.6-26.5,53.1-26.5,88.6H498.8z"/>
	<path class="st6" d="M627.7,673.5c0-35.4-2.5-65-7.5-88.6s-7.5-53.1-7.5-88.6h-13.4c0,35.4,2.9,65,8.7,88.6s8.7,53.1,8.7,88.6
		H627.7z"/>
	<path class="st6" d="M639.3,673.5c0-35.4-11-65-33.1-88.6s-33.1-53.1-33.1-88.6h-6c0,35.4,10.8,65,32.5,88.6s32.5,53.1,32.5,88.6
		H639.3z"/>
	<path class="st6" d="M616.4,673.5c0-35.4-2.8-65-8.5-88.6s-8.5-53.1-8.5-88.6h-5.5c0,35.4,1.4,65,4.1,88.6
		c2.7,23.6,4.1,53.1,4.1,88.6H616.4z"/>
	<path class="st7" d="M514.6,673.5c0-35.4,18.2-65,54.7-88.6c36.4-23.6,54.7-53.1,54.7-88.6h-7.1c0,35.4-18.1,65-54.2,88.6
		c-36.1,23.6-54.2,53.1-54.2,88.6H514.6z"/>
	<path class="st6" d="M670.5,673.5c0-35.4,0.1-65,0.2-88.6c0.1-23.6,0.2-53.1,0.2-88.6h-34.6c0,35.4,0.5,65,1.4,88.6
		s1.4,53.1,1.4,88.6H670.5z"/>
	<path class="st6" d="M627.7,673.5c0-35.4,0.9-65,2.6-88.6c1.7-23.6,2.6-53.1,2.6-88.6h-16.3c0,35.4,3.7,65,11.1,88.6
		c7.4,23.6,11.1,53.1,11.1,88.6H627.7z"/>
	<path class="st8" d="M124,689.2v-13.7c0-1.1,0.9-2,2-2h132.6c1.1,0,2,0.9,2,2v13.7c0,1.1-0.9,2-2,2H126
		C124.9,691.2,124,690.3,124,689.2z"/>
	<path class="st8" d="M264.2,689.2v-13.7c0-1.1,0.9-2,2-2h84.5c1.1,0,2,0.9,2,2v13.7c0,1.1-0.9,2-2,2h-84.5
		C265.1,691.2,264.2,690.3,264.2,689.2z"/>
	<path class="st8" d="M356.2,689.2v-13.7c0-1.1,0.9-2,2-2h101.3c1.1,0,2,0.9,2,2v13.7c0,1.1-0.9,2-2,2H358.2
		C357.1,691.2,356.2,690.3,356.2,689.2z"/>
	<path class="st8" d="M465.1,689.2v-13.7c0-1.1,0.9-2,2-2h79.5c1.1,0,2,0.9,2,2v13.7c0,1.1-0.9,2-2,2h-79.5
		C466,691.2,465.1,690.3,465.1,689.2z"/>
	<path class="st8" d="M552.1,689.2v-13.7c0-1.1,0.9-2,2-2h117.1c1.1,0,2,0.9,2,2v13.7c0,1.1-0.9,2-2,2H554.1
		C553,691.2,552.1,690.3,552.1,689.2z"/>
	<path class="st8" d="M124,494.3v-13.7c0-1.1,0.9-2,2-2h76.7c1.1,0,2,0.9,2,2v13.7c0,1.1-0.9,2-2,2H126
		C124.9,496.3,124,495.4,124,494.3z"/>
	<path class="st8" d="M208.3,494.3v-13.7c0-1.1,0.9-2,2-2H265c1.1,0,2,0.9,2,2v13.7c0,1.1-0.9,2-2,2h-54.7
		C209.2,496.3,208.3,495.4,208.3,494.3z"/>
	<path class="st8" d="M270.6,494.3v-13.7c0-1.1,0.9-2,2-2H336c1.1,0,2,0.9,2,2v13.7c0,1.1-0.9,2-2,2h-63.5
		C271.5,496.3,270.6,495.4,270.6,494.3z"/>
	<path class="st8" d="M341.6,494.3v-13.7c0-1.1,0.9-2,2-2h57.9c1.1,0,2,0.9,2,2v13.7c0,1.1-0.9,2-2,2h-57.9
		C342.5,496.3,341.6,495.4,341.6,494.3z"/>
	<path class="st8" d="M407,494.3v-13.7c0-1.1,0.9-2,2-2h49.5c1.1,0,2,0.9,2,2v13.7c0,1.1-0.9,2-2,2H409
		C407.9,496.3,407,495.4,407,494.3z"/>
	<path class="st8" d="M464.1,494.3v-13.7c0-1.1,0.9-2,2-2h66c1.1,0,2,0.9,2,2v13.7c0,1.1-0.9,2-2,2h-66
		C465,496.3,464.1,495.4,464.1,494.3z"/>
	<path class="st8" d="M537.6,494.3v-13.7c0-1.1,0.9-2,2-2h71.5c1.1,0,2,0.9,2,2v13.7c0,1.1-0.9,2-2,2h-71.5
		C538.5,496.3,537.6,495.4,537.6,494.3z"/>
	<path class="st8" d="M616.6,494.3v-13.7c0-1.1,0.9-2,2-2h52.6c1.1,0,2,0.9,2,2v13.7c0,1.1-0.9,2-2,2h-52.6
		C617.5,496.3,616.6,495.4,616.6,494.3z"/>
	<path class="st9" d="M124,686.2v-7.7c0-1.1,0.9-2,2-2h132.6c1.1,0,2,0.9,2,2v7.7c0,1.1-0.9,2-2,2H126
		C124.9,688.2,124,687.3,124,686.2z"/>
	<path class="st9" d="M264.2,686.2v-7.7c0-1.1,0.9-2,2-2h84.5c1.1,0,2,0.9,2,2v7.7c0,1.1-0.9,2-2,2h-84.5
		C265.1,688.2,264.2,687.3,264.2,686.2z"/>
	<path class="st9" d="M356.2,686.2v-7.7c0-1.1,0.9-2,2-2h101.3c1.1,0,2,0.9,2,2v7.7c0,1.1-0.9,2-2,2H358.2
		C357.1,688.2,356.2,687.3,356.2,686.2z"/>
	<path class="st9" d="M465.1,686.2v-7.7c0-1.1,0.9-2,2-2h79.5c1.1,0,2,0.9,2,2v7.7c0,1.1-0.9,2-2,2h-79.5
		C466,688.2,465.1,687.3,465.1,686.2z"/>
	<path class="st9" d="M552.1,686.2v-7.7c0-1.1,0.9-2,2-2h117.1c1.1,0,2,0.9,2,2v7.7c0,1.1-0.9,2-2,2H554.1
		C553,688.2,552.1,687.3,552.1,686.2z"/>
	<path class="st10" d="M124,491.3v-7.7c0-1.1,0.9-2,2-2h76.7c1.1,0,2,0.9,2,2v7.7c0,1.1-0.9,2-2,2H126
		C124.9,493.3,124,492.4,124,491.3z"/>
	<path class="st10" d="M208.3,491.3v-7.7c0-1.1,0.9-2,2-2H265c1.1,0,2,0.9,2,2v7.7c0,1.1-0.9,2-2,2h-54.7
		C209.2,493.3,208.3,492.4,208.3,491.3z"/>
	<path class="st10" d="M270.6,491.3v-7.7c0-1.1,0.9-2,2-2H336c1.1,0,2,0.9,2,2v7.7c0,1.1-0.9,2-2,2h-63.5
		C271.5,493.3,270.6,492.4,270.6,491.3z"/>
	<path class="st10" d="M341.6,491.3v-7.7c0-1.1,0.9-2,2-2h57.9c1.1,0,2,0.9,2,2v7.7c0,1.1-0.9,2-2,2h-57.9
		C342.5,493.3,341.6,492.4,341.6,491.3z"/>
	<path class="st10" d="M407,491.3v-7.7c0-1.1,0.9-2,2-2h49.5c1.1,0,2,0.9,2,2v7.7c0,1.1-0.9,2-2,2H409
		C407.9,493.3,407,492.4,407,491.3z"/>
	<path class="st10" d="M464.1,491.3v-7.7c0-1.1,0.9-2,2-2h66c1.1,0,2,0.9,2,2v7.7c0,1.1-0.9,2-2,2h-66
		C465,493.3,464.1,492.4,464.1,491.3z"/>
	<path class="st10" d="M537.6,491.3v-7.7c0-1.1,0.9-2,2-2h71.5c1.1,0,2,0.9,2,2v7.7c0,1.1-0.9,2-2,2h-71.5
		C538.5,493.3,537.6,492.4,537.6,491.3z"/>
	<path class="st10" d="M616.6,491.3v-7.7c0-1.1,0.9-2,2-2h52.6c1.1,0,2,0.9,2,2v7.7c0,1.1-0.9,2-2,2h-52.6
		C617.5,493.3,616.6,492.4,616.6,491.3z"/>
	<text transform="matrix(1 0 0 1 190.2351 686.726)" class="st1 st11">1</text>
	<text transform="matrix(1 0 0 1 306.3264 686.726)" class="st1 st11">2</text>
	<text transform="matrix(1 0 0 1 406.7727 686.726)" class="st1 st11">3</text>
	<text transform="matrix(1 0 0 1 504.7195 686.726)" class="st1 st11">4</text>
	<text transform="matrix(1 0 0 1 610.5601 686.726)" class="st1 st11">5</text>
</g>
<g>
	<text transform="matrix(1 0 0 1 70.8661 490.5306)" class="st12 st1 st2">arenosa</text>
	<path class="st13" d="M168.2,478.5c0-35.4-0.4-65-1.1-88.6c-0.7-23.6-1.1-53.1-1.1-88.6h-42c0,35.4,0,65,0,88.6s0,53.1,0,88.6
		H168.2z"/>
	<path class="st13" d="M204.6,478.5c0-35.4,1-65,3.1-88.6s3.1-53.1,3.1-88.6h-23.4c0,35.4-0.7,65-2.2,88.6S183,443,183,478.5H204.6z
		"/>
	<path class="st13" d="M155.1,478.5c0-35.4,19.7-65,59.2-88.6s59.2-53.1,59.2-88.6h-6.1c0,35.4-19.7,65-59.1,88.6
		s-59.1,53.1-59.1,88.6H155.1z"/>
	<path class="st13" d="M161.5,478.5c0-35.4,15.8-65,47.4-88.6s47.4-53.1,47.4-88.6h8.7c0,35.4-18.3,65-54.9,88.6
		s-54.9,53.1-54.9,88.6H161.5z"/>
	<path class="st13" d="M198.6,478.5c0-35.4,18.2-65,54.5-88.6s54.5-53.1,54.5-88.6h-6.1c0,35.4-18.4,65-55.3,88.6
		s-55.3,53.1-55.3,88.6H198.6z"/>
	<path class="st13" d="M204.5,478.5c0-35.4,15.1-65,45.4-88.6c30.2-23.6,45.4-53.1,45.4-88.6h5.4c0,35.4-17,65-51.1,88.6
		s-51.1,53.1-51.1,88.6H204.5z"/>
	<path class="st14" d="M263.2,478.5c0-35.4-18.3-65-55-88.6s-55-53.1-55-88.6h-7.4c0,35.4,18.1,65,54.3,88.6s54.3,53.1,54.3,88.6
		H263.2z"/>
	<path class="st14" d="M254.2,478.5c0-35.4-16.8-65-50.5-88.6s-50.5-53.1-50.5-88.6h6c0,35.4,14.4,65,43.1,88.6s43.1,53.1,43.1,88.6
		H254.2z"/>
	<path class="st14" d="M267,478.5c0-35.4,1.7-65,5-88.6c3.4-23.6,5-53.1,5-88.6h-30.6c0,35.4-1.6,65-4.8,88.6s-4.8,53.1-4.8,88.6
		H267z"/>
	<path class="st14" d="M220.8,478.5c0-35.4,1.2-65,3.5-88.6s3.5-53.1,3.5-88.6h-13.3c0,35.4-1,65-3.1,88.6s-3.1,53.1-3.1,88.6H220.8
		z"/>
	<path class="st14" d="M229.5,478.5c0-35.4,1.9-65,5.7-88.6s5.7-53.1,5.7-88.6h-11.5c0,35.4-1.2,65-3.6,88.6s-3.6,53.1-3.6,88.6
		H229.5z"/>
	<path class="st15" d="M292.9,478.5c0-35.4-14.7-65-44.2-88.6s-44.2-53.1-44.2-88.6h6.2c0,35.4,12.7,65,38,88.6s38,53.1,38,88.6
		H292.9z"/>
	<path class="st15" d="M307,478.5c0-35.4,1-65,3.1-88.6s3.1-53.1,3.1-88.6h-32.6c0,35.4-1.7,65-5,88.6s-5,53.1-5,88.6H307z"/>
	<path class="st15" d="M315.2,478.5c0-35.4,1.1-65,3.4-88.6s3.4-53.1,3.4-88.6h-8.5c0,35.4-1.1,65-3.3,88.6
		c-2.2,23.6-3.3,53.1-3.3,88.6H315.2z"/>
	<path class="st15" d="M334,478.5c0-35.4,0.9-65,2.7-88.6c1.8-23.6,2.7-53.1,2.7-88.6h-4.9c0,35.4-1,65-3,88.6s-3,53.1-3,88.6H334z"
		/>
	<path class="st15" d="M275,478.5c0-35.4,36.5-65,109.4-88.6s109.4-53.1,109.4-88.6h-5.1c0,35.4-36.4,65-109.1,88.6
		S270.5,443,270.5,478.5H275z"/>
	<path class="st15" d="M306.6,478.5c0-35.4,46.7-65,140.2-88.6S587,336.8,587,301.3h-3.9c0,35.4-46.8,65-140.3,88.6
		S302.5,443,302.5,478.5H306.6z"/>
	<path class="st15" d="M333.7,478.5c0-35.4,35.8-65,107.2-88.6c71.5-23.6,107.2-53.1,107.2-88.6h3c0,35.4-37,65-111,88.6
		s-111,53.1-111,88.6H333.7z"/>
	<path class="st16" d="M403.5,478.5c0-35.4,0.9-65,2.6-88.6s2.6-53.1,2.6-88.6h-31.1c0,35.4-1.2,65-3.7,88.6s-3.7,53.1-3.7,88.6
		H403.5z"/>
	<path class="st16" d="M356.8,478.5c0-35.4,1.3-65,4-88.6s4-53.1,4-88.6h-17.1c0,35.4-1,65-2.9,88.6s-2.9,53.1-2.9,88.6H356.8z"/>
	<path class="st16" d="M367.9,478.5c0-35.4,1.2-65,3.5-88.6c2.4-23.6,3.5-53.1,3.5-88.6h-6.6c0,35.4-1.5,65-4.5,88.6
		s-4.5,53.1-4.5,88.6H367.9z"/>
	<path class="st16" d="M403.5,478.5c0-35.4,10.8-65,32.3-88.6c21.6-23.6,32.3-53.1,32.3-88.6h-6.3c0,35.4-11.1,65-33.4,88.6
		S395,443,395,478.5H403.5z"/>
	<path class="st16" d="M394.1,478.5c0-35.4,11.1-65,33.4-88.6c22.2-23.6,33.4-53.1,33.4-88.6h-4.8c0,35.4-11.3,65-33.9,88.6
		s-33.9,53.1-33.9,88.6H394.1z"/>
	<path class="st16" d="M346.1,478.5c0-35.4,33.5-65,100.5-88.6s100.5-53.1,100.5-88.6h-3.6c0,35.4-33.6,65-100.8,88.6
		S341.9,443,341.9,478.5H346.1z"/>
	<path class="st16" d="M352.7,478.5c0-35.4,33.6-65,100.8-88.6s100.8-53.1,100.8-88.6h3c0,35.4-35,65-105,88.6s-105,53.1-105,88.6
		H352.7z"/>
	<path class="st17" d="M459.7,478.5c0-35.4-8.5-65-25.5-88.6s-25.5-53.1-25.5-88.6h-5.5c0,35.4,8.7,65,26.1,88.6
		s26.1,53.1,26.1,88.6H459.7z"/>
	<path class="st17" d="M450.6,478.5c0-35.4,1.5-65,4.5-88.6s4.5-53.1,4.5-88.6h-9.2c0,35.4-1.7,65-5,88.6s-5,53.1-5,88.6H450.6z"/>
	<path class="st17" d="M460.5,478.5c0-35.4,1.4-65,4.1-88.6s4.1-53.1,4.1-88.6H460c0,35.4-1.5,65-4.4,88.6s-4.4,53.1-4.4,88.6H460.5
		z"/>
	<path class="st17" d="M423.4,478.5c0-35.4,1.2-65,3.6-88.6s3.6-53.1,3.6-88.6h-18.3c0,35.4-0.9,65-2.6,88.6s-2.6,53.1-2.6,88.6
		H423.4z"/>
	<path class="st17" d="M440.4,478.5c0-35.4,1.6-65,4.9-88.6c3.2-23.6,4.9-53.1,4.9-88.6h-16c0,35.4-1.4,65-4.1,88.6
		c-2.8,23.6-4.1,53.1-4.1,88.6H440.4z"/>
	<path class="st18" d="M488.6,478.5c0-35.4-34-65-101.9-88.6s-101.9-53.1-101.9-88.6h-4.1c0,35.4,33.6,65,100.9,88.6
		s100.9,53.1,100.9,88.6H488.6z"/>
	<path class="st18" d="M472.3,478.5c0-35.4-29.7-65-89-88.6s-89-53.1-89-88.6h-3.7c0,35.4,29.1,65,87.3,88.6s87.3,53.1,87.3,88.6
		H472.3z"/>
	<path class="st18" d="M499.9,478.5c0-35.4,1.1-65,3.2-88.6s3.2-53.1,3.2-88.6h-26.4c0,35.4-1.2,65-3.5,88.6s-3.5,53.1-3.5,88.6
		H499.9z"/>
	<path class="st18" d="M472.3,478.5c0-35.4,1.3-65,3.8-88.6s3.8-53.1,3.8-88.6h-7.5c0,35.4-1.4,65-4.1,88.6s-4.1,53.1-4.1,88.6
		H472.3z"/>
	<path class="st18" d="M528.6,478.5c0-35.4,0.8-65,2.4-88.6c1.6-23.6,2.4-53.1,2.4-88.6H520c0,35.4-0.5,65-1.5,88.6
		S517,443,517,478.5H528.6z"/>
	<path class="st18" d="M534.1,478.5c0-35.4,0.9-65,2.8-88.6c1.8-23.6,2.8-53.1,2.8-88.6h-4.9c0,35.4-0.8,65-2.5,88.6
		s-2.5,53.1-2.5,88.6H534.1z"/>
	<path class="st18" d="M506.5,478.5c0-35.4,1.1-65,3.4-88.6c2.3-23.6,3.4-53.1,3.4-88.6h-6.7c0,35.4-1.1,65-3.4,88.6
		c-2.2,23.6-3.4,53.1-3.4,88.6H506.5z"/>
	<path class="st18" d="M528.1,478.5c0-35.4,7.1-65,21.4-88.6c14.3-23.6,21.4-53.1,21.4-88.6h-5.2c0,35.4-7.2,65-21.7,88.6
		s-21.7,53.1-21.7,88.6H528.1z"/>
	<path class="st19" d="M605.9,478.5c0-35.4-58.3-65-175-88.6s-175-53.1-175-88.6h-4.5c0,35.4,58.4,65,175.3,88.6
		S602,443.1,602,478.5H605.9z"/>
	<path class="st19" d="M582.3,478.5c0-35.4-44.8-65-134.5-88.6s-134.5-53.1-134.5-88.6h-4.5c0,35.4,44.8,65,134.5,88.6
		s134.5,53.1,134.5,88.6H582.3z"/>
	<path class="st19" d="M578.2,478.5c0-35.4,0.6-65,1.7-88.6c1.1-23.6,1.7-53.1,1.7-88.6h-38.4c0,35.4-0.9,65-2.8,88.6
		c-1.9,23.6-2.8,53.1-2.8,88.6H578.2z"/>
	<path class="st19" d="M603.5,478.5c0-35.4-1.1-65-3.2-88.6c-2.1-23.6-3.2-53.1-3.2-88.6h-9c0,35.4,0.9,65,2.7,88.6
		s2.7,53.1,2.7,88.6H603.5z"/>
	<path class="st19" d="M582.3,478.5c0-35.4,0.9-65,2.7-88.6s2.7-53.1,2.7-88.6h-5.2c0,35.4-0.7,65-2.2,88.6
		c-1.4,23.6-2.2,53.1-2.2,88.6H582.3z"/>
	<path class="st19" d="M612.9,478.5c0-35.4-2.6-65-7.7-88.6c-5.1-23.6-7.7-53.1-7.7-88.6H609c0,35.4-1,65-2.9,88.6
		s-2.9,53.1-2.9,88.6H612.9z"/>
	<path class="st19" d="M573.1,478.5c0-35.4,6.7-65,20-88.6s20-53.1,20-88.6h5.6c0,35.4-8.3,65-25,88.6c-16.6,23.6-25,53.1-25,88.6
		H573.1z"/>
	<path class="st20" d="M622.4,478.5c0-35.4-8.3-65-24.9-88.6c-16.6-23.6-24.9-53.1-24.9-88.6h4.2c0,35.4,6.7,65,20,88.6
		s20,53.1,20,88.6H622.4z"/>
	<path class="st20" d="M673.2,478.5c0-35.4,0-65,0-88.6s0-53.1,0-88.6H631c0,35.4,0,65,0,88.6s0,53.1,0,88.6H673.2z"/>
	<path class="st20" d="M631.4,478.5c0-35.4-0.1-65-0.2-88.6c-0.2-23.6-0.2-53.1-0.2-88.6h-11.8c0,35.4,0.5,65,1.4,88.6
		c1,23.6,1.4,53.1,1.4,88.6H631.4z"/>
	<path class="st20" d="M622.3,478.5c0-35.4-0.6-65-1.8-88.6s-1.8-53.1-1.8-88.6h-5.8c0,35.4,0.6,65,1.9,88.6s1.9,53.1,1.9,88.6
		H622.3z"/>
	<path class="st8" d="M124,494.2v-13.7c0-1.1,0.9-2,2-2h76.7c1.1,0,2,0.9,2,2v13.7c0,1.1-0.9,2-2,2H126
		C124.9,496.2,124,495.4,124,494.2z"/>
	<path class="st8" d="M208.3,494.2v-13.7c0-1.1,0.9-2,2-2H265c1.1,0,2,0.9,2,2v13.7c0,1.1-0.9,2-2,2h-54.7
		C209.2,496.2,208.3,495.4,208.3,494.2z"/>
	<path class="st8" d="M270.6,494.2v-13.7c0-1.1,0.9-2,2-2H336c1.1,0,2,0.9,2,2v13.7c0,1.1-0.9,2-2,2h-63.5
		C271.5,496.2,270.6,495.4,270.6,494.2z"/>
	<path class="st8" d="M341.6,494.2v-13.7c0-1.1,0.9-2,2-2h57.9c1.1,0,2,0.9,2,2v13.7c0,1.1-0.9,2-2,2h-57.9
		C342.5,496.2,341.6,495.4,341.6,494.2z"/>
	<path class="st8" d="M407,494.2v-13.7c0-1.1,0.9-2,2-2h49.5c1.1,0,2,0.9,2,2v13.7c0,1.1-0.9,2-2,2H409
		C407.9,496.2,407,495.4,407,494.2z"/>
	<path class="st8" d="M464.1,494.2v-13.7c0-1.1,0.9-2,2-2h66c1.1,0,2,0.9,2,2v13.7c0,1.1-0.9,2-2,2h-66
		C465,496.2,464.1,495.4,464.1,494.2z"/>
	<path class="st8" d="M537.6,494.2v-13.7c0-1.1,0.9-2,2-2h71.5c1.1,0,2,0.9,2,2v13.7c0,1.1-0.9,2-2,2h-71.5
		C538.5,496.2,537.6,495.4,537.6,494.2z"/>
	<path class="st8" d="M616.6,494.2v-13.7c0-1.1,0.9-2,2-2h52.6c1.1,0,2,0.9,2,2v13.7c0,1.1-0.9,2-2,2h-52.6
		C617.5,496.2,616.6,495.4,616.6,494.2z"/>
	<path class="st8" d="M124,299.4v-13.7c0-1.1,0.9-2,2-2h82.9c1.1,0,2,0.9,2,2v13.7c0,1.1-0.9,2-2,2H126
		C124.9,301.4,124,300.5,124,299.4z"/>
	<path class="st8" d="M214.5,299.4v-13.7c0-1.1,0.9-2,2-2h58.6c1.1,0,2,0.9,2,2v13.7c0,1.1-0.9,2-2,2h-58.6
		C215.4,301.4,214.5,300.5,214.5,299.4z"/>
	<path class="st8" d="M280.6,299.4v-13.7c0-1.1,0.9-2,2-2h59.5c1.1,0,2,0.9,2,2v13.7c0,1.1-0.9,2-2,2h-59.5
		C281.5,301.4,280.6,300.5,280.6,299.4z"/>
	<path class="st8" d="M347.6,299.4v-13.7c0-1.1,0.9-2,2-2h57c1.1,0,2,0.9,2,2v13.7c0,1.1-0.9,2-2,2h-57
		C348.5,301.4,347.6,300.5,347.6,299.4z"/>
	<path class="st8" d="M412.2,299.4v-13.7c0-1.1,0.9-2,2-2h52.5c1.1,0,2,0.9,2,2v13.7c0,1.1-0.9,2-2,2h-52.5
		C413.1,301.4,412.2,300.5,412.2,299.4z"/>
	<path class="st8" d="M472.3,299.4v-13.7c0-1.1,0.9-2,2-2h63.4c1.1,0,2,0.9,2,2v13.7c0,1.1-0.9,2-2,2h-63.4
		C473.2,301.4,472.3,300.5,472.3,299.4z"/>
	<path class="st8" d="M543.2,299.4v-13.7c0-1.1,0.9-2,2-2h62c1.1,0,2,0.9,2,2v13.7c0,1.1-0.9,2-2,2h-62
		C544.1,301.4,543.2,300.5,543.2,299.4z"/>
	<path class="st8" d="M612.8,299.4v-13.7c0-1.1,0.9-2,2-2h56.5c1.1,0,2,0.9,2,2v13.7c0,1.1-0.9,2-2,2h-56.5
		C613.7,301.4,612.8,300.5,612.8,299.4z"/>
	<path class="st10" d="M124,491.2v-7.7c0-1.1,0.9-2,2-2h76.7c1.1,0,2,0.9,2,2v7.7c0,1.1-0.9,2-2,2H126
		C124.9,493.2,124,492.4,124,491.2z"/>
	<path class="st10" d="M208.3,491.2v-7.7c0-1.1,0.9-2,2-2H265c1.1,0,2,0.9,2,2v7.7c0,1.1-0.9,2-2,2h-54.7
		C209.2,493.2,208.3,492.4,208.3,491.2z"/>
	<path class="st10" d="M270.6,491.2v-7.7c0-1.1,0.9-2,2-2H336c1.1,0,2,0.9,2,2v7.7c0,1.1-0.9,2-2,2h-63.5
		C271.5,493.2,270.6,492.4,270.6,491.2z"/>
	<path class="st10" d="M341.6,491.2v-7.7c0-1.1,0.9-2,2-2h57.9c1.1,0,2,0.9,2,2v7.7c0,1.1-0.9,2-2,2h-57.9
		C342.5,493.2,341.6,492.4,341.6,491.2z"/>
	<path class="st10" d="M407,491.2v-7.7c0-1.1,0.9-2,2-2h49.5c1.1,0,2,0.9,2,2v7.7c0,1.1-0.9,2-2,2H409
		C407.9,493.2,407,492.4,407,491.2z"/>
	<path class="st10" d="M464.1,491.2v-7.7c0-1.1,0.9-2,2-2h66c1.1,0,2,0.9,2,2v7.7c0,1.1-0.9,2-2,2h-66
		C465,493.2,464.1,492.4,464.1,491.2z"/>
	<path class="st10" d="M537.6,491.2v-7.7c0-1.1,0.9-2,2-2h71.5c1.1,0,2,0.9,2,2v7.7c0,1.1-0.9,2-2,2h-71.5
		C538.5,493.2,537.6,492.4,537.6,491.2z"/>
	<path class="st10" d="M616.6,491.2v-7.7c0-1.1,0.9-2,2-2h52.6c1.1,0,2,0.9,2,2v7.7c0,1.1-0.9,2-2,2h-52.6
		C617.5,493.2,616.6,492.4,616.6,491.2z"/>
	<path class="st17" d="M124,296.4v-7.7c0-1.1,0.9-2,2-2h82.9c1.1,0,2,0.9,2,2v7.7c0,1.1-0.9,2-2,2H126
		C124.9,298.4,124,297.5,124,296.4z"/>
	<path class="st17" d="M214.5,296.4v-7.7c0-1.1,0.9-2,2-2h58.6c1.1,0,2,0.9,2,2v7.7c0,1.1-0.9,2-2,2h-58.6
		C215.4,298.4,214.5,297.5,214.5,296.4z"/>
	<path class="st17" d="M280.6,296.4v-7.7c0-1.1,0.9-2,2-2h59.5c1.1,0,2,0.9,2,2v7.7c0,1.1-0.9,2-2,2h-59.5
		C281.5,298.4,280.6,297.5,280.6,296.4z"/>
	<path class="st17" d="M347.6,296.4v-7.7c0-1.1,0.9-2,2-2h57c1.1,0,2,0.9,2,2v7.7c0,1.1-0.9,2-2,2h-57
		C348.5,298.4,347.6,297.5,347.6,296.4z"/>
	<path class="st17" d="M412.2,296.4v-7.7c0-1.1,0.9-2,2-2h52.5c1.1,0,2,0.9,2,2v7.7c0,1.1-0.9,2-2,2h-52.5
		C413.1,298.4,412.2,297.5,412.2,296.4z"/>
	<path class="st17" d="M472.3,296.4v-7.7c0-1.1,0.9-2,2-2h63.4c1.1,0,2,0.9,2,2v7.7c0,1.1-0.9,2-2,2h-63.4
		C473.2,298.4,472.3,297.5,472.3,296.4z"/>
	<path class="st17" d="M543.2,296.4v-7.7c0-1.1,0.9-2,2-2h62c1.1,0,2,0.9,2,2v7.7c0,1.1-0.9,2-2,2h-62
		C544.1,298.4,543.2,297.5,543.2,296.4z"/>
	<path class="st17" d="M612.8,296.4v-7.7c0-1.1,0.9-2,2-2h56.5c1.1,0,2,0.9,2,2v7.7c0,1.1-0.9,2-2,2h-56.5
		C613.7,298.4,612.8,297.5,612.8,296.4z"/>
	<text transform="matrix(1 0 0 1 162.2901 490.7904)" class="st1 st11">1</text>
	<text transform="matrix(1 0 0 1 235.564 490.7904)" class="st1 st11">2</text>
	<text transform="matrix(1 0 0 1 302.1956 490.7904)" class="st1 st11">3</text>
	<text transform="matrix(1 0 0 1 370.438 490.7904)" class="st1 st11">4</text>
	<text transform="matrix(1 0 0 1 431.6875 490.7904)" class="st1 st11">5</text>
	<text transform="matrix(1 0 0 1 496.9722 490.7904)" class="st1 st11">6</text>
	<text transform="matrix(1 0 0 1 573.2607 490.7904)" class="st1 st11">7</text>
	<text transform="matrix(1 0 0 1 642.8378 490.7904)" class="st1 st11">8</text>
</g>
<g>
	<text transform="matrix(1 0 0 1 70.8661 103.2992)" class="st21 st1 st2">lyrata</text>
	<text transform="matrix(1 0 0 1 70.8661 298.1811)" class="st22 st1 st2">petraea</text>
	<text transform="matrix(1 0 0 1 166.6547 85.0394)" class="st1 st11">1</text>
	<text transform="matrix(1 0 0 1 241.0259 85.0394)" class="st1 st11">2</text>
	<text transform="matrix(1 0 0 1 303.6927 85.0394)" class="st1 st11">3</text>
	<text transform="matrix(1 0 0 1 371.7708 85.0394)" class="st1 st11">4</text>
	<text transform="matrix(1 0 0 1 435.4705 85.0394)" class="st1 st11">5</text>
	<text transform="matrix(1 0 0 1 501.5807 85.0394)" class="st1 st11">6</text>
	<text transform="matrix(1 0 0 1 572.3188 85.0394)" class="st1 st11">7</text>
	<text transform="matrix(1 0 0 1 640.1371 85.0394)" class="st1 st11">8</text>
	<path class="st20" d="M611.5,106.3c0,35.4-5.8,65-17.4,88.6s-17.4,53.1-17.4,88.6h-4.2c0-35.4,7.7-65,23.1-88.6
		c15.4-23.6,23.1-53.1,23.1-88.6C618.7,106.3,611.5,106.3,611.5,106.3z"/>
	<path class="st20" d="M628.7,106.3c0,35.4,0.4,65,1.2,88.6s1.2,53.1,1.2,88.6h42.2c0-35.4,0-65,0-88.6s0-53.1,0-88.6
		C673.3,106.3,628.7,106.3,628.7,106.3z"/>
	<path class="st20" d="M617.9,106.3c0,35.4,0.2,65,0.6,88.6s0.6,53.1,0.6,88.6H631c0-35.4-0.3-65-0.9-88.6s-0.9-53.1-0.9-88.6
		C629.2,106.3,617.9,106.3,617.9,106.3z"/>
	<path class="st20" d="M611.3,106.3c0,35.4,0.3,65,0.8,88.6s0.8,53.1,0.8,88.6h5.9c0-35.4,0-65-0.1-88.6s-0.1-53.1-0.1-88.6
		C618.6,106.3,611.3,106.3,611.3,106.3z"/>
	<path class="st19" d="M576.9,106.3c0,35.4-44.7,65-134.1,88.6s-134,53.1-134,88.6h4.5c0-35.4,44.7-65,134.1-88.6
		s134.1-53.1,134.1-88.6C581.5,106.3,576.9,106.3,576.9,106.3z"/>
	<path class="st19" d="M542.7,106.3c0,35.4-32.2,65-96.7,88.6s-96.7,53.1-96.7,88.6h3.8c0-35.4,32.1-65,96.3-88.6
		s96.3-53.1,96.3-88.6C545.7,106.3,542.7,106.3,542.7,106.3z"/>
	<path class="st19" d="M541.1,106.3c0,35.4,0.3,65,1,88.6s1,53.1,1,88.6h38.4c0-35.4-0.7-65-2.2-88.6s-2.2-53.1-2.2-88.6
		C577.1,106.3,541.1,106.3,541.1,106.3z"/>
	<path class="st19" d="M599.7,106.3c0,35.4,0.1,65,0.2,88.6s0.2,53.1,0.2,88.6h8.9c0-35.4-0.2-65-0.7-88.6s-0.7-53.1-0.7-88.6
		C607.6,106.3,599.7,106.3,599.7,106.3z"/>
	<path class="st19" d="M588.9,106.3c0,35.4-0.1,65-0.3,88.6s-0.3,53.1-0.3,88.6h11.6c0-35.4,0-65-0.1-88.6s-0.1-53.1-0.1-88.6
		C599.7,106.3,588.9,106.3,588.9,106.3z"/>
	<path class="st19" d="M576.9,106.3c0,35.4,0.9,65,2.8,88.6c1.9,23.6,2.8,53.1,2.8,88.6h5.5c0-35.4-1-65-3-88.6s-3-53.1-3-88.6
		C582,106.3,576.9,106.3,576.9,106.3z"/>
	<path class="st19" d="M568.2,106.3c0,35.4,8.4,65,25.2,88.6s25.2,53.1,25.2,88.6H613c0-35.4-6.8-65-20.3-88.6s-20.3-53.1-20.3-88.6
		C572.4,106.3,568.2,106.3,568.2,106.3z"/>
	<path class="st18" d="M485.1,106.3c0,35.4-34.1,65-102.2,88.6S280.7,248,280.7,283.5h4.1c0-35.4,34.3-65,102.9-88.6
		s102.9-53.1,102.9-88.6C490.6,106.3,485.1,106.3,485.1,106.3z"/>
	<path class="st18" d="M473.1,106.3c0,35.4-30.2,65-90.6,88.6s-90.6,53.1-90.6,88.6h3c0-35.4,30.4-65,91.1-88.6s91.1-53.1,91.1-88.6
		C477.1,106.3,473.1,106.3,473.1,106.3z"/>
	<path class="st18" d="M469.8,106.3c0,35.4,0.4,65,1.3,88.6s1.3,53.1,1.3,88.6h33.9c0-35.4-0.8-65-2.5-88.6s-2.5-53.1-2.5-88.6
		C501.3,106.3,469.8,106.3,469.8,106.3z"/>
	<path class="st18" d="M521.5,106.3c0,35.4,0.1,65,0.3,88.6s0.3,53.1,0.3,88.6h17.6c0-35.4-0.3-65-1-88.6s-1-53.1-1-88.6
		C537.7,106.3,521.5,106.3,521.5,106.3z"/>
	<path class="st18" d="M500.9,106.3c0,35.4,0.9,65,2.8,88.6s2.8,53.1,2.8,88.6h11.7c0-35.4-0.1-65-0.3-88.6s-0.3-53.1-0.3-88.6
		C517.6,106.3,500.9,106.3,500.9,106.3z"/>
	<path class="st18" d="M525.2,106.3c0,35.4,6.7,65,20.2,88.6s20.2,53.1,20.2,88.6h5.2c0-35.4-6.5-65-19.6-88.6s-19.6-53.1-19.6-88.6
		C531.6,106.3,525.2,106.3,525.2,106.3z"/>
	<path class="st17" d="M461.7,106.3c0,35.4-9.8,65-29.3,88.6s-29.3,53.1-29.3,88.6h5.5c0-35.4,9.5-65,28.6-88.6s28.6-53.1,28.6-88.6
		C465.8,106.3,461.7,106.3,461.7,106.3z"/>
	<path class="st17" d="M426,106.3c0,35.4-10.1,65-30.3,88.6s-30.3,53.1-30.3,88.6h3.6c0-35.4,10.9-65,32.7-88.6s32.7-53.1,32.7-88.6
		C434.4,106.3,426,106.3,426,106.3z"/>
	<path class="st17" d="M449.1,106.3c0,35.4,0.2,65,0.7,88.6s0.7,53.1,0.7,88.6h18.3c0-35.4-0.4-65-1.2-88.6
		c-0.8-23.6-1.2-53.1-1.2-88.6C466.4,106.3,449.1,106.3,449.1,106.3z"/>
	<path class="st17" d="M434.2,106.3c0,35.4,0,65,0,88.6s0,53.1,0,88.6h15.9c0-35.4-0.2-65-0.5-88.6s-0.5-53.1-0.5-88.6
		C449.1,106.3,434.2,106.3,434.2,106.3z"/>
	<path class="st17" d="M412.9,106.3c0,35.4,0.5,65,1.4,88.6s1.4,53.1,1.4,88.6h15.6c0-35.4-0.7-65-2-88.6s-2-53.1-2-88.6
		C427.3,106.3,412.9,106.3,412.9,106.3z"/>
	<path class="st16" d="M368.5,106.3c0,35.4,0,65,0.1,88.6s0.1,53.1,0.1,88.6h40c0-35.4-0.5-65-1.6-88.6s-1.6-53.1-1.6-88.6
		C405.5,106.3,368.5,106.3,368.5,106.3z"/>
	<path class="st16" d="M342.6,106.3c0,35.4,0.8,65,2.5,88.6s2.5,53.1,2.5,88.6H367c0-35.4-0.9-65-2.7-88.6s-2.7-53.1-2.7-88.6
		C361.6,106.3,342.6,106.3,342.6,106.3z"/>
	<path class="st16" d="M398.1,106.3c0,35.4,10.5,65,31.5,88.6s31.5,53.1,31.5,88.6h7.1c0-35.4-10.5-65-31.4-88.6
		s-31.4-53.1-31.4-88.6C405.4,106.3,398.1,106.3,398.1,106.3z"/>
	<path class="st16" d="M393,106.3c0,35.4,10.5,65,31.6,88.6c21,23.6,31.6,53.1,31.6,88.6h4.5c0-35.4-10.5-65-31.4-88.6
		s-31.4-53.1-31.4-88.6C397.9,106.3,393,106.3,393,106.3z"/>
	<path class="st16" d="M348.1,106.3c0,35.4,34.9,65,104.6,88.6s104.6,53.1,104.6,88.6h-3.8c0-35.4-32.6-65-97.9-88.6
		s-97.9-53.1-97.9-88.6C357.7,106.3,348.1,106.3,348.1,106.3z"/>
	<path class="st15" d="M286.5,106.3c0,35.4-12.6,65-37.9,88.6s-37.9,53.1-37.9,88.6h-6.2c0-35.4,14.5-65,43.6-88.6
		c29-23.6,43.6-53.1,43.6-88.6C291.7,106.3,286.5,106.3,286.5,106.3z"/>
	<path class="st15" d="M272.8,106.3c0,35.4,1.3,65,3.9,88.6s3.9,53.1,3.9,88.6h32.6c0-35.4-1.5-65-4.6-88.6s-4.6-53.1-4.6-88.6
		C304,106.3,272.8,106.3,272.8,106.3z"/>
	<path class="st15" d="M328.1,106.3c0,35.4,0.8,65,2.3,88.6s2.3,53.1,2.3,88.6h10c0-35.4-0.7-65-2.1-88.6s-2.1-53.1-2.1-88.6
		C338.5,106.3,328.1,106.3,328.1,106.3z"/>
	<path class="st15" d="M304.1,106.3c0,35.4,1.6,65,4.7,88.6s4.7,53.1,4.7,88.6h8.5c0-35.4-1.5-65-4.5-88.6s-4.5-53.1-4.5-88.6
		C313,106.3,304.1,106.3,304.1,106.3z"/>
	<path class="st15" d="M272.8,106.3c0,35.4,36,65,108,88.6s108,53.1,108,88.6h5.3c0-35.4-36.2-65-108.7-88.6s-108.7-53.1-108.7-88.6
		C276.7,106.3,272.8,106.3,272.8,106.3z"/>
	<path class="st14" d="M260.1,106.3c0,35.4-18.9,65-56.6,88.6s-56.6,53.1-56.6,88.6h6.2c0-35.4,18.8-65,56.4-88.6
		s56.4-53.1,56.4-88.6C265.9,106.3,260.1,106.3,260.1,106.3z"/>
	<path class="st14" d="M250.7,106.3c0,35.4-15.3,65-45.8,88.6s-45.8,53.1-45.8,88.6h-6c0-35.4,17.5-65,52.6-88.6
		s52.6-53.1,52.6-88.6C258.3,106.3,250.7,106.3,250.7,106.3z"/>
	<path class="st14" d="M239.1,106.3c0,35.4,1.2,65,3.7,88.6s3.7,53.1,3.7,88.6h30.6c0-35.4-1.3-65-3.9-88.6s-3.9-53.1-3.9-88.6
		C269.3,106.3,239.1,106.3,239.1,106.3z"/>
	<path class="st14" d="M217.1,106.3c0,35.4-0.4,65-1.2,88.6s-1.2,53.1-1.2,88.6h16c0-35.4,0-65,0-88.6s0-53.1,0-88.6
		C230.7,106.3,217.1,106.3,217.1,106.3z"/>
	<path class="st13" d="M124,106.3c0,35.4,0,65,0,88.6s0,53.1,0,88.6h45.8c0-35.4-0.7-65-2-88.6s-2-53.1-2-88.6
		C165.8,106.3,124,106.3,124,106.3z"/>
	<path class="st13" d="M172.7,106.3c0,35.4,2.5,65,7.5,88.6s7.5,53.1,7.5,88.6h23.1c0-35.4-1-65-3.1-88.6s-3.1-53.1-3.1-88.6
		C204.6,106.3,172.7,106.3,172.7,106.3z"/>
	<path class="st13" d="M165.9,106.3c0,35.4,0.9,65,2.6,88.6c1.8,23.6,2.6,53.1,2.6,88.6h3.8c0-35.4-0.9-65-2.8-88.6
		c-1.9-23.6-2.8-53.1-2.8-88.6C169.3,106.3,165.9,106.3,165.9,106.3z"/>
	<path class="st13" d="M144.9,106.3c0,35.4,20.4,65,61.3,88.6s61.3,53.1,61.3,88.6h6.1c0-35.4-20.5-65-61.5-88.6
		s-61.5-53.1-61.5-88.6C150.6,106.3,144.9,106.3,144.9,106.3z"/>
	<path class="st13" d="M205.2,106.3c0,35.4,6,65,17.9,88.6S241,248,241,283.5h-10.4c0-35.4-2.9-65-8.6-88.6s-8.6-53.1-8.6-88.6
		C213.4,106.3,205.2,106.3,205.2,106.3z"/>
	<path class="st13" d="M150.7,106.3c0,35.4,19,65,57.1,88.6s57.1,53.1,57.1,88.6h-8.6c0-35.4-16.7-65-50.1-88.6
		s-50.1-53.1-50.1-88.6C156.1,106.3,150.7,106.3,150.7,106.3z"/>
	<path class="st13" d="M191.7,106.3c0,35.4,18.7,65,56,88.6s56,53.1,56,88.6h4.1c0-35.4-18.2-65-54.5-88.6s-54.5-53.1-54.5-88.6
		C198.8,106.3,191.7,106.3,191.7,106.3z"/>
	<path class="st13" d="M198.5,106.3c0,35.4,17,65,51.1,88.6s51.1,53.1,51.1,88.6h-5.4c0-35.4-15.1-65-45.4-88.6
		s-45.4-53.1-45.4-88.6C204.5,106.3,198.5,106.3,198.5,106.3z"/>
	<path class="st8" d="M126,88.6h85.5c1.1,0,2,0.9,2,2v13.7c0,1.1-0.9,2-2,2H126c-1.1,0-2-0.9-2-2V90.6C124,89.5,124.9,88.6,126,88.6
		z"/>
	<path class="st8" d="M219,88.6h48.2c1.1,0,2,0.9,2,2v13.7c0,1.1-0.9,2-2,2H219c-1.1,0-2-0.9-2-2V90.6C217,89.5,217.9,88.6,219,88.6
		z"/>
	<path class="st8" d="M274.8,88.6h62.1c1.1,0,2,0.9,2,2v13.7c0,1.1-0.9,2-2,2h-62.1c-1.1,0-2-0.9-2-2V90.6
		C272.8,89.5,273.7,88.6,274.8,88.6z"/>
	<path class="st8" d="M344.4,88.6h59c1.1,0,2,0.9,2,2v13.7c0,1.1-0.9,2-2,2h-59c-1.1,0-2-0.9-2-2V90.6
		C342.4,89.5,343.3,88.6,344.4,88.6z"/>
	<path class="st8" d="M410.9,88.6h53.3c1.1,0,2,0.9,2,2v13.7c0,1.1-0.9,2-2,2h-53.3c-1.1,0-2-0.9-2-2V90.6
		C408.9,89.5,409.8,88.6,410.9,88.6z"/>
	<path class="st8" d="M471.8,88.6h63.8c1.1,0,2,0.9,2,2v13.7c0,1.1-0.9,2-2,2h-63.8c-1.1,0-2-0.9-2-2V90.6
		C469.8,89.5,470.7,88.6,471.8,88.6z"/>
	<path class="st8" d="M543.1,88.6h62.6c1.1,0,2,0.9,2,2v13.7c0,1.1-0.9,2-2,2h-62.6c-1.1,0-2-0.9-2-2V90.6
		C541.1,89.5,542,88.6,543.1,88.6z"/>
	<path class="st8" d="M613.2,88.6h58c1.1,0,2,0.9,2,2v13.7c0,1.1-0.9,2-2,2h-58c-1.1,0-2-0.9-2-2V90.6
		C611.2,89.5,612.1,88.6,613.2,88.6z"/>
	<path class="st8" d="M126,283.5h82.9c1.1,0,2,0.9,2,2v13.7c0,1.1-0.9,2-2,2H126c-1.1,0-2-0.9-2-2v-13.7
		C124,284.4,124.9,283.5,126,283.5z"/>
	<path class="st8" d="M216.5,283.5h58.6c1.1,0,2,0.9,2,2v13.7c0,1.1-0.9,2-2,2h-58.6c-1.1,0-2-0.9-2-2v-13.7
		C214.5,284.4,215.4,283.5,216.5,283.5z"/>
	<path class="st8" d="M282.6,283.5h59.5c1.1,0,2,0.9,2,2v13.7c0,1.1-0.9,2-2,2h-59.5c-1.1,0-2-0.9-2-2v-13.7
		C280.6,284.4,281.5,283.5,282.6,283.5z"/>
	<path class="st8" d="M349.6,283.5h57c1.1,0,2,0.9,2,2v13.7c0,1.1-0.9,2-2,2h-57c-1.1,0-2-0.9-2-2v-13.7
		C347.6,284.4,348.5,283.5,349.6,283.5z"/>
	<path class="st8" d="M414.2,283.5h52.5c1.1,0,2,0.9,2,2v13.7c0,1.1-0.9,2-2,2h-52.5c-1.1,0-2-0.9-2-2v-13.7
		C412.2,284.4,413.1,283.5,414.2,283.5z"/>
	<path class="st8" d="M474.3,283.5h63.4c1.1,0,2,0.9,2,2v13.7c0,1.1-0.9,2-2,2h-63.4c-1.1,0-2-0.9-2-2v-13.7
		C472.3,284.4,473.2,283.5,474.3,283.5z"/>
	<path class="st8" d="M545.2,283.5h62c1.1,0,2,0.9,2,2v13.7c0,1.1-0.9,2-2,2h-62c-1.1,0-2-0.9-2-2v-13.7
		C543.2,284.4,544.1,283.5,545.2,283.5z"/>
	<path class="st8" d="M614.8,283.5h56.5c1.1,0,2,0.9,2,2v13.7c0,1.1-0.9,2-2,2h-56.5c-1.1,0-2-0.9-2-2v-13.7
		C612.8,284.4,613.7,283.5,614.8,283.5z"/>
	<path class="st13" d="M126,91.6h85.5c1.1,0,2,0.9,2,2v7.7c0,1.1-0.9,2-2,2H126c-1.1,0-2-0.9-2-2v-7.7C124,92.5,124.9,91.6,126,91.6
		z"/>
	<path class="st13" d="M219,91.6h48.2c1.1,0,2,0.9,2,2v7.7c0,1.1-0.9,2-2,2H219c-1.1,0-2-0.9-2-2v-7.7C217,92.5,217.9,91.6,219,91.6
		z"/>
	<path class="st13" d="M274.8,91.6h62.1c1.1,0,2,0.9,2,2v7.7c0,1.1-0.9,2-2,2h-62.1c-1.1,0-2-0.9-2-2v-7.7
		C272.8,92.5,273.7,91.6,274.8,91.6z"/>
	<path class="st13" d="M344.4,91.6h59c1.1,0,2,0.9,2,2v7.7c0,1.1-0.9,2-2,2h-59c-1.1,0-2-0.9-2-2v-7.7
		C342.4,92.5,343.3,91.6,344.4,91.6z"/>
	<path class="st13" d="M410.9,91.6h53.3c1.1,0,2,0.9,2,2v7.7c0,1.1-0.9,2-2,2h-53.3c-1.1,0-2-0.9-2-2v-7.7
		C408.9,92.5,409.8,91.6,410.9,91.6z"/>
	<path class="st13" d="M471.8,91.6h63.8c1.1,0,2,0.9,2,2v7.7c0,1.1-0.9,2-2,2h-63.8c-1.1,0-2-0.9-2-2v-7.7
		C469.8,92.5,470.7,91.6,471.8,91.6z"/>
	<path class="st13" d="M543.1,91.6h62.6c1.1,0,2,0.9,2,2v7.7c0,1.1-0.9,2-2,2h-62.6c-1.1,0-2-0.9-2-2v-7.7
		C541.1,92.5,542,91.6,543.1,91.6z"/>
	<path class="st13" d="M613.2,91.6h58c1.1,0,2,0.9,2,2v7.7c0,1.1-0.9,2-2,2h-58c-1.1,0-2-0.9-2-2v-7.7
		C611.2,92.5,612.1,91.6,613.2,91.6z"/>
	<path class="st17" d="M126,286.5h82.9c1.1,0,2,0.9,2,2v7.7c0,1.1-0.9,2-2,2H126c-1.1,0-2-0.9-2-2v-7.7
		C124,287.4,124.9,286.5,126,286.5z"/>
	<path class="st17" d="M216.5,286.5h58.6c1.1,0,2,0.9,2,2v7.7c0,1.1-0.9,2-2,2h-58.6c-1.1,0-2-0.9-2-2v-7.7
		C214.5,287.4,215.4,286.5,216.5,286.5z"/>
	<path class="st17" d="M282.6,286.5h59.5c1.1,0,2,0.9,2,2v7.7c0,1.1-0.9,2-2,2h-59.5c-1.1,0-2-0.9-2-2v-7.7
		C280.6,287.4,281.5,286.5,282.6,286.5z"/>
	<path class="st17" d="M349.6,286.5h57c1.1,0,2,0.9,2,2v7.7c0,1.1-0.9,2-2,2h-57c-1.1,0-2-0.9-2-2v-7.7
		C347.6,287.4,348.5,286.5,349.6,286.5z"/>
	<path class="st17" d="M414.2,286.5h52.5c1.1,0,2,0.9,2,2v7.7c0,1.1-0.9,2-2,2h-52.5c-1.1,0-2-0.9-2-2v-7.7
		C412.2,287.4,413.1,286.5,414.2,286.5z"/>
	<path class="st17" d="M474.3,286.5h63.4c1.1,0,2,0.9,2,2v7.7c0,1.1-0.9,2-2,2h-63.4c-1.1,0-2-0.9-2-2v-7.7
		C472.3,287.4,473.2,286.5,474.3,286.5z"/>
	<path class="st17" d="M545.2,286.5h62c1.1,0,2,0.9,2,2v7.7c0,1.1-0.9,2-2,2h-62c-1.1,0-2-0.9-2-2v-7.7
		C543.2,287.4,544.1,286.5,545.2,286.5z"/>
	<path class="st17" d="M614.8,286.5h56.5c1.1,0,2,0.9,2,2v7.7c0,1.1-0.9,2-2,2h-56.5c-1.1,0-2-0.9-2-2v-7.7
		C612.8,287.4,613.7,286.5,614.8,286.5z"/>
	<text transform="matrix(1 0 0 1 165.3791 296.0394)" class="st1 st11">1</text>
	<text transform="matrix(1 0 0 1 243.6818 296.0394)" class="st1 st11">2</text>
	<text transform="matrix(1 0 0 1 310.2507 296.0394)" class="st1 st11">3</text>
	<text transform="matrix(1 0 0 1 376.0464 296.0394)" class="st1 st11">4</text>
	<text transform="matrix(1 0 0 1 438.3817 296.0394)" class="st1 st11">5</text>
	<text transform="matrix(1 0 0 1 503.8719 296.0394)" class="st1 st11">6</text>
	<text transform="matrix(1 0 0 1 574.1121 296.0394)" class="st1 st11">7</text>
	<text transform="matrix(1 0 0 1 640.9015 296.0394)" class="st1 st11">8</text>
</g>
</svg>
