<?xml version="1.0" standalone="no"?> <!DOCTYPE svg PUBLIC "-//W3C//DTD SVG 1.1//EN" "http://www.w3.org/Graphics/SVG/1.1/DTD/svg11.dtd">  <svg id="svg" width="744.0945" height="1052.362"> 	<defs><linearGradient id="gradient1" x1="0%" y1="0%" x2="0%" y2="100%"><stop offset="0%" style="stop-color:#B2182B;stop-opacity:1"/><stop offset="100%" style="stop-color:#216218;stop-opacity:1"/></linearGradient></defs><defs><linearGradient id="gradient2" x1="0%" y1="0%" x2="100%" y2="0%"><stop offset="0%" style="stop-color:#216218;stop-opacity:1"/><stop offset="100%" style="stop-color:#2166AC;stop-opacity:1"/></linearGradient></defs><defs><linearGradient id="gradient3" x1="0%" y1="0%" x2="100%" y2="0%"><stop offset="0%" style="stop-color:#B2182B;stop-opacity:1"/><stop offset="100%" style="stop-color:#2166AC;stop-opacity:1"/></linearGradient></defs><text x="286.481095" y="515.8463259731" font-size="10" fill="#216218" >thaliana</text><text x="286.481095" y="473.3266419731" font-size="10" fill="#B2182B" transform="rotate(-60, 70.86614 487.4999)" >arenosa</text><text x="284.381095" y="473.3266419731" font-size="10" fill="#2166AC" transform="rotate(60, 531.496 487.4999)" >petraea</text><text x="153.244357543435" y="501.6730979731" font-size="4" fill="black" >1</text> <text x="235.457713137279" y="501.6730979731" font-size="4" fill="black" >2</text> <text x="306.439884132599" y="501.6730979731" font-size="4" fill="black" >3</text> <text x="375.62767931995" y="501.6730979731" font-size="4" fill="black" >4</text> <text x="450.482245781196" y="501.6730979731" font-size="4" fill="black" >5</text> <text x="133.443364032051" y="483.9565629731" font-size="4" fill="black" transform="rotate(-60, 70.86614 487.4999)" >1</text> <text x="185.36825986786" y="483.9565629731" font-size="4" fill="black" transform="rotate(-60, 70.86614 487.4999)" >2</text> <text x="232.481892996301" y="483.9565629731" font-size="4" fill="black" transform="rotate(-60, 70.86614 487.4999)" >3</text> <text x="280.762348433872" y="483.9565629731" font-size="4" fill="black" transform="rotate(-60, 70.86614 487.4999)" >4</text> <text x="323.977731867395" y="483.9565629731" font-size="4" fill="black" transform="rotate(-60, 70.86614 487.4999)" >5</text> <text x="370.11578925824" y="483.9565629731" font-size="4" fill="black" transform="rotate(-60, 70.86614 487.4999)" >6</text> <text x="424.224304417288" y="483.9565629731" font-size="4" fill="black" transform="rotate(-60, 70.86614 487.4999)" >7</text> <text x="473.471442153064" y="483.9565629731" font-size="4" fill="black" transform="rotate(-60, 70.86614 487.4999)" >8</text> <text x="135.68076246216" y="483.9565629731" font-size="4" fill="black" transform="rotate(60, 531.496 487.4999)" >1</text> <text x="191.248134531733" y="483.9565629731" font-size="4" fill="black" transform="rotate(60, 531.496 487.4999)" >2</text> <text x="238.316462956968" y="483.9565629731" font-size="4" fill="black" transform="rotate(60, 531.496 487.4999)" >3</text> <text x="284.824727842707" y="483.9565629731" font-size="4" fill="black" transform="rotate(60, 531.496 487.4999)" >4</text> <text x="328.826514616099" y="483.9565629731" font-size="4" fill="black" transform="rotate(60, 531.496 487.4999)" >5</text> <text x="375.113446623213" y="483.9565629731" font-size="4" fill="black" transform="rotate(60, 531.496 487.4999)" >6</text> <text x="424.840971129302" y="483.9565629731" font-size="4" fill="black" transform="rotate(60, 531.496 487.4999)" >7</text> <text x="472.068948566876" y="483.9565629731" font-size="4" fill="black" transform="rotate(60, 531.496 487.4999)" >8</text><path d="M 95.5151763646149 460.806486631974 Q 301.181095 344.423879559262 311.979238986406 123.285600182059 L 327.153582852781 149.568334730143 Q 301.181095 344.423879559262 111.498328404517 433.122855233766 Z" stroke="#091F34" fill="#091F34" style="stroke-width: 0.1px;"/> <path d="M 116.8623745519 423.832054772354 Q 301.181095 325.936663629452 334.921241717601 163.022314539874 L 343.378593715893 177.67087789841 Q 301.181095 325.936663629452 124.686751870637 410.279835718713 Z" stroke="#091F34" fill="#091F34" style="stroke-width: 0.1px;"/> <path d="M 104.621624661673 445.033655504971 Q 301.181095 336.53746399576 363.334753296606 212.235960216157 L 365.546022897874 216.065991514785 Q 301.181095 336.53746399576 106.780878537309 441.293718085928 Z" stroke="#091F34" fill="#091F34" style="stroke-width: 0.1px;"/> <path d="M 106.82994486555 441.208732712474 Q 301.181095 334.625002599512 362.449757954065 210.703103318414 L 359.298856109166 205.245581233387 Q 301.181095 334.625002599512 109.081461957244 437.30899071555 Z" stroke="#091F34" fill="#091F34" style="stroke-width: 0.1px;"/> <path d="M 119.710616811324 418.898754466767 Q 301.181095 323.470013476658 375.105362758734 232.623253840613 L 377.332081516542 236.480043863303 Q 301.181095 323.470013476658 122.536249863795 414.004614456342 Z" stroke="#091F34" fill="#091F34" style="stroke-width: 0.1px;"/> <path d="M 122.490374613333 414.084072720951 Q 301.181095 321.062672603751 374.776788917149 232.05414725295 L 372.811777395767 228.650647460459 Q 301.181095 321.062672603751 124.645031908507 410.352096812811 Z" stroke="#091F34" fill="#091F34" style="stroke-width: 0.1px;"/> <path d="M 142.120229435084 380.084166824478 Q 301.181095 304.062719655514 319.833755622794 136.890022065179 L 322.513319087581 141.531162128296 Q 301.181095 304.062719655514 145.343174628508 374.501861999458 Z" stroke="#103356" fill="#103356" style="stroke-width: 0.1px;"/> <path d="M 138.875960648775 385.703405195774 Q 301.181095 306.872338841162 324.719866473947 145.353014310791 L 322.560506460186 141.612893055124 Q 301.181095 306.872338841162 142.090082550401 380.136382760439 Z" stroke="#103356" fill="#103356" style="stroke-width: 0.1px;"/> <path d="M 135.783089499488 391.060415167604 Q 301.181095 309.550843827077 355.741929143016 199.084803009202 L 366.820090388866 218.272741141455 Q 301.181095 309.550843827077 146.721224094498 372.11501030902 Z" stroke="#103356" fill="#103356" style="stroke-width: 0.1px;"/> <path d="M 125.471802724086 408.920087754013 Q 301.181095 318.480680120281 344.188052958588 179.072902433413 L 348.988811962095 187.388060942382 Q 301.181095 318.480680120281 129.997125986322 401.081997943148 Z" stroke="#103356" fill="#103356" style="stroke-width: 0.1px;"/> <path d="M 130.407755966674 400.370765954067 Q 301.181095 314.206019220309 349.505596786667 188.283158515121 L 353.682581868155 195.517908898715 Q 301.181095 314.206019220309 133.121464070452 395.670485641411 Z" stroke="#103356" fill="#103356" style="stroke-width: 0.1px;"/> <path d="M 153.288880304522 360.739496066613 Q 301.181095 294.390384276582 343.347058889133 177.616257976253 L 341.105057480019 173.732997625027 Q 301.181095 294.390384276582 155.526727543441 356.863430949227 Z" stroke="#174778" fill="#174778" style="stroke-width: 0.1px;"/> <path d="M 147.441063194602 370.868212414365 Q 301.181095 299.454742450458 367.540848710279 219.521131174122 L 379.361686530486 239.995422866751 Q 301.181095 299.454742450458 160.637545981461 348.011233746317 Z" stroke="#174778" fill="#174778" style="stroke-width: 0.1px;"/> <path d="M 160.597902388086 348.079898464237 Q 301.181095 288.060585475393 379.444996054437 240.139719194989 L 382.540599192631 245.501461110411 Q 301.181095 288.060585475393 163.585239672117 342.905678508951 Z" stroke="#174778" fill="#174778" style="stroke-width: 0.1px;"/> <path d="M 168.410375022572 334.548298928565 Q 301.181095 281.294785707558 387.060935982155 253.330914097188 L 388.819609580464 256.37702612339 Q 301.181095 281.294785707558 170.393835203727 331.112845120016 Z" stroke="#174778" fill="#174778" style="stroke-width: 0.1px;"/> <path d="M 147.467853198103 370.821810767166 Q 301.181095 299.431541626858 441.211562805946 347.122551017697 L 443.042268886997 350.293426963802 Q 301.181095 299.431541626858 149.049752844985 368.081880206291 Z" stroke="#174778" fill="#174778" style="stroke-width: 0.1px;"/> <path d="M 158.989975433352 350.864909644697 Q 301.181095 289.453091065623 474.804006820883 405.306370801981 L 476.21822008137 407.755860021882 Q 301.181095 289.453091065623 160.478719076628 348.286330015098 Z" stroke="#174778" fill="#174778" style="stroke-width: 0.1px;"/> <path d="M 168.657607025844 334.120080537642 Q 301.181095 281.080676512096 463.215541808627 385.23456061902 L 462.134469691529 383.36208878556 Q 301.181095 281.080676512096 170.290511625357 331.291806807372 Z" stroke="#174778" fill="#174778" style="stroke-width: 0.1px;"/> <path d="M 182.928458674449 309.402240414981 Q 301.181095 268.721756450765 402.060548782326 279.311005560945 L 413.332657011098 298.834869721594 Q 301.181095 268.721756450765 195.002730470554 288.48898819973 Z" stroke="#1A5289" fill="#1A5289" style="stroke-width: 0.1px;"/> <path d="M 172.692248954801 327.131875726341 Q 301.181095 277.586574106446 391.245830431894 260.57936390845 L 397.448575099481 271.322832819087 Q 301.181095 277.586574106446 178.084866854549 317.791587538172 Z" stroke="#1A5289" fill="#1A5289" style="stroke-width: 0.1px;"/> <path d="M 178.972278546346 316.254545400749 Q 301.181095 272.14790894365 398.725069562336 273.533786084332 L 401.132549774646 277.703664130271 Q 301.181095 272.14790894365 182.102849562974 310.832237343246 Z" stroke="#1A5289" fill="#1A5289" style="stroke-width: 0.1px;"/> <path d="M 191.925006099728 293.819763181694 Q 301.181095 260.930517834122 432.029218194905 331.218263618767 L 434.305427999001 335.160774648149 Q 301.181095 260.930517834122 194.995937632722 288.500753739982 Z" stroke="#1A5289" fill="#1A5289" style="stroke-width: 0.1px;"/> <path d="M 189.470057161879 298.071859472035 Q 301.181095 263.056565979292 429.940639766967 327.600739665987 L 431.66447899492 330.586516792881 Q 301.181095 263.056565979292 191.619069488927 294.349660935497 Z" stroke="#1A5289" fill="#1A5289" style="stroke-width: 0.1px;"/> <path d="M 172.707104939603 327.106144405866 Q 301.181095 277.573708446208 460.479559415212 380.495700105011 L 461.7674247102 382.726348229234 Q 301.181095 277.573708446208 174.226277333345 324.47486063445 Z" stroke="#1A5289" fill="#1A5289" style="stroke-width: 0.1px;"/> <path d="M 174.600405057082 323.826852408418 Q 301.181095 275.934062447484 465.421996457901 389.056252176159 L 464.318497771886 387.144936385895 Q 301.181095 275.934062447484 176.60168782852 320.360528967974 Z" stroke="#1A5289" fill="#1A5289" style="stroke-width: 0.1px;"/> <path d="M 213.183250566819 256.999403684972 Q 301.181095 242.520338085761 411.316317616699 295.342467445191 L 413.321554905767 298.81564031109 Q 301.181095 242.520338085761 214.770286292925 254.25057717393 Z" stroke="#2166AC" fill="#2166AC" style="stroke-width: 0.1px;"/> <path d="M 207.786823015061 266.346290383981 Q 301.181095 247.193781435266 427.883335869633 324.037384789194 L 431.212531097778 329.803720072657 Q 301.181095 247.193781435266 211.479295383395 259.950740636483 Z" stroke="#2166AC" fill="#2166AC" style="stroke-width: 0.1px;"/> <path d="M 211.746037345417 259.48873000575 Q 301.181095 243.76500124615 431.369798452969 330.076115122221 L 434.494509446061 335.488273321225 Q 301.181095 243.76500124615 215.08065878243 253.712996252835 Z" stroke="#2166AC" fill="#2166AC" style="stroke-width: 0.1px;"/> <path d="M 195.741274745204 287.209791992396 Q 301.181095 257.625532239473 414.091660952509 300.149503111262 L 420.713672122788 311.619162906475 Q 301.181095 257.625532239473 201.629354022729 277.011339524731 Z" stroke="#2166AC" fill="#2166AC" style="stroke-width: 0.1px;"/> <path d="M 202.53633051594 275.440410157219 Q 301.181095 251.740841321884 421.988439357296 313.827124524466 L 427.765558708372 323.83338876192 Q 301.181095 251.740841321884 207.777369670336 266.362664057347 Z" stroke="#2166AC" fill="#2166AC" style="stroke-width: 0.1px;"/> <path d="M 222.453103022892 240.943548252386 Q 301.181095 234.492410369468 367.563347993508 219.560101075807 L 369.057794646435 222.148558607879 Q 301.181095 234.492410369468 224.67985801423 237.086695471381 Z" stroke="#277ACE" fill="#277ACE" style="stroke-width: 0.1px;"/> <path d="M 216.146446680426 251.866997463414 Q 301.181095 239.954134974982 371.123474389348 225.72642087477 L 372.475040582384 228.0674021909 Q 301.181095 239.954134974982 218.760134519764 247.339957330556 Z" stroke="#277ACE" fill="#277ACE" style="stroke-width: 0.1px;"/> <path d="M 218.981652966235 246.956276126454 Q 301.181095 237.498774306502 437.950799121395 341.474742644578 L 447.509458891893 358.030827019346 Q 301.181095 237.498774306502 228.766293294801 230.008781943591 Z" stroke="#277ACE" fill="#277ACE" style="stroke-width: 0.1px;"/> <path d="M 215.809518863004 252.450573561673 Q 301.181095 240.245923024112 435.244924668112 336.788030612591 L 437.946527945988 341.467344751767 Q 301.181095 240.245923024112 218.765695310779 247.330325757988 Z" stroke="#277ACE" fill="#277ACE" style="stroke-width: 0.1px;"/> <path d="M 234.945437893394 219.306189551512 Q 301.181095 223.673731019031 452.51897435969 366.707562330874 L 457.365310482652 375.1016627264 Q 301.181095 223.673731019031 239.145486766533 212.031491508963 Z" stroke="#277ACE" fill="#277ACE" style="stroke-width: 0.1px;"/> <path d="M 239.575223675828 211.287165348176 Q 301.181095 219.664218917363 457.845437809936 375.933267651358 L 459.605497195479 378.981779931457 Q 301.181095 219.664218917363 241.142540275815 208.572493365454 Z" stroke="#277ACE" fill="#277ACE" style="stroke-width: 0.1px;"/> <path d="M 228.785762440407 229.975060394221 Q 301.181095 229.008166440386 447.672886940749 358.313892703348 L 450.114474380306 362.542846199781 Q 301.181095 229.008166440386 231.165000443342 225.854099289838 Z" stroke="#277ACE" fill="#277ACE" style="stroke-width: 0.1px;"/> <path d="M 236.874856368842 215.964338722975 Q 301.181095 222.002805604762 468.472339679651 394.339601616752 L 470.345659508519 397.584286739179 Q 301.181095 222.002805604762 238.974524328098 212.327607138519 Z" stroke="#277ACE" fill="#277ACE" style="stroke-width: 0.1px;"/> <path d="M 265.187188710506 166.925940626436 Q 301.181095 197.483606556493 357.510595163038 202.148222417502 L 359.13327192291 204.958781009861 Q 301.181095 197.483606556493 266.587223707577 164.501008879135 Z" stroke="#438FDB" fill="#438FDB" style="stroke-width: 0.1px;"/> <path d="M 256.427962071302 182.097366200549 Q 301.181095 205.069319343549 377.742888921039 237.191583160018 L 379.357086559934 239.987455484041 Q 301.181095 205.069319343549 258.053456534165 179.281927203449 Z" stroke="#438FDB" fill="#438FDB" style="stroke-width: 0.1px;"/> <path d="M 241.859157688281 207.331275597474 Q 301.181095 217.686274042012 460.333520625023 380.242753500528 L 474.235688626327 404.322014814144 Q 301.181095 217.686274042012 256.540677774679 181.902136875489 Z" stroke="#438FDB" fill="#438FDB" style="stroke-width: 0.1px;"/> <path d="M 262.122854877493 172.233522516567 Q 301.181095 200.137397501559 476.618943380892 408.449933136432 L 479.874003734257 414.087863050162 Q 301.181095 200.137397501559 265.728598037158 165.988192164984 Z" stroke="#438FDB" fill="#438FDB" style="stroke-width: 0.1px;"/> <path d="M 256.501573680066 181.969867154143 Q 301.181095 205.005569820347 474.525634307409 404.824215465213 L 476.410617933316 408.089102876719 Q 301.181095 205.005569820347 258.030477458084 179.321728130732 Z" stroke="#438FDB" fill="#438FDB" style="stroke-width: 0.1px;"/> <path d="M 265.654026044074 166.117354645827 Q 301.181095 197.079313566188 484.197104535567 421.575693284273 L 480.036200908977 414.368796797622 Q 301.181095 197.079313566188 269.121208576251 160.112018340982 Z" stroke="#438FDB" fill="#438FDB" style="stroke-width: 0.1px;"/> <path d="M 253.136582161483 187.798203431366 Q 301.181095 207.919737958958 487.097871627444 426.599969268327 L 485.051713042494 423.055918638852 Q 301.181095 207.919737958958 254.704389794621 185.082680954277 Z" stroke="#438FDB" fill="#438FDB" style="stroke-width: 0.1px;"/> <path d="M 269.95239231314 158.672365878265 Q 301.181095 193.356819182407 472.501335330516 401.318026787525 L 470.974606684936 398.673655204009 Q 301.181095 193.356819182407 271.986640627093 155.148944443288 Z" stroke="#5499DE" fill="#5499DE" style="stroke-width: 0.1px;"/> <path d="M 275.091818215027 149.770619094461 Q 301.181095 188.905945790505 491.578055363591 434.359875126578 L 506.847578047922 460.807464223165 Q 301.181095 188.905945790505 290.388448515596 123.276078229278 Z" stroke="#5499DE" fill="#5499DE" style="stroke-width: 0.1px;"/> <path d="M 271.858052436518 155.371665722616 Q 301.181095 191.706469104583 487.268297111459 426.895154865546 L 491.546133781002 434.304585323675 Q 301.181095 191.706469104583 275.257658603757 149.483375115233 Z" stroke="#5499DE" fill="#5499DE" style="stroke-width: 0.1px;"/> <path d="M 269.905003150079 158.754446316414 Q 301.181095 193.397859401482 485.008077078998 422.980338933039 L 487.098686238495 426.601380216055 Q 301.181095 193.397859401482 271.944656654931 155.221662816175 Z" stroke="#5499DE" fill="#5499DE" style="stroke-width: 0.1px;"/> <path d="M 312.543598993242 124.263100387661 Q 278.720637544086 341.559917547159 107.677505088172 487.4998699731 L 133.966507432241 487.4998699731 Q 291.865138716121 349.148898837197 323.521804407044 143.277909940293 Z" stroke="#F59A24" fill="#F59A24" style="stroke-width: 0.1px;"/> <path d="M 334.828468794896 162.861627124182 Q 302.208770304159 355.120797318949 154.653770608317 487.4998699731 L 171.644468072896 487.4998699731 Q 310.704119036448 360.025589196396 342.601977473356 176.325739108352 Z" stroke="#F59A24" fill="#F59A24" style="stroke-width: 0.1px;"/> <path d="M 324.681309973925 145.286232493789 Q 293.314188013399 349.98550783905 136.864606026798 487.4998699731 L 142.094250524119 487.4998699731 Q 295.929010262059 351.495176168197 327.166382679202 149.590504679832 Z" stroke="#F59A24" fill="#F59A24" style="stroke-width: 0.1px;"/> <path d="M 319.833755622794 136.890022065179 Q 321.902078363597 366.4907340283 194.040386727194 487.4998699731 L 201.245559148824 487.4998699731 Q 325.504664574412 368.570688146893 322.513319087581 141.531162128296 Z" stroke="#F59A24" fill="#F59A24" style="stroke-width: 0.1px;"/> <path d="M 316.636912033054 131.352926543899 Q 313.998678790175 361.927704157072 178.23358758035 487.4998699731 L 181.829850464157 487.4998699731 Q 315.796810232079 362.965855829093 317.800006946945 133.367466028783 Z" stroke="#F59A24" fill="#F59A24" style="stroke-width: 0.1px;"/> <path d="M 330.601465751822 155.540243089829 Q 298.605113818265 353.040225276752 147.446457636531 487.4998699731 L 152.372811321614 487.4998699731 Q 301.068290660807 354.462341089855 331.934014517918 157.848285256272 Z" stroke="#F59A24" fill="#F59A24" style="stroke-width: 0.1px;"/> <path d="M 322.560042774724 141.612089928344 Q 321.858023004491 366.465298654861 193.952276008983 487.4998699731 L 187.742814019594 487.4998699731 Q 318.753292009797 364.672781379313 324.721312329525 145.355518606112 Z" stroke="#F59A24" fill="#F59A24" style="stroke-width: 0.1px;"/> <path d="M 313.806535925477 126.450571321047 Q 350.187589492403 382.821381492682 250.611408984806 487.4998699731 L 247.006190606517 487.4998699731 Q 348.384980303258 381.780644592086 314.936421475791 128.407590500928 Z" stroke="#EEE82C" fill="#EEE82C" style="stroke-width: 0.1px;"/> <path d="M 341.103555771419 173.730396589434 Q 369.290928647038 393.850699496031 288.818087294075 487.4998699731 L 283.787704160847 487.4998699731 Q 366.775737080423 392.398552967983 343.34920975738 177.619983389337 Z" stroke="#598B2C" fill="#598B2C" style="stroke-width: 0.1px;"/> <path d="M 355.745761924894 199.09144158215 Q 317.012631438262 363.667810529769 184.261492876524 487.4998699731 L 203.007734828413 487.4998699731 Q 326.385752414207 369.079384448378 366.26084146042 217.304093583309 Z" stroke="#F59A24" fill="#F59A24" style="stroke-width: 0.1px;"/> <path d="M 363.334753296606 212.235960216157 Q 288.23681754762 347.054086633857 126.709865095239 487.4998699731 L 131.741189554741 487.4998699731 Q 290.752479777371 348.506504899393 365.546022897874 216.065991514785 Z" stroke="#F59A24" fill="#F59A24" style="stroke-width: 0.1px;"/> <path d="M 344.188052958588 179.072902433413 Q 316.791168313731 363.539948735206 183.818566627461 487.4998699731 L 176.040016898553 487.4998699731 Q 312.901893449276 361.294474845261 348.988811962095 187.388060942382 Z" stroke="#F59A24" fill="#F59A24" style="stroke-width: 0.1px;"/> <path d="M 375.105362758734 232.623253840613 Q 306.531040747858 357.616261323129 163.298311495717 487.4998699731 L 168.675254212579 487.4998699731 Q 309.21951210629 359.168450985628 377.332081516542 236.480043863303 Z" stroke="#F59A24" fill="#F59A24" style="stroke-width: 0.1px;"/> <path d="M 380.714408775685 242.338406523965 Q 330.043945463215 371.19144318997 210.324120926429 487.4998699731 L 215.218127803869 487.4998699731 Q 332.490948901934 372.604221284023 382.4982088569 245.428038895174 Z" stroke="#EEE82C" fill="#EEE82C" style="stroke-width: 0.1px;"/> <path d="M 367.985076244473 220.290555833467 Q 360.831368043617 388.96656990442 271.898966087233 487.4998699731 L 298.938592318002 487.4998699731 Q 374.351181159001 396.772237645981 379.224936203172 239.758564351891 Z" stroke="#598B2C" fill="#598B2C" style="stroke-width: 0.1px;"/> <path d="M 367.563347993508 219.560101075807 Q 436.735397670038 432.789781841812 423.707025340076 487.4998699731 L 428.884848536531 487.4998699731 Q 439.324309268265 434.284490649957 369.057794646435 222.148558607879 Z" stroke="#0D2818" fill="#0D2818" style="stroke-width: 0.1px;"/> <path d="M 371.283339436959 226.003315259587 Q 430.098786317834 428.95813249111 410.433802635667 487.4998699731 L 416.094871148677 487.4998699731 Q 432.929320574338 430.592342206053 372.673592805011 228.411304728447 Z" stroke="#0D2818" fill="#0D2818" style="stroke-width: 0.1px;"/> <path d="M 402.060548782326 279.311005560945 Q 347.412084138279 381.218942729342 245.060398276558 487.4998699731 L 269.274343561456 487.4998699731 Q 359.519056780728 388.208906643531 413.326530040012 298.824257496376 Z" stroke="#EEE82C" fill="#EEE82C" style="stroke-width: 0.1px;"/> <path d="M 391.249260650485 260.58530522133 Q 342.289539682514 378.26144030887 234.815309365027 487.4998699731 L 242.242338205042 487.4998699731 Q 346.003054102521 380.4054388589 398.249419961255 272.70993680866 Z" stroke="#EEE82C" fill="#EEE82C" style="stroke-width: 0.1px;"/> <path d="M 411.316317616699 295.342467445191 Q 395.892915529733 409.209363783734 342.022061059466 487.4998699731 L 345.875335029525 487.4998699731 Q 397.819552514762 410.321708165672 413.321554905767 298.81564031109 Z" stroke="#598B2C" fill="#598B2C" style="stroke-width: 0.1px;"/> <path d="M 414.091660952509 300.149503111262 Q 327.903298594562 369.955540144114 206.042827189125 487.4998699731 L 210.10217102016 487.4998699731 Q 329.93297051008 371.127371770905 415.978833384564 303.418181646225 Z" stroke="#EEE82C" fill="#EEE82C" style="stroke-width: 0.1px;"/> <path d="M 431.781807224346 330.78973524741 Q 356.123275439077 386.24835137182 262.482780878155 487.4998699731 L 269.279388683438 487.4998699731 Q 359.521579341719 388.210363044798 434.305427999001 335.160774648149 Z" stroke="#EEE82C" fill="#EEE82C" style="stroke-width: 0.1px;"/> <path d="M 429.938653296293 327.597298997852 Q 353.820823610361 384.919030188714 257.877877220722 487.4998699731 L 262.209635072723 487.4998699731 Q 355.986702536361 386.169500969673 431.66447899492 330.586516792881 Z" stroke="#EEE82C" fill="#EEE82C" style="stroke-width: 0.1px;"/> <path d="M 427.883335869633 324.037384789194 Q 390.116318558925 405.874243967639 330.46886711785 487.4998699731 L 346.353757660785 487.4998699731 Q 398.058763830393 410.459816883144 434.488590079602 335.47802067777 Z" stroke="#598B2C" fill="#598B2C" style="stroke-width: 0.1px;"/> <path d="M 421.992402814168 313.833989433143 Q 384.169438244148 402.440811017063 318.575106488296 487.4998699731 L 330.459918070808 487.4998699731 Q 390.111844035404 405.871660600279 427.752377395275 323.810558057925 Z" stroke="#598B2C" fill="#598B2C" style="stroke-width: 0.1px;"/> <path d="M 415.921189904783 303.31834021052 Q 375.080296385085 397.193192518031 300.39682277017 487.4998699731 L 309.167404666667 487.4998699731 Q 379.465587333333 399.725041427477 420.713672122788 311.619162906475 Z" stroke="#598B2C" fill="#598B2C" style="stroke-width: 0.1px;"/> <path d="M 444.001004971675 351.954006573515 Q 383.333567914561 401.958221057269 316.903365829122 487.4998699731 L 323.817326717789 487.4998699731 Q 386.790548358895 403.954109647388 445.262706814451 354.139338269206 Z" stroke="#598B2C" fill="#598B2C" style="stroke-width: 0.1px;"/> <path d="M 452.070368159369 365.930553599327 Q 406.64456459161 415.416831263841 363.525359183219 487.4998699731 L 371.828001986272 487.4998699731 Q 410.795885993136 417.813597792505 456.419372116734 373.4632494158 Z" stroke="#004F2D" fill="#004F2D" style="stroke-width: 0.1px;"/> <path d="M 457.248523922152 374.899382469973 Q 401.36522161312 412.368801174066 352.96667322624 487.4998699731 L 347.814227154539 487.4998699731 Q 398.788998577269 410.881418110825 459.582027334272 378.941128939399 Z" stroke="#004F2D" fill="#004F2D" style="stroke-width: 0.1px;"/> <path d="M 435.707811326843 337.589773823658 Q 430.050224198006 428.930095138155 410.336678396011 487.4998699731 L 438.075967945884 487.4998699731 Q 443.919868972942 436.937738282529 447.509458891893 358.030827019346 Z" stroke="#0D2818" fill="#0D2818" style="stroke-width: 0.1px;"/> <path d="M 449.161837867118 360.892831357795 Q 445.509989874358 437.855795013005 441.256209748717 487.4998699731 L 450.755246008673 487.4998699731 Q 450.259508004337 440.59793058387 451.471120036815 364.892625404722 Z" stroke="#0D2818" fill="#0D2818" style="stroke-width: 0.1px;"/> <path d="M 462.133282024447 383.360031685832 Q 340.80618355576 377.405024249785 231.848597111521 487.4998699731 L 227.961019535708 487.4998699731 Q 338.862394767854 376.282777269839 463.407706764011 385.567400085179 Z" stroke="#EEE82C" fill="#EEE82C" style="stroke-width: 0.1px;"/> <path d="M 463.881091683141 386.387326816648 Q 345.997565719024 380.402270139211 242.231361438047 487.4998699731 L 238.487594016611 487.4998699731 Q 344.125682008305 379.321537574936 465.42337276066 389.058636002463 Z" stroke="#EEE82C" fill="#EEE82C" style="stroke-width: 0.1px;"/> <path d="M 461.948526551985 383.040025820551 Q 426.905924372695 427.114732787599 404.04807874539 487.4998699731 L 383.6476718564 487.4998699731 Q 416.7057209282 421.22564258313 470.490221882043 397.834676114985 Z" stroke="#004F2D" fill="#004F2D" style="stroke-width: 0.1px;"/> <path d="M 470.500623190028 397.852691708879 Q 416.533445325199 421.126179217363 383.303120650397 487.4998699731 L 375.46402945771 487.4998699731 Q 412.613899728855 418.863228512213 474.229050547401 404.31051732418 Z" stroke="#004F2D" fill="#004F2D" style="stroke-width: 0.1px;"/> <path d="M 470.97279304248 398.670513883128 Q 458.709104088879 445.476307157824 467.654438177758 487.4998699731 L 471.714310698893 487.4998699731 Q 460.739040349446 446.6482914043 472.526340622902 401.361337224396 Z" stroke="#0D2818" fill="#0D2818" style="stroke-width: 0.1px;"/> <path d="M 476.657908767186 408.517423165229 Q 448.898896632862 439.812381242286 448.034023265723 487.4998699731 L 455.272290398064 487.4998699731 Q 452.518030199032 441.901888980948 478.213046577979 411.211000866293 Z" stroke="#0D2818" fill="#0D2818" style="stroke-width: 0.1px;"/> <path d="M 480.987983819382 416.017333156219 Q 455.984425517964 443.903213251451 462.205081035929 487.4998699731 L 457.698600777359 487.4998699731 Q 453.731185388679 442.602304456259 484.177200837097 421.541219067265 Z" stroke="#0D2818" fill="#0D2818" style="stroke-width: 0.1px;"/> <path d="M 485.051217742114 423.055060753428 Q 414.331052933304 419.854627377041 378.898335866608 487.4998699731 L 382.31250047222 487.4998699731 Q 416.03813523611 420.840211804095 487.080403331481 426.569713292198 Z" stroke="#004F2D" fill="#004F2D" style="stroke-width: 0.1px;"/> <path d="M 493.534836468016 437.749119418733 Q 460.648131442174 446.595805122215 471.532492884348 487.4998699731 L 494.110529159162 487.4998699731 Q 471.937149579581 453.113522782733 506.046688925263 459.42028357149 Z" stroke="#0D2818" fill="#0D2818" style="stroke-width: 0.1px;"/> <path d="M 487.229521414672 426.827993388613 Q 458.933134906483 445.605651410674 468.102499812966 487.4998699731 L 463.716909058747 487.4998699731 Q 456.740339529374 444.339640409422 491.546133781002 434.304585323675 Z" stroke="#0D2818" fill="#0D2818" style="stroke-width: 0.1px;"/> <path d="M 484.961086772714 422.898949335092 Q 460.618700489375 446.578813153693 471.473630978749 487.4998699731 L 467.837832391439 487.4998699731 Q 458.80080119572 445.529248507142 487.080403331481 426.569713292198 Z" stroke="#0D2818" fill="#0D2818" style="stroke-width: 0.1px;"/> <path d="M 96.13016413935 459.741296560099 Q 218.720637544086 402.136036015125 107.677505088172 487.4998699731 L 133.975282398397 487.4998699731 Q 231.869526199199 394.544521610551 107.782280067856 439.559239756245 Z" stroke="#F59A24" fill="#F59A24" style="stroke-width: 0.1px;"/> <path d="M 116.8623745519 423.832054772354 Q 243.182258021779 388.013112847514 156.600746043558 487.4998699731 L 171.644468072896 487.4998699731 Q 250.704119036448 383.670364365889 123.913455007846 411.619225174399 Z" stroke="#F59A24" fill="#F59A24" style="stroke-width: 0.1px;"/> <path d="M 109.02980016806 437.398471559228 Q 233.295720932714 393.721107697239 136.827671865429 487.4998699731 L 151.529615088064 487.4998699731 Q 240.646692544032 389.47702225864 115.347834450123 426.455315178733 Z" stroke="#F59A24" fill="#F59A24" style="stroke-width: 0.1px;"/> <path d="M 104.065938386714 445.996132366268 Q 261.902078363597 377.205219533984 194.040386727194 487.4998699731 L 201.245559148824 487.4998699731 Q 265.504664574412 375.125265415392 106.777992282707 441.298717225543 Z" stroke="#F59A24" fill="#F59A24" style="stroke-width: 0.1px;"/> <path d="M 100.411111043057 452.326479018373 Q 253.998678790175 381.768249405213 178.23358758035 487.4998699731 L 181.829850464157 487.4998699731 Q 255.796810232079 380.730097733191 101.712586121034 450.072258058532 Z" stroke="#F59A24" fill="#F59A24" style="stroke-width: 0.1px;"/> <path d="M 106.848065901958 441.17734615673 Q 261.858023004491 377.230654907423 193.952276008983 487.4998699731 L 187.742814019594 487.4998699731 Q 258.753292009797 379.023172182972 109.081461957244 437.30899071555 Z" stroke="#F59A24" fill="#F59A24" style="stroke-width: 0.1px;"/> <path d="M 119.710616811324 418.898754466767 Q 309.667779916742 349.627678884245 289.571789833485 487.4998699731 L 295.002739533451 487.4998699731 Q 312.383254766725 348.059898748629 122.536249863795 414.004614456342 Z" stroke="#598B2C" fill="#598B2C" style="stroke-width: 0.1px;"/> <path d="M 122.490374613333 414.084072720951 Q 309.290928647038 349.845254066253 288.818087294075 487.4998699731 L 283.787704160847 487.4998699731 Q 306.775737080423 351.297400594301 124.645031908507 410.352096812811 Z" stroke="#598B2C" fill="#598B2C" style="stroke-width: 0.1px;"/> <path d="M 134.94614071074 392.510052993049 Q 256.796734066511 380.152791438213 183.829698133022 487.4998699731 L 203.007734828413 487.4998699731 Q 266.385752414207 374.616569113907 146.125128979695 373.147477334003 Z" stroke="#F59A24" fill="#F59A24" style="stroke-width: 0.1px;"/> <path d="M 142.120229435084 380.084166824478 Q 227.535637468201 397.046693436031 125.307504936402 487.4998699731 L 131.741189554741 487.4998699731 Q 230.752479777371 395.189448662891 145.343174628508 374.501861999458 Z" stroke="#F59A24" fill="#F59A24" style="stroke-width: 0.1px;"/> <path d="M 125.471802724086 408.920087754013 Q 256.791168313731 380.156004827079 183.818566627461 487.4998699731 L 174.117528841313 487.4998699731 Q 251.940649420657 382.956453215705 131.904500261793 397.778328788982 Z" stroke="#F59A24" fill="#F59A24" style="stroke-width: 0.1px;"/> <path d="M 155.956694026677 356.11870715471 Q 246.531040747858 386.079692239155 163.298311495717 487.4998699731 L 168.687191648169 487.4998699731 Q 249.225480824084 384.524056535831 158.474186558513 351.758282181896 Z" stroke="#F59A24" fill="#F59A24" style="stroke-width: 0.1px;"/> <path d="M 168.657607025844 334.120080537642 Q 279.358681644138 367.126644930828 228.953593288275 487.4998699731 L 234.797691734593 487.4998699731 Q 282.280730867296 365.439599025252 171.779760331303 328.712352383567 Z" stroke="#EEE82C" fill="#EEE82C" style="stroke-width: 0.1px;"/> <path d="M 165.867264589745 338.95309540748 Q 274.732931800574 369.797322848213 219.702093601148 487.4998699731 L 229.292619037998 487.4998699731 Q 279.528194518999 367.028776626895 168.525570124512 334.348775159222 Z" stroke="#EEE82C" fill="#EEE82C" style="stroke-width: 0.1px;"/> <path d="M 161.583981133483 346.371959976946 Q 269.932590111106 372.56880141483 210.101410222213 487.4998699731 L 215.254746040667 487.4998699731 Q 272.509258020333 371.081161503825 163.795756425172 342.541052796815 Z" stroke="#EEE82C" fill="#EEE82C" style="stroke-width: 0.1px;"/> <path d="M 147.961577466392 369.966655249559 Q 300.831368043617 354.729383657864 271.898966087233 487.4998699731 L 298.976351751721 487.4998699731 Q 314.37006087586 346.912815706693 160.4971079493 348.254479553335 Z" stroke="#598B2C" fill="#598B2C" style="stroke-width: 0.1px;"/> <path d="M 147.467853198103 370.821810767166 Q 376.735397670038 310.906171720473 423.707025340076 487.4998699731 L 428.626605989195 487.4998699731 Q 379.195187994598 309.486011114438 149.051956754818 368.078062922485 Z" stroke="#0D2818" fill="#0D2818" style="stroke-width: 0.1px;"/> <path d="M 151.680913812053 363.524575728438 Q 370.098786317834 314.737821071175 410.433802635667 487.4998699731 L 416.094871148677 487.4998699731 Q 372.929320574338 313.103611356231 153.129515176338 361.015524565582 Z" stroke="#0D2818" fill="#0D2818" style="stroke-width: 0.1px;"/> <path d="M 180.262703465297 314.019463877773 Q 286.004885175547 363.28945753288 242.246000351094 487.4998699731 L 269.274343561456 487.4998699731 Q 299.519056780728 355.487046918754 195.001201253025 288.491636882186 Z" stroke="#EEE82C" fill="#EEE82C" style="stroke-width: 0.1px;"/> <path d="M 172.696439954634 327.124616701695 Q 282.289539682514 365.434513253415 234.815309365027 487.4998699731 L 241.717297357183 487.4998699731 Q 285.740533678592 363.442080940808 177.343336648136 319.075955531026 Z" stroke="#EEE82C" fill="#EEE82C" style="stroke-width: 0.1px;"/> <path d="M 191.745272661336 294.131070628807 Q 334.806799090559 335.113659397079 339.849828181117 487.4998699731 L 345.875335029525 487.4998699731 Q 337.819552514762 333.374245396613 194.998081598249 288.49704028276 Z" stroke="#598B2C" fill="#598B2C" style="stroke-width: 0.1px;"/> <path d="M 189.470057161879 298.071859472035 Q 332.581041175263 336.398701328626 335.398312350525 487.4998699731 L 339.663896899705 487.4998699731 Q 334.713833449852 335.167333134766 191.619069488927 294.349660935497 Z" stroke="#598B2C" fill="#598B2C" style="stroke-width: 0.1px;"/> <path d="M 195.741274745204 287.209791992396 Q 267.903298594562 373.740413418171 206.042827189125 487.4998699731 L 210.10217102016 487.4998699731 Q 269.93297051008 372.56858179138 197.401369827205 284.334422964977 Z" stroke="#EEE82C" fill="#EEE82C" style="stroke-width: 0.1px;"/> <path d="M 212.453864821884 258.262736853516 Q 296.311394014589 357.338991880254 262.859018029177 487.4998699731 L 269.279388683438 487.4998699731 Q 299.521579341719 355.485590517486 214.770286292925 254.25057717393 Z" stroke="#EEE82C" fill="#EEE82C" style="stroke-width: 0.1px;"/> <path d="M 210.063449118844 262.403058302391 Q 293.820823610361 358.77692337357 257.877877220722 487.4998699731 L 261.385723132906 487.4998699731 Q 295.574746566453 357.764295482733 211.548865215387 259.830242152799 Z" stroke="#EEE82C" fill="#EEE82C" style="stroke-width: 0.1px;"/> <path d="M 197.406954851024 284.324749419959 Q 315.19377294503 346.437245321823 300.62377589006 487.4998699731 L 338.540627086193 487.4998699731 Q 334.152198543096 335.491593199368 211.479295383395 259.950740636483 Z" stroke="#598B2C" fill="#598B2C" style="stroke-width: 0.1px;"/> <path d="M 211.746037345417 259.48873000575 Q 334.348339346116 335.378351253945 338.932908692233 487.4998699731 L 346.353757660785 487.4998699731 Q 338.058763830393 333.23613667914 215.073712895305 253.72502688224 Z" stroke="#598B2C" fill="#598B2C" style="stroke-width: 0.1px;"/> <path d="M 216.146446680426 251.866997463414 Q 304.613088321979 352.546006437152 279.462406643958 487.4998699731 L 283.089227170745 487.4998699731 Q 306.426498585373 351.49903353343 218.760134519764 247.339957330556 Z" stroke="#598B2C" fill="#598B2C" style="stroke-width: 0.1px;"/> <path d="M 234.945437893394 219.306189551512 Q 347.48803645323 327.792143592083 365.21230290646 487.4998699731 L 371.828001986272 487.4998699731 Q 350.795885993136 325.882355769779 238.253324169569 213.576762455517 Z" stroke="#004F2D" fill="#004F2D" style="stroke-width: 0.1px;"/> <path d="M 239.575223675828 211.287165348176 Q 340.691246507761 331.716272096725 351.618723015521 487.4998699731 L 347.814227154539 487.4998699731 Q 338.788998577269 332.81453545146 241.114232533481 208.621523813423 Z" stroke="#004F2D" fill="#004F2D" style="stroke-width: 0.1px;"/> <path d="M 218.981652966235 246.956276126454 Q 372.734116262012 313.2163126185 415.704462524024 487.4998699731 L 439.793372600502 487.4998699731 Q 384.778571300251 306.26244325993 229.674592388994 228.435561763979 Z" stroke="#0D2818" fill="#0D2818" style="stroke-width: 0.1px;"/> <path d="M 216.372825717392 251.47489746962 Q 370.050224198006 314.76585842413 410.336678396011 487.4998699731 L 415.691429023595 487.4998699731 Q 372.727599511798 313.22007506599 218.765695310779 247.330325757988 Z" stroke="#0D2818" fill="#0D2818" style="stroke-width: 0.1px;"/> <path d="M 243.732431305641 204.086670515728 Q 280.80618355576 366.2909293125 231.848597111521 487.4998699731 L 227.961019535708 487.4998699731 Q 278.862394767854 367.413176292446 245.022684044136 201.851887218049 Z" stroke="#EEE82C" fill="#EEE82C" style="stroke-width: 0.1px;"/> <path d="M 245.528347432767 200.976052537414 Q 285.997565719024 363.293683423074 242.231361438047 487.4998699731 L 238.487594016611 487.4998699731 Q 284.125682008305 364.374415987349 247.222723005798 198.041307957819 Z" stroke="#EEE82C" fill="#EEE82C" style="stroke-width: 0.1px;"/> <path d="M 243.69189875095 204.156874959813 Q 366.763726078377 316.663318998189 403.763682156753 487.4998699731 L 383.6476718564 487.4998699731 Q 356.7057209282 322.470310979154 252.695853762059 188.561567411509 Z" stroke="#004F2D" fill="#004F2D" style="stroke-width: 0.1px;"/> <path d="M 252.699570309081 188.555130163237 Q 356.545856647645 322.562608664566 383.327943295291 487.4998699731 L 371.94131252463 487.4998699731 Q 350.852541262315 325.849645834868 259.645854087203 176.523813735738 Z" stroke="#004F2D" fill="#004F2D" style="stroke-width: 0.1px;"/> <path d="M 264.209856732261 168.618729268619 Q 392.645823300012 301.720283200086 455.527876600024 487.4998699731 L 463.361925894449 487.4998699731 Q 396.562847947225 299.458787965595 269.053451102982 160.229377727276 Z" stroke="#0D2818" fill="#0D2818" style="stroke-width: 0.1px;"/> <path d="M 252.556179700957 188.803489981837 Q 398.200760499361 298.51313871271 466.637750998722 487.4998699731 L 471.714310698893 487.4998699731 Q 400.739040349446 297.047662157985 254.725306531466 185.046452103334 Z" stroke="#0D2818" fill="#0D2818" style="stroke-width: 0.1px;"/> <path d="M 262.210955152754 172.080928363654 Q 387.343127693002 304.781795936224 444.922485386004 487.4998699731 L 455.272290398064 487.4998699731 Q 392.518030199032 301.794064581337 264.205104551683 168.626960286828 Z" stroke="#0D2818" fill="#0D2818" style="stroke-width: 0.1px;"/> <path d="M 269.95239231314 158.672365878265 Q 354.331052933304 323.841326185243 378.898335866608 487.4998699731 L 383.337424256152 487.4998699731 Q 356.550597128076 322.559871746913 272.540404858001 154.18979665994 Z" stroke="#004F2D" fill="#004F2D" style="stroke-width: 0.1px;"/> <path d="M 277.015666971585 146.438415302025 Q 400.648131442174 297.10014844007 471.532492884348 487.4998699731 L 494.110529159162 487.4998699731 Q 411.937149579581 290.582430779551 289.549277961263 124.729564265598 Z" stroke="#0D2818" fill="#0D2818" style="stroke-width: 0.1px;"/> <path d="M 269.905003150079 158.754446316414 Q 400.605529980841 297.124744405239 471.447289961681 487.4998699731 L 463.373373324582 487.4998699731 Q 396.568571662291 299.455483377161 275.793111762051 148.555943039995 Z" stroke="#0D2818" fill="#0D2818" style="stroke-width: 0.1px;"/><rect x="106.29921" y="487.4998699731" rx="1" ry="1" width="98.0902950868698" height="8" style="fill:f7f7f7;stroke:black;stroke-width:0.1;fill-opacity:0"/> <rect x="205.80682788687" y="487.4998699731" rx="1" ry="1" width="63.5017705008195" height="8" style="fill:f7f7f7;stroke:black;stroke-width:0.1;fill-opacity:0"/> <rect x="270.725921187689" y="487.4998699731" rx="1" ry="1" width="75.6279258898192" height="8" style="fill:f7f7f7;stroke:black;stroke-width:0.1;fill-opacity:0"/> <rect x="347.771169877508" y="487.4998699731" rx="1" ry="1" width="59.9130188848828" height="8" style="fill:f7f7f7;stroke:black;stroke-width:0.1;fill-opacity:0"/> <rect x="409.101511562391" y="487.4998699731" rx="1" ry="1" width="86.9614684376088" height="8" style="fill:f7f7f7;stroke:black;stroke-width:0.1;fill-opacity:0"/> <rect x="106.29921" y="487.4998699731" rx="1" ry="1" width="58.4883080641022" height="8" transform="rotate(-60, 70.86614 487.4999)" style="fill:#f7f7f7;stroke:black;stroke-width:0.1;fill-opacity:0"/> <rect x="166.204840864102" y="487.4998699731" rx="1" ry="1" width="42.5268380075148" height="8" transform="rotate(-60, 70.86614 487.4999)" style="fill:#f7f7f7;stroke:black;stroke-width:0.1;fill-opacity:0"/> <rect x="210.149001671617" y="487.4998699731" rx="1" ry="1" width="48.8657826493688" height="8" transform="rotate(-60, 70.86614 487.4999)" style="fill:#f7f7f7;stroke:black;stroke-width:0.1;fill-opacity:0"/> <rect x="260.432107120986" y="487.4998699731" rx="1" ry="1" width="44.8604826257722" height="8" transform="rotate(-60, 70.86614 487.4999)" style="fill:#f7f7f7;stroke:black;stroke-width:0.1;fill-opacity:0"/> <rect x="306.709912546758" y="487.4998699731" rx="1" ry="1" width="38.7356386412742" height="8" transform="rotate(-60, 70.86614 487.4999)" style="fill:#f7f7f7;stroke:black;stroke-width:0.1;fill-opacity:0"/> <rect x="346.862873988032" y="487.4998699731" rx="1" ry="1" width="50.7058305404156" height="8" transform="rotate(-60, 70.86614 487.4999)" style="fill:#f7f7f7;stroke:black;stroke-width:0.1;fill-opacity:0"/> <rect x="398.986027328448" y="487.4998699731" rx="1" ry="1" width="54.6765541776794" height="8" transform="rotate(-60, 70.86614 487.4999)" style="fill:#f7f7f7;stroke:black;stroke-width:0.1;fill-opacity:0"/> <rect x="455.079904306127" y="487.4998699731" rx="1" ry="1" width="40.9830756938728" height="8" transform="rotate(-60, 70.86614 487.4999)" style="fill:#f7f7f7;stroke:black;stroke-width:0.1;fill-opacity:0"/> <rect x="106.29921" y="487.4998699731" rx="1" ry="1" width="62.9631049243191" height="8" transform="rotate(60, 531.496 487.4999)" style="fill:#f7f7f7;stroke:black;stroke-width:0.1;fill-opacity:0"/> <rect x="170.679637724319" y="487.4998699731" rx="1" ry="1" width="45.3369936148283" height="8" transform="rotate(60, 531.496 487.4999)" style="fill:#f7f7f7;stroke:black;stroke-width:0.1;fill-opacity:0"/> <rect x="217.433954139147" y="487.4998699731" rx="1" ry="1" width="45.9650176356421" height="8" transform="rotate(60, 531.496 487.4999)" style="fill:#f7f7f7;stroke:black;stroke-width:0.1;fill-opacity:0"/> <rect x="264.81629457479" y="487.4998699731" rx="1" ry="1" width="44.2168665358356" height="8" transform="rotate(60, 531.496 487.4999)" style="fill:#f7f7f7;stroke:black;stroke-width:0.1;fill-opacity:0"/> <rect x="310.450483910625" y="487.4998699731" rx="1" ry="1" width="40.9520614109479" height="8" transform="rotate(60, 531.496 487.4999)" style="fill:#f7f7f7;stroke:black;stroke-width:0.1;fill-opacity:0"/> <rect x="352.819868121573" y="487.4998699731" rx="1" ry="1" width="48.7871570032792" height="8" transform="rotate(60, 531.496 487.4999)" style="fill:#f7f7f7;stroke:black;stroke-width:0.1;fill-opacity:0"/> <rect x="403.024347924852" y="487.4998699731" rx="1" ry="1" width="47.8332464089006" height="8" transform="rotate(60, 531.496 487.4999)" style="fill:#f7f7f7;stroke:black;stroke-width:0.1;fill-opacity:0"/> <rect x="452.274917133753" y="487.4998699731" rx="1" ry="1" width="43.7880628662472" height="8" transform="rotate(60, 531.496 487.4999)" style="fill:#f7f7f7;stroke:black;stroke-width:0.1;fill-opacity:0"/><rect x="106.29921" y="489.4998699731" rx="1" ry="1" width="98.0902950868698" height="4" style="fill:#216218;stroke:#216218;stroke-width:0.1"/> <rect x="205.80682788687" y="489.4998699731" rx="1" ry="1" width="63.5017705008195" height="4" style="fill:#216218;stroke:#216218;stroke-width:0.1"/> <rect x="270.725921187689" y="489.4998699731" rx="1" ry="1" width="75.6279258898192" height="4" style="fill:#216218;stroke:#216218;stroke-width:0.1"/> <rect x="347.771169877508" y="489.4998699731" rx="1" ry="1" width="59.9130188848828" height="4" style="fill:#216218;stroke:#216218;stroke-width:0.1"/> <rect x="409.101511562391" y="489.4998699731" rx="1" ry="1" width="86.9614684376088" height="4" style="fill:#216218;stroke:#216218;stroke-width:0.1"/> <rect x="106.29921" y="489.4998699731" rx="1" ry="1" width="58.4883080641022" height="4" transform="rotate(-60, 70.86614 487.4999)" style="fill:#B2182B;stroke:#B2182B;stroke-width:0.1"/> <rect x="166.204840864102" y="489.4998699731" rx="1" ry="1" width="42.5268380075148" height="4" transform="rotate(-60, 70.86614 487.4999)" style="fill:#B2182B;stroke:#B2182B;stroke-width:0.1"/> <rect x="210.149001671617" y="489.4998699731" rx="1" ry="1" width="48.8657826493688" height="4" transform="rotate(-60, 70.86614 487.4999)" style="fill:#B2182B;stroke:#B2182B;stroke-width:0.1"/> <rect x="260.432107120986" y="489.4998699731" rx="1" ry="1" width="44.8604826257722" height="4" transform="rotate(-60, 70.86614 487.4999)" style="fill:#B2182B;stroke:#B2182B;stroke-width:0.1"/> <rect x="306.709912546758" y="489.4998699731" rx="1" ry="1" width="38.7356386412742" height="4" transform="rotate(-60, 70.86614 487.4999)" style="fill:#B2182B;stroke:#B2182B;stroke-width:0.1"/> <rect x="346.862873988032" y="489.4998699731" rx="1" ry="1" width="50.7058305404156" height="4" transform="rotate(-60, 70.86614 487.4999)" style="fill:#B2182B;stroke:#B2182B;stroke-width:0.1"/> <rect x="398.986027328448" y="489.4998699731" rx="1" ry="1" width="54.6765541776794" height="4" transform="rotate(-60, 70.86614 487.4999)" style="fill:#B2182B;stroke:#B2182B;stroke-width:0.1"/> <rect x="455.079904306127" y="489.4998699731" rx="1" ry="1" width="40.9830756938728" height="4" transform="rotate(-60, 70.86614 487.4999)" style="fill:#B2182B;stroke:#B2182B;stroke-width:0.1"/> <rect x="106.29921" y="489.4998699731" rx="1" ry="1" width="62.9631049243191" height="4" transform="rotate(60, 531.496 487.4999)" style="fill:#2166AC;stroke:#2166AC;stroke-width:0.1"/> <rect x="170.679637724319" y="489.4998699731" rx="1" ry="1" width="45.3369936148283" height="4" transform="rotate(60, 531.496 487.4999)" style="fill:#2166AC;stroke:#2166AC;stroke-width:0.1"/> <rect x="217.433954139147" y="489.4998699731" rx="1" ry="1" width="45.9650176356421" height="4" transform="rotate(60, 531.496 487.4999)" style="fill:#2166AC;stroke:#2166AC;stroke-width:0.1"/> <rect x="264.81629457479" y="489.4998699731" rx="1" ry="1" width="44.2168665358356" height="4" transform="rotate(60, 531.496 487.4999)" style="fill:#2166AC;stroke:#2166AC;stroke-width:0.1"/> <rect x="310.450483910625" y="489.4998699731" rx="1" ry="1" width="40.9520614109479" height="4" transform="rotate(60, 531.496 487.4999)" style="fill:#2166AC;stroke:#2166AC;stroke-width:0.1"/> <rect x="352.819868121573" y="489.4998699731" rx="1" ry="1" width="48.7871570032792" height="4" transform="rotate(60, 531.496 487.4999)" style="fill:#2166AC;stroke:#2166AC;stroke-width:0.1"/> <rect x="403.024347924852" y="489.4998699731" rx="1" ry="1" width="47.8332464089006" height="4" transform="rotate(60, 531.496 487.4999)" style="fill:#2166AC;stroke:#2166AC;stroke-width:0.1"/> <rect x="452.274917133753" y="489.4998699731" rx="1" ry="1" width="43.7880628662472" height="4" transform="rotate(60, 531.496 487.4999)" style="fill:#2166AC;stroke:#2166AC;stroke-width:0.1"/></svg>