<?xml version="1.0" standalone="no"?> <!DOCTYPE svg PUBLIC "-//W3C//DTD SVG 1.1//EN" "http://www.w3.org/Graphics/SVG/1.1/DTD/svg11.dtd">  <svg id="svg" width="744.0945" height="1052.362"> 	<text x="70.86614" y="103.29921" font-size="10" fill="#216218" >thaliana</text><text x="70.86614" y="298.181095" font-size="10" fill="#2166AC" >petraea</text><text x="190.235092592792" y="85.039368" font-size="9" fill="black" >1</text> <text x="306.32637885359" y="85.039368" font-size="9" fill="black" >2</text> <text x="406.7727492991" y="85.039368" font-size="9" fill="black" >3</text> <text x="504.719574108048" y="85.039368" font-size="9" fill="black" >4</text> <text x="610.560148569747" y="85.039368" font-size="9" fill="black" >5</text> <text x="165.379082354474" y="310.0393625" font-size="9" fill="black" >1</text> <text x="243.681785734109" y="310.0393625" font-size="9" fill="black" >2</text> <text x="310.250734828651" y="310.0393625" font-size="9" fill="black" >3</text> <text x="376.046461872394" y="310.0393625" font-size="9" fill="black" >4</text> <text x="438.381752716256" y="310.0393625" font-size="9" fill="black" >5</text> <text x="503.871908248465" y="310.0393625" font-size="9" fill="black" >6</text> <text x="574.112135514336" y="310.0393625" font-size="9" fill="black" >7</text> <text x="640.901495558747" y="310.0393625" font-size="9" fill="black" >8</text><path d="M 125.935694799944 106.29921 Q 125.935694799944 159.448815 125.768420357814 194.881885 T 125.601145915684 283.46456 L 155.914101162749 283.46456 Q 155.914101162749 230.314955 159.235042602908 194.881885 T 162.555984043067 106.29921 Z" stroke="#F59A24" fill="#F59A24" style="stroke-width: 0.5px;"/> <path d="M 191.373112637047 106.29921 Q 191.373112637047 159.448815 189.253554002529 194.881885 T 187.133995368012 283.46456 L 208.598161121967 283.46456 Q 208.598161121967 230.314955 211.819563619135 194.881885 T 215.040966116303 106.29921 Z" stroke="#F59A24" fill="#F59A24" style="stroke-width: 0.5px;"/> <path d="M 166.593003303012 106.29921 Q 166.593003303012 159.448815 162.854362157305 194.881885 T 159.115721011598 283.46456 L 165.977488929155 283.46456 Q 165.977488929155 230.314955 169.927664562096 194.881885 T 173.877840195036 106.29921 Z" stroke="#F59A24" fill="#F59A24" style="stroke-width: 0.5px;"/> <path d="M 246.238232876442 106.29921 Q 246.238232876442 159.448815 195.98445787716 194.881885 T 145.730682877878 283.46456 L 153.129477519455 283.46456 Q 153.129477519455 230.314955 204.702217908585 194.881885 T 256.274958297716 106.29921 Z" stroke="#F59A24" fill="#F59A24" style="stroke-width: 0.5px;"/> <path d="M 224.219536647905 106.29921 Q 224.219536647905 159.448815 180.561557045714 194.881885 T 136.903577443523 283.46456 L 140.115108175909 283.46456 Q 140.115108175909 230.314955 184.672099604964 194.881885 T 229.22909103402 106.29921 Z" stroke="#F59A24" fill="#F59A24" style="stroke-width: 0.5px;"/> <path d="M 181.333405453101 106.29921 Q 181.333405453101 159.448815 178.397912627207 194.881885 T 175.462419801313 283.46456 L 179.141845498744 283.46456 Q 179.141845498744 230.314955 183.668803549943 194.881885 T 188.195761601142 106.29921 Z" stroke="#F59A24" fill="#F59A24" style="stroke-width: 0.5px;"/> <path d="M 246.115495621369 106.29921 Q 246.115495621369 159.448815 199.686993153408 194.881885 T 153.258490685447 283.46456 L 159.226175277063 283.46456 Q 159.226175277063 230.314955 198.345979543322 194.881885 T 237.465783809582 106.29921 Z" stroke="#F59A24" fill="#F59A24" style="stroke-width: 0.5px;"/> <path d="M 326.610036563706 106.29921 Q 326.610036563706 159.448815 227.849198198378 194.881885 T 129.08835983305 283.46456 L 132.20819306899 283.46456 Q 132.20819306899 230.314955 226.898100170952 194.881885 T 321.588007272915 106.29921 Z" stroke="#EEE82C" fill="#EEE82C" style="stroke-width: 0.5px;"/> <path d="M 381.400512426248 106.29921 Q 381.400512426248 159.448815 292.930620245315 194.881885 T 204.460728064381 283.46456 L 210.661414443526 283.46456 Q 210.661414443526 230.314955 292.527329426043 194.881885 T 374.39324440856 106.29921 Z" stroke="#598B2C" fill="#598B2C" style="stroke-width: 0.5px;"/> <path d="M 232.616341995896 106.29921 Q 232.616341995896 159.448815 239.546798824115 194.881885 T 246.477255652333 283.46456 L 275.511430489234 283.46456 Q 275.511430489234 230.314955 267.120540000569 194.881885 T 258.729649511904 106.29921 Z" stroke="#F59A24" fill="#F59A24" style="stroke-width: 0.5px;"/> <path d="M 152.447561599457 106.29921 Q 152.447561599457 159.448815 209.939747459975 194.881885 T 267.431933320493 283.46456 L 273.537677741905 283.46456 Q 273.537677741905 230.314955 216.496909308065 194.881885 T 159.456140874225 106.29921 Z" stroke="#F59A24" fill="#F59A24" style="stroke-width: 0.5px;"/> <path d="M 231.999350634194 106.29921 Q 231.999350634194 159.448815 223.281764645005 194.881885 T 214.564178655817 283.46456 L 227.820005755053 283.46456 Q 227.820005755053 230.314955 224.491961363142 194.881885 T 221.163916971232 106.29921 Z" stroke="#F59A24" fill="#F59A24" style="stroke-width: 0.5px;"/> <path d="M 203.41486239717 106.29921 Q 203.41486239717 159.448815 252.467143832665 194.881885 T 301.51942526816 283.46456 L 307.667827808376 283.46456 Q 307.667827808376 230.314955 259.286355943392 194.881885 T 210.904884078408 106.29921 Z" stroke="#F59A24" fill="#F59A24" style="stroke-width: 0.5px;"/> <path d="M 270.490290283126 106.29921 Q 270.490290283126 159.448815 293.748689963226 194.881885 T 317.007089643325 283.46456 L 321.932507778022 283.46456 Q 321.932507778022 230.314955 299.620047732111 194.881885 T 277.307587686201 106.29921 Z" stroke="#EEE82C" fill="#EEE82C" style="stroke-width: 0.5px;"/> <path d="M 357.832363881662 106.29921 Q 357.832363881662 159.448815 319.84564826791 194.881885 T 281.858932654158 283.46456 L 312.894366868474 283.46456 Q 312.894366868474 230.314955 354.196315378971 194.881885 T 395.498263889467 106.29921 Z" stroke="#598B2C" fill="#598B2C" style="stroke-width: 0.5px;"/> <path d="M 572.437301748629 106.29921 Q 572.437301748629 159.448815 426.565880437001 194.881885 T 280.694459125372 283.46456 L 284.820916301366 283.46456 Q 284.820916301366 230.314955 432.235434221791 194.881885 T 579.649952142215 106.29921 Z" stroke="#0D2818" fill="#0D2818" style="stroke-width: 0.5px;"/> <path d="M 553.947849457433 106.29921 Q 553.947849457433 159.448815 422.45696337378 194.881885 T 290.966077290126 283.46456 L 294.804836589972 283.46456 Q 294.804836589972 230.314955 428.319245908686 194.881885 T 561.8336552274 106.29921 Z" stroke="#0D2818" fill="#0D2818" style="stroke-width: 0.5px;"/> <path d="M 318.877540097419 106.29921 Q 318.877540097419 159.448815 348.206009730286 194.881885 T 377.534479363153 283.46456 L 408.642039552286 283.46456 Q 408.642039552286 230.314955 380.624668690257 194.881885 T 352.607297828228 106.29921 Z" stroke="#EEE82C" fill="#EEE82C" style="stroke-width: 0.5px;"/> <path d="M 304.606244657925 106.29921 Q 304.606244657925 159.448815 326.144329888221 194.881885 T 347.682415118517 283.46456 L 367.01121321542 283.46456 Q 367.01121321542 230.314955 340.981613414727 194.881885 T 314.952013614035 106.29921 Z" stroke="#EEE82C" fill="#EEE82C" style="stroke-width: 0.5px;"/> <path d="M 455.513058907559 106.29921 Q 455.513058907559 159.448815 429.302255958931 194.881885 T 403.091453010302 283.46456 L 408.628302241312 283.46456 Q 408.628302241312 230.314955 434.754464566497 194.881885 T 460.880626891681 106.29921 Z" stroke="#598B2C" fill="#598B2C" style="stroke-width: 0.5px;"/> <path d="M 264.526495501456 106.29921 Q 264.526495501456 159.448815 338.433882667258 194.881885 T 412.341269833061 283.46456 L 417.552119085751 283.46456 Q 417.552119085751 230.314955 343.866617803227 194.881885 T 270.181116520703 106.29921 Z" stroke="#EEE82C" fill="#EEE82C" style="stroke-width: 0.5px;"/> <path d="M 343.14672619374 106.29921 Q 343.14672619374 159.448815 402.166961149892 194.881885 T 461.187196106045 283.46456 L 468.15540272263 283.46456 Q 468.15540272263 230.314955 410.384864174964 194.881885 T 352.614325627298 106.29921 Z" stroke="#EEE82C" fill="#EEE82C" style="stroke-width: 0.5px;"/> <path d="M 336.732146375729 106.29921 Q 336.732146375729 159.448815 396.415018429769 194.881885 T 456.09789048381 283.46456 L 460.86323009942 283.46456 Q 460.86323009942 230.314955 401.814733604974 194.881885 T 342.766237110527 106.29921 Z" stroke="#EEE82C" fill="#EEE82C" style="stroke-width: 0.5px;"/> <path d="M 439.419587642024 106.29921 Q 439.419587642024 159.448815 444.921173958945 194.881885 T 450.422760275866 283.46456 L 468.66114876608 283.46456 Q 468.66114876608 230.314955 465.104106543458 194.881885 T 461.547064320836 106.29921 Z" stroke="#598B2C" fill="#598B2C" style="stroke-width: 0.5px;"/> <path d="M 422.851710750301 106.29921 Q 422.851710750301 159.448815 428.504230921584 194.881885 T 434.156751092867 283.46456 L 450.061158518312 283.46456 Q 450.061158518312 230.314955 444.734140118437 194.881885 T 439.407121718561 106.29921 Z" stroke="#598B2C" fill="#598B2C" style="stroke-width: 0.5px;"/> <path d="M 397.529562766566 106.29921 Q 397.529562766566 159.448815 407.461258510043 194.881885 T 417.392954253521 283.46456 L 430.625927542041 283.46456 Q 430.625927542041 230.314955 420.186406899557 194.881885 T 409.746886257072 106.29921 Z" stroke="#598B2C" fill="#598B2C" style="stroke-width: 0.5px;"/> <path d="M 420.522994518426 106.29921 Q 420.522994518426 159.448815 458.518160933548 194.881885 T 496.51332734867 283.46456 L 499.997130944395 283.46456 Q 499.997130944395 230.314955 465.075598221211 194.881885 T 430.154065498027 106.29921 Z" stroke="#598B2C" fill="#598B2C" style="stroke-width: 0.5px;"/> <path d="M 487.035911079945 106.29921 Q 487.035911079945 159.448815 502.915157943587 194.881885 T 518.794404807228 283.46456 L 530.8028485701 283.46456 Q 530.8028485701 230.314955 514.702124581762 194.881885 T 498.601400593423 106.29921 Z" stroke="#004F2D" fill="#004F2D" style="stroke-width: 0.5px;"/> <path d="M 472.327778427696 106.29921 Q 472.327778427696 159.448815 502.710038006379 194.881885 T 533.092297585062 283.46456 L 539.535553275243 283.46456 Q 539.535553275243 230.314955 502.343015681604 194.881885 T 465.150478087964 106.29921 Z" stroke="#004F2D" fill="#004F2D" style="stroke-width: 0.5px;"/> <path d="M 553.812556466769 106.29921 Q 553.812556466769 159.448815 513.713383517465 194.881885 T 473.614210568162 283.46456 L 506.200849367181 283.46456 Q 506.200849367181 230.314955 549.326964549958 194.881885 T 592.453079732735 106.29921 Z" stroke="#0D2818" fill="#0D2818" style="stroke-width: 0.5px;"/> <path d="M 596.883121358452 106.29921 Q 596.883121358452 159.448815 553.823254843538 194.881885 T 510.763388328624 283.46456 L 517.139764468832 283.46456 Q 517.139764468832 230.314955 563.62746909101 194.881885 T 610.115173713189 106.29921 Z" stroke="#0D2818" fill="#0D2818" style="stroke-width: 0.5px;"/> <path d="M 300.473647330624 106.29921 Q 300.473647330624 159.448815 424.320132599071 194.881885 T 548.166617867519 283.46456 L 551.685551849897 283.46456 Q 551.685551849897 230.314955 423.371923326664 194.881885 T 295.05829480343 106.29921 Z" stroke="#EEE82C" fill="#EEE82C" style="stroke-width: 0.5px;"/> <path d="M 314.936723099125 106.29921 Q 314.936723099125 159.448815 433.964691280772 194.881885 T 552.992659462418 283.46456 L 557.251196766016 283.46456 Q 557.251196766016 230.314955 433.4864466455 194.881885 T 309.721696524983 106.29921 Z" stroke="#EEE82C" fill="#EEE82C" style="stroke-width: 0.5px;"/> <path d="M 543.483610839058 106.29921 Q 543.483610839058 159.448815 545.570041499516 194.881885 T 547.656472159974 283.46456 L 571.241750310134 283.46456 Q 571.241750310134 230.314955 543.153910093796 194.881885 T 515.066069877457 106.29921 Z" stroke="#004F2D" fill="#004F2D" style="stroke-width: 0.5px;"/> <path d="M 514.586113861716 106.29921 Q 514.586113861716 159.448815 542.92829210068 194.881885 T 571.270470339643 283.46456 L 581.565381699556 283.46456 Q 581.565381699556 230.314955 542.615864154733 194.881885 T 503.66634660991 106.29921 Z" stroke="#004F2D" fill="#004F2D" style="stroke-width: 0.5px;"/> <path d="M 633.655561328796 106.29921 Q 633.655561328796 159.448815 603.114892123052 194.881885 T 572.574222917309 283.46456 L 576.863869221462 283.46456 Q 576.863869221462 230.314955 608.08739401448 194.881885 T 639.310918807498 106.29921 Z" stroke="#0D2818" fill="#0D2818" style="stroke-width: 0.5px;"/> <path d="M 606.324540556496 106.29921 Q 606.324540556496 159.448815 597.298235535938 194.881885 T 588.27193051538 283.46456 L 592.565967754136 283.46456 Q 592.565967754136 230.314955 604.486667148782 194.881885 T 616.407366543428 106.29921 Z" stroke="#0D2818" fill="#0D2818" style="stroke-width: 0.5px;"/> <path d="M 626.064667155215 106.29921 Q 626.064667155215 159.448815 613.146387526762 194.881885 T 600.228107898309 283.46456 L 609.034154887522 283.46456 Q 609.034154887522 230.314955 614.410672464892 194.881885 T 619.787190042262 106.29921 Z" stroke="#0D2818" fill="#0D2818" style="stroke-width: 0.5px;"/> <path d="M 508.450297419352 106.29921 Q 508.450297419352 159.448815 560.742168970065 194.881885 T 613.034040520778 283.46456 L 618.637015655597 283.46456 Q 618.637015655597 230.314955 565.921603287694 194.881885 T 513.20619091979 106.29921 Z" stroke="#004F2D" fill="#004F2D" style="stroke-width: 0.5px;"/> <path d="M 639.057648604581 106.29921 Q 639.057648604581 159.448815 637.758303251425 194.881885 T 636.458957898269 283.46456 L 671.006610205591 283.46456 Q 671.006610205591 230.314955 670.757606699813 194.881885 T 670.508603194036 106.29921 Z" stroke="#0D2818" fill="#0D2818" style="stroke-width: 0.5px;"/> <path d="M 634.279706226548 106.29921 Q 634.279706226548 159.448815 626.664232921598 194.881885 T 619.048759616647 283.46456 L 630.967763911736 283.46456 Q 630.967763911736 230.314955 629.569195383316 194.881885 T 628.170626854897 106.29921 Z" stroke="#0D2818" fill="#0D2818" style="stroke-width: 0.5px;"/> <path d="M 638.97565462169 106.29921 Q 638.97565462169 159.448815 625.880413023928 194.881885 T 612.785171426166 283.46456 L 618.637015655597 283.46456 Q 618.637015655597 230.314955 626.274021546928 194.881885 T 633.911027438259 106.29921 Z" stroke="#0D2818" fill="#0D2818" style="stroke-width: 0.5px;"/><rect x="124.015745" y="88.582675" rx="2" ry="2" width="136.638695185584" height="17.71654" style="fill:#f7f7f7;stroke:black;stroke-width:0.5"/> <rect x="264.197747185584" y="88.582675" rx="2" ry="2" width="88.4572633360124" height="17.71654" style="fill:#f7f7f7;stroke:black;stroke-width:0.5"/> <rect x="356.198317521597" y="88.582675" rx="2" ry="2" width="105.348863555006" height="17.71654" style="fill:#f7f7f7;stroke:black;stroke-width:0.5"/> <rect x="465.090488076603" y="88.582675" rx="2" ry="2" width="83.4581720628902" height="17.71654" style="fill:#f7f7f7;stroke:black;stroke-width:0.5"/> <rect x="552.091967139493" y="88.582675" rx="2" ry="2" width="121.136362860507" height="17.71654" style="fill:#f7f7f7;stroke:black;stroke-width:0.5"/> <rect x="124.015745" y="283.46456" rx="2" ry="2" width="86.926674708948" height="17.71654" style="fill:#f7f7f7;stroke:black;stroke-width:0.5"/> <rect x="214.485726708948" y="283.46456" rx="2" ry="2" width="62.5921180503226" height="17.71654" style="fill:#f7f7f7;stroke:black;stroke-width:0.5"/> <rect x="280.621151759271" y="283.46456" rx="2" ry="2" width="63.4591661387597" height="17.71654" style="fill:#f7f7f7;stroke:black;stroke-width:0.5"/> <rect x="347.62362489803" y="283.46456" rx="2" ry="2" width="61.0456739487282" height="17.71654" style="fill:#f7f7f7;stroke:black;stroke-width:0.5"/> <rect x="412.212605846759" y="283.46456" rx="2" ry="2" width="56.5382937389953" height="17.71654" style="fill:#f7f7f7;stroke:black;stroke-width:0.5"/> <rect x="472.294206585754" y="283.46456" rx="2" ry="2" width="67.3554033254227" height="17.71654" style="fill:#f7f7f7;stroke:black;stroke-width:0.5"/> <rect x="543.192916911177" y="283.46456" rx="2" ry="2" width="66.038437206318" height="17.71654" style="fill:#f7f7f7;stroke:black;stroke-width:0.5"/> <rect x="612.774661117494" y="283.46456" rx="2" ry="2" width="60.4536688825055" height="17.71654" style="fill:#f7f7f7;stroke:black;stroke-width:0.5"/><rect x="124.015745" y="91.582675" rx="2" ry="2" width="136.638695185584" height="11.71654" style="fill:#216218;stroke:#216218;stroke-width:0.5"/> <rect x="264.197747185584" y="91.582675" rx="2" ry="2" width="88.4572633360124" height="11.71654" style="fill:#216218;stroke:#216218;stroke-width:0.5"/> <rect x="356.198317521597" y="91.582675" rx="2" ry="2" width="105.348863555006" height="11.71654" style="fill:#216218;stroke:#216218;stroke-width:0.5"/> <rect x="465.090488076603" y="91.582675" rx="2" ry="2" width="83.4581720628902" height="11.71654" style="fill:#216218;stroke:#216218;stroke-width:0.5"/> <rect x="552.091967139493" y="91.582675" rx="2" ry="2" width="121.136362860507" height="11.71654" style="fill:#216218;stroke:#216218;stroke-width:0.5"/> <rect x="124.015745" y="286.46456" rx="2" ry="2" width="86.926674708948" height="11.71654" style="fill:#2166AC;stroke:#2166AC;stroke-width:0.5"/> <rect x="214.485726708948" y="286.46456" rx="2" ry="2" width="62.5921180503226" height="11.71654" style="fill:#2166AC;stroke:#2166AC;stroke-width:0.5"/> <rect x="280.621151759271" y="286.46456" rx="2" ry="2" width="63.4591661387597" height="11.71654" style="fill:#2166AC;stroke:#2166AC;stroke-width:0.5"/> <rect x="347.62362489803" y="286.46456" rx="2" ry="2" width="61.0456739487282" height="11.71654" style="fill:#2166AC;stroke:#2166AC;stroke-width:0.5"/> <rect x="412.212605846759" y="286.46456" rx="2" ry="2" width="56.5382937389953" height="11.71654" style="fill:#2166AC;stroke:#2166AC;stroke-width:0.5"/> <rect x="472.294206585754" y="286.46456" rx="2" ry="2" width="67.3554033254227" height="11.71654" style="fill:#2166AC;stroke:#2166AC;stroke-width:0.5"/> <rect x="543.192916911177" y="286.46456" rx="2" ry="2" width="66.038437206318" height="11.71654" style="fill:#2166AC;stroke:#2166AC;stroke-width:0.5"/> <rect x="612.774661117494" y="286.46456" rx="2" ry="2" width="60.4536688825055" height="11.71654" style="fill:#2166AC;stroke:#2166AC;stroke-width:0.5"/></svg>