<?xml version="1.0" standalone="no"?> <!DOCTYPE svg PUBLIC "-//W3C//DTD SVG 1.1//EN" "http://www.w3.org/Graphics/SVG/1.1/DTD/svg11.dtd">  <svg id="svg" width="744.0945" height="1052.362"> 	<text x="70.86614" y="103.29921" font-size="10" fill="#091F34" >thaliana</text><text x="70.86614" y="298.181095" font-size="10" fill="#2166AC" >petraea</text><text x="166.654671014322" y="85.039368" font-size="9" fill="black" >1</text> <text x="241.025900861297" y="85.039368" font-size="9" fill="black" >2</text> <text x="303.692725779307" y="85.039368" font-size="9" fill="black" >3</text> <text x="371.770848577368" y="85.039368" font-size="9" fill="black" >4</text> <text x="435.470481509832" y="85.039368" font-size="9" fill="black" >5</text> <text x="501.580742025229" y="85.039368" font-size="9" fill="black" >6</text> <text x="572.318825627819" y="85.039368" font-size="9" fill="black" >7</text> <text x="640.137158467386" y="85.039368" font-size="9" fill="black" >8</text> <text x="165.379082354474" y="310.0393625" font-size="9" fill="black" >1</text> <text x="243.681785734109" y="310.0393625" font-size="9" fill="black" >2</text> <text x="310.250734828651" y="310.0393625" font-size="9" fill="black" >3</text> <text x="376.046461872394" y="310.0393625" font-size="9" fill="black" >4</text> <text x="438.381752716256" y="310.0393625" font-size="9" fill="black" >5</text> <text x="503.871908248465" y="310.0393625" font-size="9" fill="black" >6</text> <text x="574.112135514336" y="310.0393625" font-size="9" fill="black" >7</text> <text x="640.901495558747" y="310.0393625" font-size="9" fill="black" >8</text><path d="M 611.520176511328 106.29921 Q 611.520176511328 159.448815 594.157500634369 194.881885 T 576.79482475741 283.46456 L 572.579230736031 283.46456 Q 572.579230736031 230.314955 595.667324098328 194.881885 T 618.755417460625 106.29921 Z" stroke="#5499DE" fill="#5499DE" style="stroke-width: 0.5px;"/> <path d="M 628.694675510259 106.29921 Q 628.694675510259 159.448815 629.875290552632 194.881885 T 631.055905595005 283.46456 L 673.21802046965 283.46456 Q 673.21802046965 230.314955 673.221282111745 194.881885 T 673.22454375384 106.29921 Z" stroke="#5499DE" fill="#5499DE" style="stroke-width: 0.5px;"/> <path d="M 617.928587178576 106.29921 Q 617.928587178576 159.448815 618.542207008847 194.881885 T 619.155826839118 283.46456 L 630.967763911736 283.46456 Q 630.967763911736 230.314955 630.093838551697 194.881885 T 629.219913191658 106.29921 Z" stroke="#5499DE" fill="#5499DE" style="stroke-width: 0.5px;"/> <path d="M 611.257167433417 106.29921 Q 611.257167433417 159.448815 612.016155791408 194.881885 T 612.775144149399 283.46456 L 618.687498309291 283.46456 Q 618.687498309291 230.314955 618.554633502638 194.881885 T 618.421768695985 106.29921 Z" stroke="#5499DE" fill="#5499DE" style="stroke-width: 0.5px;"/> <path d="M 576.937563771564 106.29921 Q 576.937563771564 159.448815 442.869855266328 194.881885 T 308.802146761092 283.46456 L 313.259259644608 283.46456 Q 313.259259644608 230.314955 447.403283656491 194.881885 T 581.547307668375 106.29921 Z" stroke="#438FDB" fill="#438FDB" style="stroke-width: 0.5px;"/> <path d="M 542.712094080108 106.29921 Q 542.712094080108 159.448815 446.006772423978 194.881885 T 349.301450767848 283.46456 L 353.141496212885 283.46456 Q 353.141496212885 230.314955 449.396720148922 194.881885 T 545.651944084958 106.29921 Z" stroke="#438FDB" fill="#438FDB" style="stroke-width: 0.5px;"/> <path d="M 541.142163028087 106.29921 Q 541.142163028087 159.448815 542.16964523218 194.881885 T 543.197127436273 283.46456 L 581.583710723455 283.46456 Q 581.583710723455 230.314955 579.426947164855 194.881885 T 577.270183606256 106.29921 Z" stroke="#438FDB" fill="#438FDB" style="stroke-width: 0.5px;"/> <path d="M 599.724046550321 106.29921 Q 599.724046550321 159.448815 599.97307427898 194.881885 T 600.22210200764 283.46456 L 609.139447113235 283.46456 Q 609.139447113235 230.314955 608.420195279966 194.881885 T 607.700943446698 106.29921 Z" stroke="#438FDB" fill="#438FDB" style="stroke-width: 0.5px;"/> <path d="M 588.902803792592 106.29921 Q 588.902803792592 159.448815 588.583734230294 194.881885 T 588.264664667996 283.46456 L 599.874941740101 283.46456 Q 599.874941740101 230.314955 599.821794378921 194.881885 T 599.768647017742 106.29921 Z" stroke="#438FDB" fill="#438FDB" style="stroke-width: 0.5px;"/> <path d="M 576.871534015073 106.29921 Q 576.871534015073 159.448815 579.654845174992 194.881885 T 582.43815633491 283.46456 L 587.901424675729 283.46456 Q 587.901424675729 230.314955 584.911073747916 194.881885 T 581.920722820104 106.29921 Z" stroke="#438FDB" fill="#438FDB" style="stroke-width: 0.5px;"/> <path d="M 568.18694936291 106.29921 Q 568.18694936291 159.448815 593.436099186515 194.881885 T 618.68524901012 283.46456 L 613.035408141231 283.46456 Q 613.035408141231 230.314955 592.760063840152 194.881885 T 572.484719539073 106.29921 Z" stroke="#438FDB" fill="#438FDB" style="stroke-width: 0.5px;"/> <path d="M 485.074350623491 106.29921 Q 485.074350623491 159.448815 382.884404874431 194.881885 T 280.694459125372 283.46456 L 284.820916301366 283.46456 Q 284.820916301366 230.314955 387.681232973916 194.881885 T 490.541549646465 106.29921 Z" stroke="#277ACE" fill="#277ACE" style="stroke-width: 0.5px;"/> <path d="M 473.113485580193 106.29921 Q 473.113485580193 159.448815 382.507689494444 194.881885 T 291.901893408694 283.46456 L 294.915567289357 283.46456 Q 294.915567289357 230.314955 385.99052023469 194.881885 T 477.065473180023 106.29921 Z" stroke="#277ACE" fill="#277ACE" style="stroke-width: 0.5px;"/> <path d="M 469.774324336293 106.29921 Q 469.774324336293 159.448815 471.055207512936 194.881885 T 472.336090689579 283.46456 L 506.200849367181 283.46456 Q 506.200849367181 230.314955 503.667403065314 194.881885 T 501.133956763446 106.29921 Z" stroke="#277ACE" fill="#277ACE" style="stroke-width: 0.5px;"/> <path d="M 521.459717113952 106.29921 Q 521.459717113952 159.448815 521.721073520381 194.881885 T 521.98242992681 283.46456 L 539.571990175903 283.46456 Q 539.571990175903 230.314955 538.560472225912 194.881885 T 537.548954275921 106.29921 Z" stroke="#277ACE" fill="#277ACE" style="stroke-width: 0.5px;"/> <path d="M 500.856761415154 106.29921 Q 500.856761415154 159.448815 503.635875523469 194.881885 T 506.414989631784 283.46456 L 518.13795280954 283.46456 Q 518.13795280954 230.314955 517.856448822553 194.881885 T 517.574944835567 106.29921 Z" stroke="#277ACE" fill="#277ACE" style="stroke-width: 0.5px;"/> <path d="M 525.174057003691 106.29921 Q 525.174057003691 159.448815 545.422021511819 194.881885 T 565.669986019946 283.46456 L 570.842585547419 283.46456 Q 570.842585547419 230.314955 551.285013508729 194.881885 T 531.727441470038 106.29921 Z" stroke="#277ACE" fill="#277ACE" style="stroke-width: 0.5px;"/> <path d="M 461.733010910845 106.29921 Q 461.733010910845 159.448815 432.412231960573 194.881885 T 403.091453010302 283.46456 L 408.628302241312 283.46456 Q 408.628302241312 230.314955 437.182767912804 194.881885 T 465.737233584296 106.29921 Z" stroke="#2166AC" fill="#2166AC" style="stroke-width: 0.5px;"/> <path d="M 426.025441896216 106.29921 Q 426.025441896216 159.448815 395.762250227804 194.881885 T 365.499058559391 283.46456 L 369.069845725746 283.46456 Q 369.069845725746 230.314955 401.7210174367 194.881885 T 434.372189147653 106.29921 Z" stroke="#2166AC" fill="#2166AC" style="stroke-width: 0.5px;"/> <path d="M 449.105302039662 106.29921 Q 449.105302039662 159.448815 449.759403071955 194.881885 T 450.413504104248 283.46456 L 468.677493285407 283.46456 Q 468.677493285407 230.314955 467.448291027937 194.881885 T 466.219088770468 106.29921 Z" stroke="#2166AC" fill="#2166AC" style="stroke-width: 0.5px;"/> <path d="M 434.20059820009 106.29921 Q 434.20059820009 159.448815 434.162292299352 194.881885 T 434.123986398614 283.46456 L 450.061158518312 283.46456 Q 450.061158518312 230.314955 449.557394955246 194.881885 T 449.05363139218 106.29921 Z" stroke="#2166AC" fill="#2166AC" style="stroke-width: 0.5px;"/> <path d="M 412.863156656603 106.29921 Q 412.863156656603 159.448815 414.286957237259 194.881885 T 415.710757817916 283.46456 L 431.309144162974 283.46456 Q 431.309144162974 230.314955 429.336047534483 194.881885 T 427.362950905993 106.29921 Z" stroke="#2166AC" fill="#2166AC" style="stroke-width: 0.5px;"/> <path d="M 368.497261925114 106.29921 Q 368.497261925114 159.448815 368.573433492009 194.881885 T 368.649605058905 283.46456 L 408.658957308271 283.46456 Q 408.658957308271 230.314955 407.01340833222 194.881885 T 405.36785935617 106.29921 Z" stroke="#1A5289" fill="#1A5289" style="stroke-width: 0.5px;"/> <path d="M 342.620057224283 106.29921 Q 342.620057224283 159.448815 345.1512361714 194.881885 T 347.682415118517 283.46456 L 367.01121321542 283.46456 Q 367.01121321542 230.314955 364.336752072271 194.881885 T 361.662290929123 106.29921 Z" stroke="#1A5289" fill="#1A5289" style="stroke-width: 0.5px;"/> <path d="M 398.064911575585 106.29921 Q 398.064911575585 159.448815 429.572805392993 194.881885 T 461.080699210401 283.46456 L 468.15540272263 283.46456 Q 468.15540272263 230.314955 436.753749327976 194.881885 T 405.352095933322 106.29921 Z" stroke="#1A5289" fill="#1A5289" style="stroke-width: 0.5px;"/> <path d="M 392.988519591121 106.29921 Q 392.988519591121 159.448815 424.545947552948 194.881885 T 456.103375514775 283.46456 L 460.581619589201 283.46456 Q 460.581619589201 230.314955 429.14316233248 194.881885 T 397.704705075758 106.29921 Z" stroke="#1A5289" fill="#1A5289" style="stroke-width: 0.5px;"/> <path d="M 348.07966215011 106.29921 Q 348.07966215011 159.448815 452.663529338583 194.881885 T 557.247396527056 283.46456 L 553.496054362622 283.46456 Q 553.496054362622 230.314955 455.556928309775 194.881885 T 357.617802256928 106.29921 Z" stroke="#1A5289" fill="#1A5289" style="stroke-width: 0.5px;"/> <path d="M 286.529581354801 106.29921 Q 286.529581354801 159.448815 248.592528416882 194.881885 T 210.655475478964 283.46456 L 204.464874573201 283.46456 Q 204.464874573201 230.314955 248.023780304081 194.881885 T 291.582686034961 106.29921 Z" stroke="#174778" fill="#174778" style="stroke-width: 0.5px;"/> <path d="M 272.762117868476 106.29921 Q 272.762117868476 159.448815 276.697226053661 194.881885 T 280.632334238845 283.46456 L 313.271961055834 283.46456 Q 313.271961055834 230.314955 308.703077866282 194.881885 T 304.13419467673 106.29921 Z" stroke="#174778" fill="#174778" style="stroke-width: 0.5px;"/> <path d="M 328.11059038013 106.29921 Q 328.11059038013 159.448815 330.372902419393 194.881885 T 332.635214458656 283.46456 L 342.671788134694 283.46456 Q 342.671788134694 230.314955 340.53227690022 194.881885 T 338.392765665745 106.29921 Z" stroke="#174778" fill="#174778" style="stroke-width: 0.5px;"/> <path d="M 304.050016864468 106.29921 Q 304.050016864468 159.448815 308.776005840232 194.881885 T 313.501994815997 283.46456 L 321.963503295178 283.46456 Q 321.963503295178 230.314955 317.461469079057 194.881885 T 312.959434862935 106.29921 Z" stroke="#174778" fill="#174778" style="stroke-width: 0.5px;"/> <path d="M 272.817536953669 106.29921 Q 272.817536953669 159.448815 380.814336623856 194.881885 T 488.811136294044 283.46456 L 494.111631612501 283.46456 Q 494.111631612501 230.314955 385.427010250827 194.881885 T 276.742388889153 106.29921 Z" stroke="#174778" fill="#174778" style="stroke-width: 0.5px;"/> <path d="M 260.05518775963 106.29921 Q 260.05518775963 159.448815 203.490626194264 194.881885 T 146.926064628897 283.46456 L 153.129477519455 283.46456 Q 153.129477519455 230.314955 209.547442404682 194.881885 T 265.965407289908 106.29921 Z" stroke="#103356" fill="#103356" style="stroke-width: 0.5px;"/> <path d="M 250.728097118661 106.29921 Q 250.728097118661 159.448815 204.975140053967 194.881885 T 159.222182989273 283.46456 L 153.259771010977 283.46456 Q 153.259771010977 230.314955 205.820560998741 194.881885 T 258.381350986505 106.29921 Z" stroke="#103356" fill="#103356" style="stroke-width: 0.5px;"/> <path d="M 239.148300737518 106.29921 Q 239.148300737518 159.448815 242.807486667706 194.881885 T 246.466672597893 283.46456 L 277.055625291659 283.46456 Q 277.055625291659 230.314955 273.121803035076 194.881885 T 269.187980778493 106.29921 Z" stroke="#103356" fill="#103356" style="stroke-width: 0.5px;"/> <path d="M 217.050806735654 106.29921 Q 217.050806735654 159.448815 215.807492695736 194.881885 T 214.564178655817 283.46456 L 230.587237339951 283.46456 Q 230.587237339951 230.314955 230.630383007368 194.881885 T 230.673528674784 106.29921 Z" stroke="#103356" fill="#103356" style="stroke-width: 0.5px;"/> <path d="M 124.015758503018 106.29921 Q 124.015758503018 159.448815 124.029298468569 194.881885 T 124.042838434119 283.46456 L 169.843175802767 283.46456 Q 169.843175802767 230.314955 167.869755239556 194.881885 T 165.896334676344 106.29921 Z" stroke="#091F34" fill="#091F34" style="stroke-width: 0.5px;"/> <path d="M 172.725801842326 106.29921 Q 172.725801842326 159.448815 180.197191293179 194.881885 T 187.668580744032 283.46456 L 210.742549254346 283.46456 Q 210.742549254346 230.314955 207.624055507471 194.881885 T 204.505561760596 106.29921 Z" stroke="#091F34" fill="#091F34" style="stroke-width: 0.5px;"/> <path d="M 165.916111196049 106.29921 Q 165.916111196049 159.448815 168.551002560032 194.881885 T 171.185893924015 283.46456 L 174.963893047956 283.46456 Q 174.963893047956 230.314955 172.184155859734 194.881885 T 169.404418671513 106.29921 Z" stroke="#091F34" fill="#091F34" style="stroke-width: 0.5px;"/> <path d="M 144.875379562017 106.29921 Q 144.875379562017 159.448815 206.153656441255 194.881885 T 267.431933320493 283.46456 L 273.537677741905 283.46456 Q 273.537677741905 230.314955 212.024256014545 194.881885 T 150.510834287186 106.29921 Z" stroke="#091F34" fill="#091F34" style="stroke-width: 0.5px;"/> <path d="M 205.225434639543 106.29921 Q 205.225434639543 159.448815 223.085599029639 194.881885 T 240.945763419735 283.46456 L 230.587237339951 283.46456 Q 230.587237339951 230.314955 222.022836255268 194.881885 T 213.458435170586 106.29921 Z" stroke="#091F34" fill="#091F34" style="stroke-width: 0.5px;"/> <path d="M 150.69804552561 106.29921 Q 150.69804552561 159.448815 207.822100320282 194.881885 T 264.946155114954 283.46456 L 256.386611527953 283.46456 Q 256.386611527953 230.314955 206.288762656581 194.881885 T 156.190913785208 106.29921 Z" stroke="#091F34" fill="#091F34" style="stroke-width: 0.5px;"/> <path d="M 191.684875862437 106.29921 Q 191.684875862437 159.448815 247.648154699817 194.881885 T 303.611433537196 283.46456 L 307.667827808376 283.46456 Q 307.667827808376 230.314955 253.132445161574 194.881885 T 198.597062514772 106.29921 Z" stroke="#091F34" fill="#091F34" style="stroke-width: 0.5px;"/> <path d="M 198.508193754164 106.29921 Q 198.508193754164 159.448815 249.560181446287 194.881885 T 300.61216913841 283.46456 L 295.186391056983 283.46456 Q 295.186391056983 230.314955 249.807615685842 194.881885 T 204.4288403147 106.29921 Z" stroke="#091F34" fill="#091F34" style="stroke-width: 0.5px;"/><rect x="124.015745" y="88.582675" rx="2" ry="2" width="89.4778520286434" height="17.71654" style="fill:#f7f7f7;stroke:black;stroke-width:0.5"/> <rect x="217.036904028643" y="88.582675" rx="2" ry="2" width="52.1779936653072" height="17.71654" style="fill:#f7f7f7;stroke:black;stroke-width:0.5"/> <rect x="272.758204693951" y="88.582675" rx="2" ry="2" width="66.0690421707129" height="17.71654" style="fill:#f7f7f7;stroke:black;stroke-width:0.5"/> <rect x="342.370553864663" y="88.582675" rx="2" ry="2" width="63.0005894254082" height="17.71654" style="fill:#f7f7f7;stroke:black;stroke-width:0.5"/> <rect x="408.914450290072" y="88.582675" rx="2" ry="2" width="57.3120624395209" height="17.71654" style="fill:#f7f7f7;stroke:black;stroke-width:0.5"/> <rect x="469.769819729593" y="88.582675" rx="2" ry="2" width="67.8218445912737" height="17.71654" style="fill:#f7f7f7;stroke:black;stroke-width:0.5"/> <rect x="541.134971320866" y="88.582675" rx="2" ry="2" width="66.5677086139061" height="17.71654" style="fill:#f7f7f7;stroke:black;stroke-width:0.5"/> <rect x="611.245986934772" y="88.582675" rx="2" ry="2" width="61.9823430652278" height="17.71654" style="fill:#f7f7f7;stroke:black;stroke-width:0.5"/> <rect x="124.015745" y="283.46456" rx="2" ry="2" width="86.926674708948" height="17.71654" style="fill:#f7f7f7;stroke:black;stroke-width:0.5"/> <rect x="214.485726708948" y="283.46456" rx="2" ry="2" width="62.5921180503226" height="17.71654" style="fill:#f7f7f7;stroke:black;stroke-width:0.5"/> <rect x="280.621151759271" y="283.46456" rx="2" ry="2" width="63.4591661387597" height="17.71654" style="fill:#f7f7f7;stroke:black;stroke-width:0.5"/> <rect x="347.62362489803" y="283.46456" rx="2" ry="2" width="61.0456739487282" height="17.71654" style="fill:#f7f7f7;stroke:black;stroke-width:0.5"/> <rect x="412.212605846759" y="283.46456" rx="2" ry="2" width="56.5382937389953" height="17.71654" style="fill:#f7f7f7;stroke:black;stroke-width:0.5"/> <rect x="472.294206585754" y="283.46456" rx="2" ry="2" width="67.3554033254227" height="17.71654" style="fill:#f7f7f7;stroke:black;stroke-width:0.5"/> <rect x="543.192916911177" y="283.46456" rx="2" ry="2" width="66.038437206318" height="17.71654" style="fill:#f7f7f7;stroke:black;stroke-width:0.5"/> <rect x="612.774661117494" y="283.46456" rx="2" ry="2" width="60.4536688825055" height="17.71654" style="fill:#f7f7f7;stroke:black;stroke-width:0.5"/><rect x="124.015745" y="91.582675" rx="2" ry="2" width="89.4778520286434" height="11.71654" style="fill:#216218;stroke:#216218;stroke-width:0.5"/> <rect x="217.036904028643" y="91.582675" rx="2" ry="2" width="52.1779936653072" height="11.71654" style="fill:#216218;stroke:#216218;stroke-width:0.5"/> <rect x="272.758204693951" y="91.582675" rx="2" ry="2" width="66.0690421707129" height="11.71654" style="fill:#216218;stroke:#216218;stroke-width:0.5"/> <rect x="342.370553864663" y="91.582675" rx="2" ry="2" width="63.0005894254082" height="11.71654" style="fill:#216218;stroke:#216218;stroke-width:0.5"/> <rect x="408.914450290072" y="91.582675" rx="2" ry="2" width="57.3120624395209" height="11.71654" style="fill:#216218;stroke:#216218;stroke-width:0.5"/> <rect x="469.769819729593" y="91.582675" rx="2" ry="2" width="67.8218445912737" height="11.71654" style="fill:#216218;stroke:#216218;stroke-width:0.5"/> <rect x="541.134971320866" y="91.582675" rx="2" ry="2" width="66.5677086139061" height="11.71654" style="fill:#216218;stroke:#216218;stroke-width:0.5"/> <rect x="611.245986934772" y="91.582675" rx="2" ry="2" width="61.9823430652278" height="11.71654" style="fill:#216218;stroke:#216218;stroke-width:0.5"/> <rect x="124.015745" y="286.46456" rx="2" ry="2" width="86.926674708948" height="11.71654" style="fill:#2166AC;stroke:#2166AC;stroke-width:0.5"/> <rect x="214.485726708948" y="286.46456" rx="2" ry="2" width="62.5921180503226" height="11.71654" style="fill:#2166AC;stroke:#2166AC;stroke-width:0.5"/> <rect x="280.621151759271" y="286.46456" rx="2" ry="2" width="63.4591661387597" height="11.71654" style="fill:#2166AC;stroke:#2166AC;stroke-width:0.5"/> <rect x="347.62362489803" y="286.46456" rx="2" ry="2" width="61.0456739487282" height="11.71654" style="fill:#2166AC;stroke:#2166AC;stroke-width:0.5"/> <rect x="412.212605846759" y="286.46456" rx="2" ry="2" width="56.5382937389953" height="11.71654" style="fill:#2166AC;stroke:#2166AC;stroke-width:0.5"/> <rect x="472.294206585754" y="286.46456" rx="2" ry="2" width="67.3554033254227" height="11.71654" style="fill:#2166AC;stroke:#2166AC;stroke-width:0.5"/> <rect x="543.192916911177" y="286.46456" rx="2" ry="2" width="66.038437206318" height="11.71654" style="fill:#2166AC;stroke:#2166AC;stroke-width:0.5"/> <rect x="612.774661117494" y="286.46456" rx="2" ry="2" width="60.4536688825055" height="11.71654" style="fill:#2166AC;stroke:#2166AC;stroke-width:0.5"/></svg>